<?xml version="1.0" encoding="UTF-8"?>
<svg id="Layer_1" data-name="Layer 1" xmlns="http://www.w3.org/2000/svg" width="400" height="39.5195 px" viewBox="0 0 539.42745 42.63578">
  <defs>
    <style>
      .cls-1, .cls-2 {
        fill: #282828;
      }

      .cls-2 {
        fill-rule: evenodd;
      }
    </style>
  </defs>
  <path class="cls-2" d="M290.5598,15.94516c0,1.10669-.85838,1.91064-1.90069,1.91064s-1.88587-.79403-1.88587-1.89575.85906-1.89575,1.90069-1.89575c1.04232,0,1.88587.78411,1.88587,1.88086ZM290.21281,15.95509c0-.90321-.71015-1.55829-1.54359-1.55829s-1.55842.65508-1.55842,1.56325.70947,1.55829,1.54359,1.55829c.83345,0,1.55842-.65507,1.55842-1.56325ZM289.0957,16.02457l.52621.88832h-.41706l-.44131-.85854h-.52083v.85854h-.35238v-1.98508h1.00727c.37732,0,.64479.22828.64479.54093,0,.26799-.17855.48138-.4467.55086v.00496ZM288.24743,15.75162h.62054c.19808,0,.33688-.10918.33688-.26798,0-.13896-.12398-.24318-.30724-.24318h-.6549v.51116h.00472ZM197.27112,24.42161c3.43323,0,5.66117-2.20718,5.66245-5.12898-.00128-2.92671-2.22922-5.05947-5.66245-5.05947h-7.08672v16.24788h3.64262v-6.05943h3.4441ZM196.71531,16.96761c1.67136,0,2.64387,1.0656,2.64515,2.32011-.00128,1.29911-.97379,2.38951-2.64515,2.38951h-2.88829v-4.70962h2.88829ZM218.1343,30.77871c3.75677,0,6.14884-2.52608,6.14884-6.21831,0-3.64264-2.41187-6.17359-6.14884-6.17359s-6.1289,2.48635-6.1289,6.17359,2.37219,6.21831,6.1289,6.21831ZM218.12938,28.15838c-1.85609,0-2.92306-1.50869-2.92306-3.59797,0-2.04461,1.04218-3.5533,2.92306-3.5533s2.94786,1.46402,2.94786,3.5533-1.09184,3.59797-2.94786,3.59797ZM231.26812,30.73404c-3.48235-.00121-5.63516-2.57647-5.63516-6.0595,0-3.48383,2.15874-6.05945,5.63765-6.05945,2.99246,0,4.87334,1.81139,5.27039,4.27289h-1.95035c-.32758-1.50869-1.36976-2.64512-3.32004-2.64512-2.39207,0-3.78164,1.88087-3.78164,4.43168s1.39456,4.43168,3.78164,4.43168c2.06448,0,3.15625-1.25556,3.43418-2.92299h1.90069c-.30266,2.6196-2.2024,4.54973-5.33736,4.55081ZM250.63009,18.6151c-3.36471,0-5.63759,2.5558-5.63759,6.12891l.00492.00499c0,3.43916,2.11414,5.98997,5.59299,5.98997,2.62027,0,4.57061-1.48882,5.22073-3.97016h-2.11407c-.55586,1.6675-1.85609,2.34241-3.15632,2.34241-2.01981,0-3.4143-1.60295-3.5533-3.94536v-.09426h8.91303v-.39705c0-3.48383-1.90567-6.05945-5.27038-6.05945ZM250.61028,20.2379c2.10909,0,3.31998,1.4392,3.36465,3.38955h-6.93782c.34739-2.08934,1.57816-3.38955,3.57317-3.38955ZM267.11616,22.91278v7.56813h-1.85622v-1.83122h-.04447c-.55585.88337-1.97548,1.95035-4.08436,1.95035-2.27261,0-3.7815-1.27544-3.7815-3.32004,0-2.20348,1.64769-3.85104,6.31283-3.85104h1.60288v-.51119c0-1.64762-1.04231-2.66994-2.73952-2.66994-1.60289,0-2.67013.88339-2.75907,2.29775h-1.90136c.07007-2.41189,1.85622-3.92055,4.66514-3.92055s4.59575,1.64762,4.59575,4.29274l-.01011-.00499ZM265.25994,25.99957v-1.09177h-1.60289c-3.43418,0-4.45628,1.0223-4.45628,2.32253,0,1.1613.90285,1.83122,2.34201,1.83122,2.04016,0,3.71244-1.46396,3.71244-3.06199h.00472ZM282.67405,18.6151c-3.36477,0-5.63738,2.5558-5.63738,6.12891l.00471.00499c0,3.43916,2.11427,5.98997,5.59292,5.98997,2.62026,0,4.57082-1.48882,5.221-3.97016h-2.11427c-.55585,1.6675-1.85555,2.34241-3.15591,2.34241-2.01995,0-3.41464-1.60295-3.55343-3.94536v-.09426h8.91322v-.39705c0-3.48383-1.90608-6.05945-5.27086-6.05945ZM282.65452,20.2379c2.10888,0,3.31964,1.4392,3.36478,3.38955h-6.93776c.34699-2.08934,1.57796-3.38955,3.57298-3.38955ZM244.69968,18.82849c-2.02978.18859-3.58308,1.03721-4.392,2.87839v-2.82876h-1.90069v11.60279h1.90069v-4.98754c0-3.18603,1.46403-4.62027,4.392-4.59541v-2.06947ZM207.35535,21.65722c.66992-1.95033,2.07439-2.84858,4.15874-3.04213v3.29027c-3.06698-.08436-4.15874,1.28035-4.15874,4.13887v4.43169h-3.27045v-11.79135h3.27045v2.97265ZM276.61489,20.49596v.00496l.00472-.00496h-.00472ZM276.61489,18.87812v1.61784h-4.24337v6.1488c0,1.50863.80919,2.32253,2.34268,2.32253.45614,0,.98235-.05956,1.54831-.25313v1.68738c-.46153.15382-.98303.23818-1.54831.23818-2.60073,0-4.24808-1.5285-4.24808-3.99003v-6.14876h-2.437v-1.61784h1.69721c.40696,0,.73979-.3325.73979-.73944v-2.98259h1.90069v3.71706h4.24808Z"/>
  <g>
    <path class="cls-1" d="M58.78822,26.74526h-.08486v-1.44691h.08486c-.01273.30551-.0297.60677-.03819.90803,0,.17821.02546.35642.03819.53888h0Z"/>
    <path class="cls-1" d="M58.78822,26.74526c-.01273-.17821-.03819-.36067-.03819-.53888,0-.30551.02122-.60677.03819-.90803.04667-.65344.157-1.29415.35218-1.92638.51342-1.64209,1.49782-2.93625,2.88957-3.93338.97592-.70012,2.05792-1.20929,3.13567-1.72271.41583-.19943.83165-.39885,1.27294-.61101-.0594-.12729-.10184-.22913-.15275-.32672-.43704-.81468-.89954-1.61663-1.31537-2.4398-.53463-1.0523-.94197-2.15127-1.1414-3.31813-.20791-1.20929-.22064-2.41434.14002-3.59817.45826-1.5148,1.41296-2.63074,2.78349-3.39875,1.0523-.58979,2.1937-.925,3.38602-1.10321,1.06927-.16124,2.15127-.1867,3.22902-.157,1.3875.03819,2.76228.20791,4.08189.68314.93773.33521,1.80757.77649,2.52466,1.47237.78498.76376,1.33234,1.68028,1.51904,2.76652.34369,2.02397-.12729,3.86125-1.40448,5.46939-.83165,1.04805-1.87546,1.85849-3.05081,2.48223-.83165.44129-1.7015.81468-2.55436,1.21778-.14851.06789-.29278.13578-.47947.22489.10184.1867.18245.36067.28429.51342.75952,1.12443,1.50631,2.26159,2.29553,3.3648,1.02259,1.43418,2.0664,2.85563,3.12719,4.26434.84014,1.11594,1.71847,2.20218,2.57982,3.30115.14427.18245.30126.34794.4625.51766.15275.16124.28429.19094.45401.05516.13154-.10184.26732-.24186.31823-.39461.19094-.53463.37764-1.06927.51342-1.61663.16124-.65344.2758-1.31537.39037-1.98154.15275-.87833.03819-1.74393-.1867-2.59679-.25459-.96319-.67466-1.86273-1.06927-2.77076-.10184-.23762-.19518-.47099-.30126-.72133.06365-.02546.09759-.05516.13154-.05516h8.38867c.01697.09759.04243.19943.04667.30126.00848.36491.00848.73406.01273,1.09897.00424.84014-.14851,1.66331-.30975,2.48647-.19094.97168-.47099,1.92214-.77225,2.86836-.30975.98016-.82317,1.84152-1.46812,2.63074-.67042.82317-1.42145,1.56996-2.21067,2.2828-.28429.25883-.56434.52615-.84863.78498-.19943.18245-.4031.35642-.6195.54312,0,.00848,0,.04243.01697.0594.7086.72557,1.43842,1.42569,2.33372,1.92214.56858.31399,1.16686.55161,1.82879.57282.45826.01697.80195-.17397,1.06078-.53464.44553-.62798.74679-1.3281.92076-2.07065.20367-.87408.29278-1.76514.19094-2.66468-.02122-.19943-.01273-.40734-.0297-.60677-.02546-.28429.09335-.47099.32672-.62374.80195-.53463,1.59542-1.07776,2.39737-1.61663,1.3875-.94198,2.77501-1.88395,4.16251-2.82592.08486-.0594.17821-.11032.30975-.19094.02546.12729.05092.22489.0594.32248.05516.64496-.01273,1.28991-.1273,1.92638-.16973.96319-.34369,1.93062-.62798,2.8726-.47523,1.56571-1.22202,2.98716-2.26159,4.25586-.58979.72557-1.25172,1.36204-2.04519,1.85425-.92076.57282-1.92214.93773-2.99989,1.04805-.58555.06365-1.1711.11032-1.75666.11032-1.7312.00424-3.40723-.33096-5.01538-.96319-.50069-.19943-.99289-.41583-1.47661-.65769-.22064-.11032-.40734-.11032-.62798-.02546-.75528.29278-1.51055.57707-2.27432.84014-1.06078.36491-2.15127.57707-3.26297.70436-1.02684.11881-2.06216.14426-3.089.08486-.97168-.05092-1.93487-.16548-2.9023-.26732-1.21778-.12305-2.41434-.36067-3.59393-.70012-1.5445-.44553-3.01687-1.0523-4.34921-1.96881-1.19232-.82317-2.1937-1.8203-2.84714-3.12719-.4328-.86135-.67041-1.78211-.72982-2.74106-.00424-.06789-.01273-.13154-.02546-.19943h.00849-.00849,0ZM68.87414,20.64788c-.04667.06365-.08486.09759-.10608.13578-.17821.35218-.36915.69587-.5219,1.06078-.44977,1.06078-.71285,2.17248-.79347,3.32237-.05092.71709-.02122,1.43842.09759,2.15551.22064,1.38326.64496,2.69439,1.37902,3.89095.82317,1.34083,1.9773,2.29978,3.45391,2.85138,1.22202.45401,2.47799.57707,3.77639.38188,1.27294-.19094,2.43131-.64071,3.47512-1.3875.16124-.11456.29278-.2461.37764-.44553-.08911-.07638-.17397-.157-.26307-.22489-1.12019-.88257-2.17673-1.83728-3.19932-2.83017-1.06927-1.04381-2.08338-2.13854-3.06778-3.26297-1.3578-1.55299-2.65196-3.15265-3.92065-4.77352-.22489-.28429-.44977-.56858-.69163-.86984h.00424v-.00425ZM72.34927,14.48686c.17821-.14427.32248-.25034.45401-.3734.89106-.83165,1.53177-1.82879,1.91365-2.98292.39885-1.20505.57707-2.44829.52615-3.72122-.02546-.63647-.13154-1.26021-.34794-1.86273-.16973-.48372-.44129-.89954-.87833-1.18808-.94622-.6195-2.34221-.49645-3.1484.50069-.58555.72558-.84438,1.56996-.87833,2.48647-.03819.99714.14427,1.97305.42856,2.92776.38188,1.2687.96743,2.45253,1.59117,3.6109.09759.1867.20367.36915.33096.60252h.00849Z"/>
    <path class="cls-1" d="M117.89077,35.80858c-.00849.47099-.01697.9547-.02122,1.43418,0,.16548.02546.32672.02122.48796-.00849.25034.09335.44553.25883.6195.09335.09759.17821.19943.28853.31399-1.65058,1.31961-3.29267,2.6265-4.97295,3.97157-.02971-.23761-.06789-.42431-.06789-.61101,0-1.25172-.02122-2.50345,0-3.75517.02122-1.03957.11881-2.07913.13578-3.1187.02546-1.55299.00849-3.10173.00849-4.65471,0-.59828.00849-1.19232,0-1.7906,0-.23762-.01273-.47947-.03819-.71709-.03819-.3734-.23337-.64496-.55161-.8359-.04243-.02546-.07638-.05516-.14851-.10184,1.74392-1.22626,3.35631-2.58407,4.98567-3.92489.02546-.02122.06364-.0297.11881-.05516.11032.45826.09759.90803.09759,1.3578v1.40023c.10608-.06789.16124-.09759.20792-.13578.16548-.13154.3352-.25883.49645-.39885.96319-.81044,2.04519-.91227,3.20356-.53463.64071.20791,1.16686.58555,1.58693,1.1117.6789.84438,1.05229,1.81182,1.12443,2.88957.06789.98016.05516,1.96457-.20367,2.92776-.30551,1.15413-.85287,2.164-1.81182,2.91503-.84014.66193-1.80757,1.01411-2.8726,1.09897-.60252.04667-1.20929.06789-1.86273.11032h.00849l.00849-.00424ZM117.77621,35.2697c.73406-.09335,1.09897-.24186,1.49782-.60677.31823-.29278.54312-.6492.70436-1.04381.32248-.78073.49645-1.6039.51766-2.4398.01697-.69163-.02971-1.38326-.03819-2.07913,0-.64071-.23761-1.20081-.5601-1.73544-.1867-.31399-.45826-.54312-.79346-.69163-.17821-.08062-.36491-.11881-.5601-.07213-.36915.09335-.61101.39037-.64071.82741-.04667.75952-.11032,1.51904-.11881,2.27856-.02122,1.79909-.01697,3.59817-.02122,5.39726,0,.04667,0,.09335.00849.16124h0l.00424.00424Z"/>
    <path class="cls-1" d="M83.13954,3.51412c.25883-.00849.44977-.02546.63647-.02546h6.50896c.73406,0,1.43842.11881,2.10459.4328,1.18808.55585,1.67179,1.53177,1.62936,2.7453-.00848.25034-.03819.50069-.10183.74255-.1867.73406-.6492,1.26021-1.33234,1.57844-.40734.19094-.83165.35642-1.24748.53463-.05516.02122-.10183.04667-.19094.08486.14426.05516.25459.09759.36491.13578.27156.09759.54312.1867.81892.28429,1.1414.40734,1.86698,1.21778,2.14702,2.3804.39037,1.62512-.0594,3.01262-1.32386,4.10735-.63647.55161-1.4172.78498-2.24462.80195-1.90941.0297-3.81457.0297-5.72398.04243-.53039,0-1.06078-.00849-1.59117-.01273-.06789,0-.13578.01273-.20367,0-.08486-.02122-.20791-.03395-.25034-.09759-.06789-.11032.06365-.16124.12729-.22489.28429-.29702.4328-.65768.47947-1.06078.02122-.18245.0297-.36491.0297-.54736V5.35564c0-.23762-.01273-.48372-.05092-.71709-.06365-.41158-.25883-.76376-.58979-1.12019h.00424v-.00424ZM87.84517,16.99879c.95046.07638,1.65482-.29278,2.07913-1.05654.26308-.47947.41583-.99289.49645-1.52753.09335-.64496.04667-1.28567.00424-1.93062-.04243-.64496-.26732-1.21778-.58979-1.7609-.39461-.66617-1.19232-.97168-2.04094-.78498-.1273,2.34645-.10183,4.70139.05516,7.06057h-.00424ZM87.8282,9.42905c.85711.13578,1.45539-.28005,1.73968-.92076.0297-.06789.06365-.14002.08911-.21216.31399-.83165.39037-1.68028.22064-2.55436-.08486-.44553-.20367-.88257-.44553-1.27294-.34369-.54736-.98016-.76801-1.64209-.55585-.10183,1.82879-.09759,3.66606.03819,5.51183h0v.00424Z"/>
    <path class="cls-1" d="M111.1739,19.93503v4.98568c-.07213-.04667-.13154-.06365-.15275-.10184-.07213-.14851-.14002-.29278-.19094-.44977-.53464-1.60815-1.56147-2.80895-3.01262-3.66606-.50069-.29702-1.03532-.44553-1.62936-.38188-1.04381.11456-1.69725.9547-1.56147,2.00276.14851,1.15413.70436,2.04095,1.70574,2.63923.95895.57282,1.91789,1.14565,2.87684,1.71422.61525.36491,1.19232.78074,1.67603,1.31961,2.23613,2.50769,1.21778,6.44956-1.96457,7.59945-.79771.28853-1.62512.39886-2.4695.39037-1.28567-.01273-2.5289-.22913-3.69152-.80195-.31823-.157-.62374-.33945-.925-.53039-.37339-.23337-.53888-.58131-.53464-1.0226.00848-1.34083.00848-2.67741.00848-4.01824,0-.20791.04243-.4031.27156-.53888.0594.17821.1273.34369.17821.51766.44553,1.50207,1.09473,2.89806,2.10459,4.10735.32672.39037.69163.75103,1.06927,1.09473.4031.36915.87833.6195,1.42994.7086.34794.0594.69163.02546,1.02684-.06789.69587-.19094,1.04805-.58555,1.12867-1.2984.15275-1.4172-.28429-2.59255-1.50631-3.39875-.90803-.59828-1.84152-1.15838-2.75803-1.74393-.40734-.25883-.81468-.51342-1.20081-.8062-1.16686-.88681-1.76514-2.08338-1.88395-3.53028-.04667-.55161.00424-1.09897.14851-1.62936.37764-1.37902,1.25172-2.29129,2.5968-2.75803,1.27294-.44129,2.57134-.5219,3.90368-.33096.75952.11032,1.53601.13578,2.30402.15275.33945.00849.68314-.09335,1.0523-.15275h.00848-.00848v-.00424Z"/>
    <path class="cls-1" d="M147.18109,2.25392c0,2.18097.02546,4.35769-.14002,6.53442.01697.00849.03819.01697.05516.02546.16548-.14427.33096-.28005.48796-.4328.94622-.92076,2.07913-1.16686,3.3351-.87408.96319.22489,1.64209,1.04381,1.75666,2.02822.14002,1.14989.14426,2.30826.15699,3.45815.00849.80619,0,1.61663-.02122,2.42707-.01273.6789.11457,1.2984.58555,1.8203,0,0,0,.01697.00849.04667h-5.08751c.01273-.02546.02122-.06365.04243-.08062.50493-.40734.69163-.95895.71284-1.57844.00849-.33945,0-.67466,0-1.00986,0-1.41721,0-2.83017-.01273-4.24737,0-.26732-.05516-.53463-.09759-.80195-.01697-.10184-.05516-.20367-.09759-.30126-.2758-.57282-.94198-.65769-1.34507-.16124-.28853.35642-.44977.76801-.45402,1.22202-.00849,1.84152-.00849,3.67879-.00849,5.52031,0,.45401.17397.84014.4922,1.16686.08062.08062.16548.157.28429.27156h-5.24875c.02546-.03819.04667-.08486.08062-.11881.42855-.39885.61101-.90379.62798-1.47237.01273-.50918,0-1.01835,0-1.53177,0-1.97305,0-3.95035-.00849-5.92341,0-.56858-.06364-1.13292-.11881-1.69725-.01697-.17821-.11032-.34369-.18245-.51342-.05516-.11881-.13154-.23337-.20367-.36067.4328-.35642.85287-.70436,1.27718-1.0523.86984-.71709,1.74393-1.42993,2.60952-2.15127.14851-.12305.30127-.19943.51342-.20791h0v-.00425Z"/>
    <path class="cls-1" d="M127.51843,17.30854h-10.98546c.02971-.04667.04667-.08062.06789-.09759.48796-.34794.68738-.84014.70436-1.41721.01273-.34794,0-.69163,0-1.03957v-7.92192c0-.45826-.08486-.86984-.60252-1.082,1.49358-1.19232,2.95321-2.35918,4.43831-3.54301.11457.2461.16548.47099.15699.71285-.05516,1.68452-.11457,3.36904-.16124,5.05357-.02971,1.12867-.04667,2.2531-.06789,3.38177v.73406c.10184-.0594.16548-.08062.20792-.11881.72982-.6195,1.39175-1.30264,1.99003-2.04943.08062-.10184.14851-.22489.20367-.34794.25459-.60252.06789-1.15837-.49645-1.48934-.19094-.11032-.39037-.20791-.58555-.36491.08486-.02122.16972-.04243.25459-.05516,1.01835-.11032,2.0367-.12305,3.0593-.08486.47099.01697.94198.05516,1.41296.08911.13578.00849.2758.04243.42007.11881-.16972.0594-.3352.12729-.50917.16973-1.04805.26732-1.95608.79347-2.77076,1.49358-.34794.29702-.4031.54736-.22489.97592.70011,1.69725,1.40447,3.39875,2.10035,5.096.28853.70436.6789,1.31537,1.34931,1.71422.01273.00849.01273.0297.03395.06789h0l.00424.00424ZM121.2683,13.29878c-.20792-.03819-.24186.05516-.23337.20791.02546.53039.03819,1.05654.06364,1.58693.02122.36491.04667.72982.07637,1.09473.02122.29278.17821.52615.37764.72557.16972.16973.50069.19943.66193.05516.21216-.19094.34794-.44129.23761-.72557-.38613-.99289-.79346-1.9773-1.18808-2.94898h.00424v.00424Z"/>
    <path class="cls-1" d="M141.93659,32.51591c-.04243.81892-.31399,1.50207-.8656,2.05792-.70011.7086-1.55723,1.12867-2.52891,1.2984-3.0593.53888-5.89371-1.26445-6.60231-4.28556-.5601-2.39312.16548-4.41286,2.05367-5.9913.76801-.64496,1.69301-.94622,2.6859-1.01835,1.22626-.09335,2.40161.07638,3.47936.71709.84863.50918,1.38751,1.23899,1.5445,2.2234.24186,1.49782-.71284,2.88957-2.12156,3.12294-.66617.11032-1.3281.0594-1.94759-.23761-.82317-.39037-1.18383-1.09473-1.27718-1.96033-.0594-.54736.05516-1.06927.25883-1.57844.15275-.3734.28429-.75952.40734-1.1414.07637-.22913.02546-.43704-.16548-.60252-.18245-.14851-.37764-.16973-.55161-.02122-.28429.25034-.53463.53463-.62798.91227-.20367.86984-.31823,1.73968-.1867,2.63498.17397,1.2008.66193,2.2531,1.56572,3.07627.98016.89954,2.16824,1.16686,3.45815,1.04805.41158-.03819.81468-.14851,1.21778-.22913.05516-.00848.11032-.02122.20367-.04243h0v.01697Z"/>
    <path class="cls-1" d="M147.62662,30.91201c-.09759.14851-.06364.2461.02971.35642,1.01411,1.13291,2.27856,1.64633,3.79336,1.51904.46675-.03819.92925-.157,1.39175-.23761.04667-.00848.09335-.00848.15699-.01273.04243.53039-.08062,1.00562-.36491,1.43418-.54736.8359-1.29416,1.42145-2.24461,1.72695-3.2757,1.0523-6.64049-.86984-7.37456-4.17948-.44553-1.99851.02971-3.80609,1.42993-5.32513.95046-1.03532,2.15551-1.56571,3.55574-1.62512.99714-.04243,1.98154.06365,2.91927.43704.71709.28853,1.29416.75528,1.74393,1.37902.58555.8062.69163,1.69725.4031,2.63498-.1867.60252-.60676,1.01835-1.15413,1.30688-.56858.29702-1.18383.47523-1.8203.52191-.7086.05516-1.42145.04667-2.13429.06789h-.33096v-.00425ZM147.12169,30.47073c.75104.05516,1.37053-.2164,1.78636-.78922.13578-.1867.25459-.39037.34369-.59828.42007-1.00987.3734-2.03246,0-3.03808-.09759-.27156-.28853-.52615-.49645-.73406-.44128-.45401-1.15837-.39885-1.55299.09759-.25883.32672-.45402.68314-.5601,1.09473-.35642,1.38326-.08062,2.6859.47948,3.96733h0Z"/>
    <path class="cls-1" d="M116.00682,12.34408c.05516.85711-.02546,1.69725-.40734,2.47799-.75952,1.54026-1.99427,2.46526-3.69152,2.73257-1.14989.18245-2.24462-.0297-3.27145-.57282-1.00562-.53039-1.70998-1.33234-2.08762-2.40585-.41583-1.1711-.50493-2.36767-.19094-3.57696.50493-1.96457,2.09186-3.3351,4.11159-3.57696,1.33659-.16124,2.57982.11456,3.65333.93773,1.20081.91652,1.83303,2.15127,1.88819,3.66606v.31823h-.00424ZM111.93766,12.53926h.01697c0-.44553.00848-.88681,0-1.3281-.01697-.69163-.02546-1.38326-.08062-2.07489-.02546-.32248-.13154-.64071-.23337-.95046-.09759-.30126-.36491-.43704-.61101-.31823-.30126.14427-.56858.33945-.61525.7086-.0594.47947-.14426.9547-.14851,1.43418-.02122,1.42569,0,2.85138-.01697,4.27283-.00848.82317.08062,1.6336.28429,2.43131.08062.30551.25883.4625.53888.48372.26732.02122.4922-.12729.58979-.41583.15275-.45401.28005-.92076.28005-1.40872v-2.83017h0l-.00424-.00424Z"/>
    <path class="cls-1" d="M105.33535,12.73869c-.0297,1.15837-.30551,2.23613-1.09048,3.12294-1.25597,1.41721-2.82168,1.99427-4.6929,1.65058-.4328-.08062-.8656-.20367-1.27294-.36491-1.05654-.42431-1.82455-1.1711-2.27856-2.21491-.52191-1.19656-.67466-2.45253-.40734-3.72971.37764-1.82455,1.55299-2.96595,3.25872-3.58544,1.21778-.44553,2.42283-.31823,3.60242.1867,1.76514.75952,2.68166,2.12156,2.83865,4.014.02546.30551.0297.61525.04667.92076h-.00424ZM101.24922,12.53926h.01273v-2.2531c0-.58979-.03819-1.17535-.18245-1.74817-.04243-.16973-.11881-.34794-.22913-.48796-.23761-.30126-.63647-.30126-.86984,0-.11881.15275-.22489.34794-.25459.53888-.08062.5219-.15275,1.04805-.16548,1.57844-.02546,1.31961-.00848,2.63923-.01273,3.95884,0,.78074.01273,1.55723.16973,2.32948.04243.20367.11032.39037.25459.54312.25883.28429.64495.28853.87408-.02122.12305-.16548.2164-.3734.25034-.57282.07638-.42431.13154-.85711.14426-1.28991.02122-.85711.00848-1.71422.00848-2.57134h0v-.00424Z"/>
    <path class="cls-1" d="M141.46984,7.54934c.08062,1.17959.09335,2.33372-.01273,3.47937-.10608.09759-.18245.07213-.23337-.03819-.10184-.20791-.20367-.41583-.30551-.62374-.3734-.78074-.84014-1.49358-1.5148-2.05367-.32248-.27156-.68314-.47947-1.11595-.48796-.2164-.00424-.44977.01697-.65344.08486-.43704.14851-.68738.60252-.6195,1.06078.08062.57282.39886.99714.88257,1.29415.55585.34369,1.12867.66617,1.69725.98865.61101.34369,1.16262.75103,1.65907,1.24324,1.07775,1.082,1.05229,3.1781-.36491,4.17524-.82741.58131-1.74393.89106-2.74955.94198-1.04805.04667-2.07913-.05516-3.07627-.39037-.4625-.15275-.87833-.39461-1.26445-.6789-.0594-.04243-.12305-.13154-.12305-.20367-.00849-.95046,0-1.90516,0-2.92776.19943.19943.31399.3734.43704.55161.32672.48796.64496.98016.99289,1.45539.33945.45826.74679.85711,1.21778,1.18808.51342.36491,1.06502.61101,1.71422.60677.92076-.00849,1.12019-.90803.82317-1.40872-.07213-.12305-.16548-.23762-.25883-.34369-.36491-.39037-.79771-.69587-1.25597-.96743-.50493-.29702-1.0226-.57707-1.52753-.87408-.38188-.22489-.76801-.44553-1.12443-.70436-1.07775-.78074-1.51055-2.24886-1.04805-3.45391.22489-.5898.63647-1.03108,1.14989-1.37477.7086-.47523,1.49782-.69587,2.35069-.66193.71284.02546,1.42145.08486,2.13853.11032.62798.02122,1.25172.01697,1.8797.02546h.32672-.00849l-.00849-.01273h-.00423Z"/>
    <path class="cls-1" d="M130.3486,24.78493c.03395.25883.08486.4625.08486.66617-.00849,1.7906-.01273,3.5812-.03819,5.37604-.01273.84863-.06789,1.69301-.09759,2.54163-.00849.30551,0,.61525.02546.92076.05516.53464.33096.93349.78922,1.20929.04667.0297.09335.06365.1867.13154-.16124.05516-.2758.11881-.39461.1273-1.59541.08486-3.19508.16124-4.79474.23337h-.16972c0-.02546-.01273-.04667-.00849-.0594.4922-.57707.62798-1.26021.63223-1.99427v-2.04943c0-.78922-.01273-1.57844,0-2.36767.00849-.50069-.05516-.96319-.51766-1.31537,1.42993-1.1414,2.83017-2.26159,4.28556-3.41996h.01696Z"/>
    <path class="cls-1" d="M127.84091,10.53226c1.47237-1.17959,2.91503-2.33372,4.38315-3.50907.06789.32248.08486.62374.07637.925-.03395,1.85-.07213,3.70001-.10184,5.54577-.01273.71285-.01273,1.42569-.02122,2.13854-.00849.60252.16124,1.12019.65769,1.49782.02122.01273.02971.04667.05516.08486-.04667.0297-.08486.07638-.13578.08486-.07637.01273-.15275,0-.23337,0h-4.87111c.06364-.07213.08911-.11032.12305-.13578.44128-.3734.63223-.8656.6492-1.42993.01273-.47099,0-.94197,0-1.41721v-2.34221c0-.11456,0-.23337-.00849-.34794-.02971-.43704-.14426-.8359-.57707-1.10321h.00424v.00849Z"/>
    <path class="cls-1" d="M128.07004,25.42564c-1.22626.11881-2.35494-1.02259-2.35918-2.38464,0-1.20929,1.14989-2.33372,2.3804-2.32523,1.23899.00849,2.36343,1.16262,2.35494,2.42283-.00849,1.25172-1.08624,2.29129-2.37615,2.28705Z"/>
    <path class="cls-1" d="M132.59746,5.02892c-.01697,1.31537-1.03108,2.33796-2.29978,2.32523-1.33234-.02122-2.29978-1.03532-2.29129-2.38888.00849-1.12867,1.00138-2.1937,2.37191-2.20218,1.18808,0,2.30826,1.22202,2.21491,2.26583h.00424Z"/>
  </g>
  <g id="layer1">
    <path id="path3008" class="cls-1" d="M476.0351,26.43127v-13.32343h2.33372v13.32343h-2.33372Z"/>
    <path id="path3010" class="cls-1" d="M484.39406,16.75693c-3.01262,0-5.09176,2.29129-5.09176,4.96446,0,2.97019,2.24886,4.96446,5.09176,4.96446s5.04932-1.99427,5.04932-5.00689c0-2.50345-1.95184-4.92203-5.04932-4.92203h0ZM484.35163,19.00579c1.56996,0,2.7156,1.23051,2.7156,2.7156,0,1.56996-1.27294,2.7156-2.67317,2.7156-1.65482,0-2.7156-1.31537-2.7156-2.7156,0-1.52753,1.18808-2.7156,2.67317-2.7156Z"/>
    <path id="path3012" class="cls-1" d="M495.34134,16.75693c-3.01262,0-5.09176,2.29129-5.09176,4.96446,0,2.97019,2.24886,4.96446,5.09176,4.96446s5.04932-1.99427,5.04932-5.00689c0-1.78211-.76376-2.54588-.76376-2.54588l.63647-.21216v-1.90941h-3.30964s-.72133-.25459-1.61239-.25459h0ZM495.29891,19.00579c1.56996,0,2.7156,1.23051,2.7156,2.7156,0,1.56996-1.27294,2.7156-2.67317,2.7156-1.65482,0-2.7156-1.31537-2.7156-2.7156,0-1.52753,1.18808-2.7156,2.67317-2.7156h0Z"/>
    <path id="path3014" class="cls-1" d="M498.01451,27.06773c0,1.56996-1.27294,2.7156-2.67317,2.7156-1.65482,0-2.7156-1.31537-2.7156-2.7156h-2.37615c0,2.97019,2.24886,4.96446,5.09176,4.96446s5.04932-1.99427,5.04932-4.96446h-2.37615Z"/>
    <path id="path3016" class="cls-1" d="M501.32415,26.43127v-9.41975h2.33372v9.37732h-2.33372v.04243Z"/>
    <path id="path3018" class="cls-1" d="M505.94916,26.43127v-7.29818h-1.27294v-2.12156h1.27294v-2.8429h2.33372v2.88533h1.27294v2.12156h-1.27294v7.29818c0-.04243-2.33372-.04243-2.33372-.04243Z"/>
    <path id="path3020" class="cls-1" d="M504.03975,14.38078c0,.84863-.6789,1.56996-1.56996,1.56996s-1.56996-.6789-1.56996-1.56996.72133-1.56996,1.61239-1.56996,1.52753.6789,1.52753,1.56996Z"/>
    <path id="path3022" class="cls-1" d="M514.85973,16.75693c-3.01262,0-4.96446,2.29129-4.96446,5.04932s1.95184,4.92203,5.00689,4.92203c2.8429,0,4.24313-1.78211,4.24313-1.78211l-1.56996-1.56996s-1.18808,1.27294-2.67317,1.27294c-1.23051,0-2.20643-.6789-2.58831-1.95184h7.29818v-.63647c.04243-2.63074-1.44266-5.30391-4.7523-5.30391h0ZM514.77487,18.79363c1.06078,0,2.20643.59404,2.41858,1.95184h-4.8796c.16973-.93349,1.01835-1.95184,2.46102-1.95184h0Z"/>
    <path id="path3024" class="cls-1" d="M525.50998,26.68585c-3.01262,0-5.09176-2.29129-5.09176-5.00689s2.33372-4.92203,5.09176-4.92203,4.03097,1.86698,4.03097,1.86698l-1.61239,1.61239s-.93349-1.23051-2.37615-1.23051c-1.61239,0-2.7156,1.23051-2.7156,2.67317,0,1.52753,1.18808,2.7156,2.67317,2.7156s2.41858-1.23051,2.41858-1.23051l1.65482,1.61239c-.04243.04243-1.3578,1.90941-4.0734,1.90941h0Z"/>
    <path id="path3026" class="cls-1" d="M530.38959,26.43127v-13.36586h2.33372v4.92203s.89106-1.23051,2.8429-1.23051c2.46102,0,3.86125,1.82455,3.86125,4.15827v5.51607h-2.29129v-5.17662c0-1.56996-.97592-2.20643-2.07913-2.20643-1.2305,0-2.33372.6789-2.33372,2.33372v5.04932h-2.33373Z"/>
  </g>
  <g>
    <path class="cls-1" d="M358.26867,11.53877c-.25459-.38188-.50917-.76376-.8062-1.10321-.29702-.38188-.59404-.72133-.93349-1.01835-.29702-.33945-.63647-.63647-1.01835-.93349-.33945-.29702-.72133-.59404-1.06078-.84863-.55161-.38188-1.14564-.76376-1.73968-1.06078-1.23051-.63647-2.50345-1.14564-3.81882-1.4851-.6789-.16973-1.31537-.29702-1.99427-.38188-.33945-.04243-.6789-.08486-1.01835-.08486-.33945-.04243-.6789-.04243-1.01835-.04243h-1.01835c-.33945,0-.6789.04243-1.01835.08486s-.6789.08486-1.01835.16973-.6789.12729-1.01835.21216-.6789.16973-1.01835.29702c-.33945.12729-.6789.21216-.97592.38188l-9.92892,3.90368c-.25459.08486-.55161.25459-.80619.38188-.25459.12729-.50918.25459-.72133.42431-.21216.12729-.46674.29702-.6789.46674-.21216.16973-.42431.33945-.59404.55161-.29702.29702-.55161.59404-.76376.89106s-.42431.63647-.59404.97592c-.16973.33945-.33945.6789-.46674,1.06078-.12729.33945-.21216.72133-.25459,1.10321,0,.21216-.04243.38188-.04243.59404v1.18808c0,.21216.04243.38188.08486.59404s.08486.38188.12729.59404l.16973.59404c.08486.21216.16973.38188.25459.59404s.16973.38188.29702.59404c.12729.25459.29702.50918.46674.72133.16973.21216.33945.46674.55161.6789s.38188.42431.59404.63647.42431.38188.6789.55161c.33945.25459.72133.50918,1.10321.72133.38188.21216.76376.42431,1.18808.59404s.84863.29702,1.27294.42431c.42431.08486.84863.21216,1.31537.25459.21216,0,.46674.04243.6789.04243h1.3578c.21216,0,.46674-.04243.6789-.08486s.46674-.08486.6789-.12729.46674-.08486.6789-.16973.42431-.12729.63647-.21216.42431-.16973.63647-.25459l8.69841-3.81882c.38188-.16973.6789-.38188.97592-.6789.25459-.25459.42431-.59404.55161-.93349.08486-.33945.12729-.6789.08486-1.06078s-.16973-.72133-.38188-1.06078-.50918-.63647-.84863-.84863c-.6789-.46674-1.4851-.72133-2.29129-.6789-.42431,0-.8062.12729-1.18808.25459l-8.61355,3.73395-.25459.08486-.25459.08486h-.25459c-.08486.04243-.16973.04243-.25459.04243h-.38188c-.12729,0-.25459,0-.38188-.04243-.12729,0-.25459-.08486-.38188-.08486s-.21216-.08486-.33945-.16973c-.04243,0-.12729-.04243-.16973-.08486-.04243,0-.12729-.08486-.16973-.08486l-.16973-.08486c-.04243-.04243-.08486-.08486-.12729-.12729l-.12729-.12729c-.04243,0-.08486-.08486-.12729-.12729,0-.04243-.08486-.08486-.08486-.16973,0-.04243-.08486-.12729-.08486-.16973-.04243-.08486-.08486-.16973-.12729-.21216l-.08486-.21216c0-.08486-.04243-.12729-.04243-.21216v-.55161c0-.12729,0-.21216.04243-.33945,0-.12729.08486-.21216.08486-.29702.04243-.08486.08486-.21216.16973-.29702,0-.04243.08486-.08486.08486-.12729s.08486-.08486.08486-.12729.08486-.08486.12729-.12729l.12729-.12729s.08486-.08486.12729-.08486l.16973-.08486.16973-.08486c.04243,0,.12729-.04243.16973-.08486l9.92892-4.15827c.25459-.08486.50918-.21216.76376-.29702s.50918-.16973.76376-.21216.50918-.08486.76376-.12729c.25459,0,.50918-.04243.8062-.04243h1.18808c.38188,0,.8062.08486,1.18808.16973.38188.08486.76376.21216,1.14565.29702s.72133.29702,1.10321.46674l.50918.25459c.16973.08486.33945.21216.50918.29702s.33945.21216.46674.33945c.16973.12729.29702.25459.46674.38188s.29702.25459.42431.42431c.1273.12729.25459.29702.42431.42431.1273.16973.25459.29702.38188.46674s.25459.33945.33945.50918c.1273.21216.25459.46674.38188.6789s.21216.46674.29702.6789.16973.46674.21216.72133.08486.46674.16973.72133c.04243.33945.08486.72133.08486,1.06078s0,.72133-.08486,1.06078c-.04243.33945-.16973.6789-.25459,1.01835-.1273.33945-.25459.63647-.46674.97592-.08486.16973-.16973.29702-.29702.46674-.08486.12729-.21216.29702-.33945.42431s-.25459.29702-.38188.42431-.25459.25459-.42431.38188c-.1273.12729-.29702.25459-.42431.38188-.16973.12729-.29702.21216-.46674.33945s-.33945.21216-.50918.29702-.38188.21216-.55161.25459l-14.04476,6.36469,5.47364,8.23167c.25459.38188.55161.6789.93349.93349s.76376.42431,1.18808.50917.84863.1273,1.27294.08486c.42431-.04243.84863-.16973,1.23051-.38188.33945-.21216.6789-.46674.93349-.76376.46674-.59404.6789-1.40023.59404-2.164-.08486-.38188-.21216-.8062-.42431-1.14564v-.16972l-1.69725-2.58831,7.97708-3.69152c.46674-.21216.84863-.42431,1.27294-.6789s.8062-.50918,1.18808-.76376.72133-.55161,1.06078-.84863.63647-.59404.93349-.93349c.42431-.46674.8062-1.01835,1.14564-1.52753.33945-.50918.59404-1.10321.84863-1.65482.21216-.55161.42431-1.14565.55161-1.73968.1273-.59404.21216-1.18808.25459-1.82455v-.93349c0-.29702,0-.63647-.04243-.93349s-.08486-.63647-.1273-.93349-.1273-.63647-.21216-.93349-.16973-.63647-.29702-.93349-.25459-.63647-.38188-.93349-.29702-.59404-.46674-.89106-.38188-.59404-.59404-.89106"/>
    <path class="cls-1" d="M376.85358,6.65917c-.38188-1.10321-1.44266-1.82455-2.63074-1.78211-1.61239,0-3.13992,1.27294-3.13992,4.15827s1.73968,4.11584,3.13992,4.11584c1.18808.08486,2.29129-.6789,2.67317-1.78211l.50917.29702c-.55161,1.23051-1.82455,1.99427-3.18235,1.90941-2.41858,0-4.24313-1.99427-4.24313-4.54015s1.82454-4.54015,4.24313-4.54015c1.31537-.04243,2.54588.6789,3.09749,1.86698l-.46674.25459v.04243Z"/>
    <path class="cls-1" d="M378.80542,13.36331V4.74976h.93349v8.18924h3.18235v.42431h-4.11583Z"/>
    <path class="cls-1" d="M383.76988,13.36331V4.74976h.93349v8.57112h-.93349v.04243Z"/>
    <path class="cls-1" d="M386.99466,13.36331V4.74976h2.29129c1.78211,0,3.18235.6789,3.18235,2.33372s-.80619,2.20643-2.41858,2.20643h-2.12156v4.0734h-.93349ZM387.88571,8.8656h1.14564c1.31537,0,2.41858-.33945,2.41858-1.86698s-1.18808-1.90941-2.54588-1.90941h-.97592v3.77638h-.04243Z"/>
    <path class="cls-1" d="M397.47518,12.00551c.25459.6789.89106,1.14565,1.61239,1.18808.93349.04243,1.73969-.6789,1.78211-1.61239v-.21216c0-2.67317-3.81882-1.52753-3.81882-4.32799-.08486-1.31537.93349-2.41858,2.24886-2.50345h.16972c.84863-.04243,1.65482.38188,2.0367,1.14564l-.38188.25459c-.38188-.6789-.76376-1.06078-1.65482-1.06078s-1.52753.84863-1.52753,1.73968c0,2.63074,3.86125,1.4851,3.86125,4.37042,0,1.40023-1.10322,2.58831-2.54588,2.63074h-.04243c-.93349.04243-1.78211-.42431-2.20643-1.27294l.42431-.33945h.04243Z"/>
    <path class="cls-1" d="M404.64607,5.17408h-1.99427v-.42431h4.8796v.42431h-1.95184v8.18924h-.93349V5.17408Z"/>
    <path class="cls-1" d="M414.32041,4.74976v6.15254c0,.93349-.46675,2.67317-2.63074,2.67317s-3.09749-.72133-3.09749-3.01262v-5.81309h.93349v5.68579c0,1.90941,1.01835,2.7156,2.24886,2.7156s2.07913-.72133,2.07913-2.37615v-6.02524h.50917-.04243Z"/>
    <path class="cls-1" d="M416.35711,4.74976h1.82455c3.09749,0,5.13419,1.4851,5.13419,4.54015,0,2.20643-1.73969,4.03097-3.94611,4.03097h-3.01262V4.74976h0ZM417.2906,12.939h1.44266c2.0367,0,3.5218-1.31537,3.5218-3.64909s-1.65482-4.0734-4.03097-4.0734h-.93349v7.7225Z"/>
    <path class="cls-1" d="M424.84337,13.36331V4.74976h.93349v8.57112h-.93349v.04243Z"/>
    <path class="cls-1" d="M435.53606,9.07775c0,2.54588-1.78212,4.54015-4.11583,4.54015s-4.11583-1.95184-4.11583-4.54015,1.82454-4.58258,4.11583-4.58258,4.11584,1.95184,4.11584,4.54015v.04243ZM428.40759,9.07775c0,2.75803,1.61239,4.15827,3.01262,4.15827s3.01262-1.40023,3.01262-4.15827-1.61238-4.15827-3.01262-4.15827-3.05505,1.40023-3.05505,4.15827h.04243Z"/>
    <path class="cls-1" d="M370.87077,39.84044v-19.3911h5.09176c4.03097,0,7.21332,1.56996,7.21332,5.21905s-1.82455,5.04932-5.51607,5.04932h-4.70987v9.12273h-2.07913ZM372.99233,29.74179h2.58831c2.97019,0,5.38878-.76376,5.38878-4.24313s-2.67317-4.28556-5.81309-4.28556h-2.20643v8.48626h0l.04243.04243Z"/>
    <path class="cls-1" d="M390.55888,19.89773h.04243l7.93465,19.94271h-2.164l-2.37615-6.02524h-7.76493l-2.41858,6.02524h-1.27294l8.01951-19.94271h0ZM386.61277,32.83928h6.95873l-3.43694-8.953-3.5218,8.953h0Z"/>
    <path class="cls-1" d="M401.46372,39.84044v-19.3911h2.07913v19.3911h-2.07913Z"/>
    <path class="cls-1" d="M408.59218,39.84044v-19.3911h1.82455l11.37159,14.89338h.04243v-14.89338h1.2305v19.90028h-.04243l-13.11127-17.05738h-.04243v16.50577h-1.2305l-.04243.04243Z"/>
    <path class="cls-1" d="M429.97756,21.38283h-4.45529v-.97592h11.03214v.97592h-4.45529v18.41518h-2.07913v-18.41518h-.04243Z"/>
  </g>
  <g>
    <path d="M14.17463.00003C.57083.02812-.00317,16.99695.00001,20.11607c.02014,9.4554,3.87067,19.90669,14.25041,19.8839,10.38027-.02173,14.18575-10.5504,14.16826-20.0058C28.41285,16.87982,27.7816-.02435,14.17463.00003ZM14.25042,39.43338c-9.86139.02014-12.52045-10.4656-12.53794-19.44823-.00583-2.96276-.50404-19.48851,12.42134-19.5166,12.92326-.02491,12.57027,16.59041,12.57292,19.5537.01749,8.97892-2.59387,19.39046-12.45632,19.41113Z"/>
    <path d="M20.75101,15.45886c-1.1586-1.84338-2.7815-4.02119-2.96488-6.26367-.11342-1.40771-.02915-2.9829-.97893-4.1431-.27349-.33815-.66304-.65191-1.05101-.85491-.41129-.212-.94342-.35087-1.40983-.35087-.44203,0-.88194.06943-1.30436.19504-.49821.15158-.99324.32967-1.50841.40387-.59997.08109-1.08334.05247-1.669-.07791-.34663-.07738-.44256-.10547-.79237-.18232-.18921-.04028-.71604-.19186-.87982-.02915-.39327.39486.44309.87134.6906,1.05048.54485.39486.77435.52471,1.29323.97681.70173.6111,1.2609,1.33457,1.47661,2.24619.06095.26607.08109.53001.08427.7982.05247,3.93162-6.50642,7.78745-6.41578,14.74756.03233,2.45819,1.34517,2.86577,1.32768,1.49728-.02014-1.61971.55651-3.37034,1.15065-4.87186.13992-.3461.57983-.4521.48019.14999-.15688.95296-.54432,2.60182-.50934,5.29216.00901.64661.04664,1.30224.13992,1.94037.07579.52206.18656,1.03405.34027,1.53544.12561.41924.28886.83053.49556,1.21744.16324.30476.35246.59732.57347.86233.22154.26024.4574.4521.72241.65933.15423.1219.32649.23161.3991.42348.11077.28515-.2507.39857-.43991.4839-.20988.09434-.39327.19928-.59096.2931-.28568.13886-.56499.28515-.84166.43938-.16907.09805-.35882.15529-.52153.26501-.16324.10971-.24487.28091.00583.32172.11607.02014.24169-.01272.35829-.01643.19769-.00795.40758-.0371.59997.03657.256.10123.24116.34928.25282.5899.01166.256.19292.34239.41977.2772.26819-.0742.45422-.2772.66145-.4521.1484-.12561.31112-.256.48867-.3461.35246-.17543.77488-.11713,1.15648-.09805.20988.01325.50987.10229.68159-.07261.17437-.17172.04929-.47595-.0265-.66781-.07526-.18232-.16536-.362-.256-.54167-.04081-.08162-.09911-.14999-.13727-.23532-.1484-.34239,1.04571-.60262,1.22062-.64714.57665-.15476,1.18245-.29257,1.78243-.3461.56499-.04929,1.19093-.04929,1.72678.17543.22684.09328.41659.256.57082.4468.0848.11024.2825.43196.10494.56181-.27455.19981-.55598.37419-.82735.58619-.16854.13091-.33179.26925-.47489.43196-.10706.12243-.13621.33391.08215.32172.29098-.01325.57877-.02862.86816-.03233.20617,0,.42772.02809.60209.14522.28621.1961.34981.60739.66728.7664.0901.04452.19769.04452.29363.01537.21359-.06519.30847-.28144.41871-.4521.10494-.15423.21094-.30423.37684-.3938.10176-.0583.22101-.08162.33762-.08162.21306,0,.42454.00424.6376.02809.16589.02067.3938.09805.54167-.01643.28038-.21518-.45687-.70067-.60262-.78919-.33815-.21147-.81569-.43196-.92328-.86339-.1219-.50828.13091-1.03352.34027-1.48191.22525-.47171.53107-.90791.70544-1.40453.16006-.45581.28197-.9307.35034-1.41195.36836-2.6331-.23957-5.42943-1.01073-7.9454-.09116-.30052-.21041-.59891-.29787-.8989-.13091-.47277.32702-.58619.56128-.12243.22525.44415,1.69922,3.27229,2.13011,5.38067.27031,1.33934,1.28104,1.39181,1.25189-.98953-.0371-3.44719-1.34252-5.94195-2.9352-8.48177ZM13.5047,5.52327c.39645-.61057,1.14164-.83,1.66529-.48867.52524.33868.627,1.11143.23108,1.72254-.39592.61004-1.14482.83-1.66635.49238-.52418-.34186-.62912-1.11461-.23002-1.72625ZM13.05048,9.78138c.74573-.58619,2.61825-.84696,3.06664-3.02795.01696-.08162.11024-.2613.33232,0,.39009.45952.36677,2.34424-.27031,3.00251-.37631.3832-1.00914.43249-1.50947.50139-.55598.08162-1.09182.20352-1.63667.33762-.51835.1272-.48284-.42295.01749-.81357ZM17.78612,30.68184c-.56181.02809-1.25772-.36571-2.2976-.2931-1.76812.11766-2.2923.79343-3.73711.53743-.82364-.14999-1.4358-.61481-1.7819-1.41672-.39327-.90791-.4309-1.94196-.49238-2.91718-.06678-1.09235-.06678-2.19001,0-3.28607.04664-.78919.13091-1.57519.23585-2.3612.17225-1.30224.44839-2.58804.74573-3.86643.26183-1.13104.53319-2.25785,1.01921-3.31681.35511-.77329.88883-1.51424,1.67165-1.9091.8565-.42666,2.05962-.45952,2.9034-.02915,1.90857.97787,1.85822,3.25692,1.92023,5.10984.04664,1.42361.22313,2.88909.48019,4.28938.28515,1.55876.91639,3.04491,1.08334,4.62435.17755,1.73791.36942,4.73671-1.75063,4.83476Z"/>
    <path d="M14.22428,6.05667c.19832-.285.54161-.39048.77156-.23234.23097.15489.25627.51392.06206.80284-.19592.28431-.54213.3898-.77258.23576-.22704-.159-.25593-.51699-.06103-.80626"/>
  </g>
</svg>