<?xml version="1.0" encoding="UTF-8"?>
<svg id="Layer_1" xmlns="http://www.w3.org/2000/svg" version="1.1" viewBox="0 0 2447.64818 40.42853">
  <!-- Generator: Adobe Illustrator 30.6.0, SVG Export Plug-In . SVG Version: 2.1.4 Build 109)  -->
  <defs>
    <style>
      .st0, .st1 {
        fill: #282828;
      }

      .st1 {
        fill-rule: evenodd;
      }
    </style>
  </defs>
  <path class="st1" d="M1448.2079,12.46485c0,1.32424-1.02714,2.28622-2.27432,2.28622s-2.25657-.95011-2.25657-2.2684,1.02794-2.2684,2.27432-2.2684c1.24718,0,2.25657.93824,2.25657,2.25059ZM1447.79263,12.47673c0-1.08076-.84974-1.86461-1.847-1.86461s-1.86475.78385-1.86475,1.87054.84894,1.86461,1.847,1.86461c.99727,0,1.86475-.78384,1.86475-1.87054ZM1446.45598,12.55987l.62962,1.06294h-.49903l-.52803-1.0273h-.62319v1.0273h-.42162v-2.37529h1.20526c.45149,0,.77152.27315.77152.64726,0,.32067-.21362.57601-.53453.65914v.00595ZM1445.44097,12.23327h.74253c.23699,0,.40307-.13064.40307-.32066,0-.16628-.14833-.29098-.36765-.29098h-.78364v.61164h.0057ZM1336.58123,22.60754c4.1081,0,6.77403-2.64105,6.77556-6.1372-.00153-3.50202-2.66746-6.05402-6.77556-6.05402h-8.47979v19.44176h4.35868v-7.25054h4.1211ZM1335.91612,13.68829c1.99993,0,3.16357,1.27507,3.1651,2.77618-.00153,1.55448-1.16524,2.85922-3.1651,2.85922h-3.45607v-5.6354h3.45607ZM1361.54551,30.21427c4.49525,0,7.35756-3.02264,7.35756-7.44066,0-4.35868-2.88597-7.38715-7.35756-7.38715s-7.33368,2.9751-7.33368,7.38715,2.8385,7.44066,7.33368,7.44066ZM1361.53967,27.07885c-2.22093,0-3.49762-1.80526-3.49762-4.30523,0-2.44652,1.24704-4.25178,3.49762-4.25178s3.52735,1.75181,3.52735,4.25178-1.30649,4.30523-3.52735,4.30523ZM1377.26111,30.16081c-4.1669-.00145-6.74284-3.08293-6.74284-7.25063,0-4.16865,2.5831-7.25057,6.74584-7.25057,3.58066,0,5.83132,2.16746,6.3064,5.11282h-2.33377c-.39197-1.80526-1.63901-3.16508-3.9727-3.16508-2.86231,0-4.52498,2.2506-4.52498,5.30283s1.66866,5.30283,4.52498,5.30283c2.47027,0,3.77668-1.50237,4.10927-3.49757h2.27432c-.36217,3.13454-2.63532,5.44408-6.38651,5.44537ZM1400.42907,15.65963c-4.02609,0-6.74576,3.0582-6.74576,7.33368l.00592.00597c0,4.1152,2.52972,7.16743,6.69245,7.16743,3.13538,0,5.46907-1.78148,6.24695-4.75058h-2.52964c-.66511,1.99528-2.22093,2.80286-3.77675,2.80286-2.41688,0-4.08546-1.91804-4.25176-4.72091v-.11279h10.66508v-.4751c0-4.16865-2.28024-7.25057-6.3064-7.25057h-.00007ZM1400.40541,17.60143c2.52365,0,3.97263,1.72211,4.02602,4.05584h-8.30159c.4157-2.50005,1.88841-4.05584,4.27557-4.05584ZM1420.15586,20.80211v9.05581h-2.22108v-2.19119h-.05324c-.66511,1.05702-2.36379,2.33373-4.88722,2.33373-2.71931,0-4.52483-1.52616-4.52483-3.97267,0-2.63662,1.9716-4.60805,7.55373-4.60805h1.91799v-.61168c0-1.9715-1.24718-3.19478-3.27801-3.19478-1.91799,0-3.19497,1.05704-3.30146,2.74942h-2.27512c.08384-2.886,2.22108-4.69122,5.5822-4.69122s5.49916,1.9715,5.49916,5.13657l-.01212-.00597ZM1417.93478,24.49568v-1.30638h-1.91799c-4.10927,0-5.33228,1.22326-5.33228,2.77908,0,1.38958,1.0803,2.19119,2.80235,2.19119,2.4412,0,4.44223-1.75173,4.44223-3.66389h.0057ZM1438.77196,15.65963c-4.02616,0-6.74554,3.0582-6.74554,7.33368l.00562.00597c0,4.1152,2.52986,7.16743,6.6923,7.16743,3.13531,0,5.46929-1.78148,6.24731-4.75058h-2.52986c-.66511,1.99528-2.22028,2.80286-3.77624,2.80286-2.41703,0-4.08583-1.91804-4.25191-4.72091v-.11279h10.6653v-.4751c0-4.16865-2.28075-7.25057-6.30698-7.25057ZM1438.74859,17.60143c2.52344,0,3.97219,1.72211,4.02623,4.05584h-8.30151c.41519-2.50005,1.88812-4.05584,4.27535-4.05584h-.00007ZM1393.33289,15.91496c-2.42878.22566-4.2874,1.2411-5.25538,3.4442v-3.38482h-2.27432v13.88358h2.27432v-5.96795c0-3.81231,1.75184-5.52849,5.25538-5.49874v-2.47627ZM1348.64774,19.29974c.80161-2.33371,2.48217-3.40853,4.97625-3.64013v3.93705c-3.66983-.10094-4.97625,1.53203-4.97625,4.95246v5.30284h-3.91333v-14.1092h3.91333v3.55699ZM1431.52176,17.91021v.00593l.00562-.00593h-.00562ZM1431.52176,15.97435v1.93586h-5.07747v7.35748c0,1.80519.96827,2.77908,2.80315,2.77908.54578,0,1.17547-.07127,1.8527-.30289v2.01907c-.55228.18406-1.17627.285-1.8527.285-3.11194,0-5.08317-1.82896-5.08317-4.77436v-7.35744h-2.91606v-1.93586h2.03083c.48698,0,.88523-.39786.88523-.88479v-3.56888h2.27432v4.44773h5.08317Z"/>
  <g>
    <path class="st0" d="M1180.65336,24.53801h-.08484v-1.44691h.08484c-.01276.30551-.02972.60677-.03821.90803,0,.17821.02545.35642.03821.53888h0Z"/>
    <path class="st0" d="M1180.65336,24.53801c-.01276-.17821-.03821-.36067-.03821-.53888,0-.30551.02124-.60677.03821-.90803.04669-.65344.15698-1.29415.35217-1.92638.51343-1.64209,1.4978-2.93625,2.88959-3.93338.97589-.70012,2.05792-1.20929,3.13568-1.72271.41583-.19943.83167-.39885,1.27295-.61101-.05939-.12729-.10187-.22913-.15277-.32672-.43701-.81468-.89954-1.61663-1.31537-2.4398-.53461-1.0523-.94196-2.15127-1.14142-3.31813-.20789-1.20929-.22064-2.41434.14001-3.59817.45825-1.5148,1.41296-2.63074,2.78351-3.39875,1.05231-.58979,2.19373-.925,3.38605-1.10321,1.06927-.16124,2.15125-.1867,3.229-.157,1.38751.03819,2.76227.20791,4.08191.68314.93774.33521,1.80756.77649,2.52466,1.47237.78497.76376,1.33234,1.68028,1.51904,2.76652.34369,2.02397-.12732,3.86125-1.40448,5.46939-.83167,1.04805-1.87549,1.85849-3.05078,2.48223-.83167.44129-1.70148.81468-2.55438,1.21778-.1485.06789-.29279.13578-.47949.22489.10187.1867.18243.36067.2843.51342.75952,1.12443,1.50629,2.26159,2.29553,3.3648,1.02258,1.43418,2.06641,2.85563,3.1272,4.26434.84015,1.11594,1.71844,2.20218,2.57983,3.30115.14429.18245.30127.34794.46252.51766.15277.16124.2843.19094.45398.05516.13153-.10184.26733-.24186.31824-.39461.19092-.53463.37762-1.06927.51343-1.61663.16125-.65344.27582-1.31537.39038-1.98154.15277-.87833.03821-1.74393-.18671-2.59679-.25458-.96319-.67468-1.86273-1.06927-2.77076-.10187-.23762-.19519-.47099-.30127-.72133.06366-.02546.0976-.05516.13153-.05516h8.38867c.01697.09759.04242.19943.04669.30126.00848.36491.00848.73406.01276,1.09897.00421.84014-.1485,1.66331-.30975,2.48647-.19092.97168-.47101,1.92214-.77228,2.86836-.30975.98016-.82318,1.84152-1.46814,2.63074-.67041.82317-1.42145,1.56996-2.21069,2.2828-.2843.25883-.56433.52615-.84863.78498-.1994.18245-.40308.35642-.61951.54312,0,.00848,0,.04243.01697.0594.70862.72557,1.43842,1.42569,2.33374,1.92214.5686.31399,1.16687.55161,1.8288.57282.45825.01697.80194-.17397,1.06079-.53464.44556-.62798.74677-1.3281.92078-2.07065.20367-.87408.29279-1.76514.19092-2.66468-.02124-.19943-.01276-.40734-.02972-.60677-.02545-.28429.09332-.47099.32672-.62374.80194-.53463,1.5954-1.07776,2.3974-1.61663,1.38751-.94198,2.77502-1.88395,4.16254-2.82592.08484-.0594.17822-.11032.30975-.19094.02545.12729.0509.22489.05939.32248.05518.64496-.01276,1.28991-.12732,1.92638-.16974.96319-.34369,1.93062-.62799,2.8726-.47522,1.56571-1.22205,2.98716-2.2616,4.25586-.58978.72557-1.25171,1.36204-2.04517,1.85425-.92078.57282-1.92212.93773-2.99988,1.04805-.58557.06365-1.17108.11032-1.75665.11032-1.7312.00424-3.40723-.33096-5.01538-.96319-.50067-.19943-.99292-.41583-1.47662-.65769-.22064-.11032-.40735-.11032-.62799-.02546-.75531.29278-1.51056.57707-2.27429.84014-1.06079.36491-2.15125.57707-3.26294.70436-1.02686.11881-2.06213.14426-3.08899.08486-.97168-.05092-1.93488-.16548-2.90228-.26732-1.21777-.12305-2.41437-.36067-3.59393-.70012-1.54449-.44553-3.01685-1.0523-4.34918-1.96881-1.19232-.82317-2.19373-1.8203-2.84717-3.12719-.4328-.86135-.67041-1.78211-.7298-2.74106-.00421-.06789-.01276-.13154-.02545-.19943h.00848-.00861ZM1190.7393,18.44063c-.04669.06365-.08484.09759-.10608.13578-.17822.35218-.36914.69587-.52191,1.06078-.44977,1.06078-.71283,2.17248-.79346,3.32237-.0509.71709-.02124,1.43842.0976,2.15551.22064,1.38326.64496,2.69439,1.37903,3.89095.82318,1.34083,1.97729,2.29978,3.45392,2.85138,1.22205.45401,2.47797.57707,3.77637.38188,1.27295-.19094,2.43134-.64071,3.4751-1.3875.16125-.11456.29279-.2461.37762-.44553-.08911-.07638-.17395-.157-.26306-.22489-1.12018-.88257-2.17676-1.83728-3.19934-2.83017-1.06927-1.04381-2.08337-2.13854-3.06781-3.26297-1.35779-1.55299-2.65198-3.15265-3.92065-4.77352-.22491-.28429-.44977-.56858-.69165-.86984h.00421v-.00425l.00012.00002ZM1194.2144,12.27961c.17822-.14427.32251-.25034.45404-.3734.89105-.83165,1.5318-1.82879,1.91364-2.98292.39886-1.20505.57709-2.44829.52612-3.72122-.02545-.63647-.13153-1.26021-.34796-1.86273-.16974-.48372-.44128-.89954-.87836-1.18808-.94623-.6195-2.34222-.49645-3.14838.50069-.58557.72558-.84436,1.56996-.87836,2.48647-.03821.99714.14429,1.97305.42859,2.92776.3819,1.2687.96741,2.45253,1.59119,3.6109.0976.1867.20367.36915.33093.60252h.00854Z"/>
    <path class="st0" d="M1239.7559,33.60134c-.00848.47099-.01697.9547-.02124,1.43418,0,.16548.02545.32672.02124.48796-.00848.25034.09332.44553.25885.6195.09332.09759.17822.19943.28851.31399-1.65057,1.31961-3.29266,2.6265-4.97296,3.97157-.02972-.23761-.06787-.42431-.06787-.61101,0-1.25172-.02124-2.50345,0-3.75517.02124-1.03957.11884-2.07913.1358-3.1187.02545-1.55299.00848-3.10173.00848-4.65471,0-.59828.00848-1.19232,0-1.7906,0-.23762-.01276-.47947-.03821-.71709-.03821-.3734-.2334-.64496-.55164-.8359-.04242-.02546-.07635-.05516-.1485-.10184,1.7439-1.22626,3.35632-2.58407,4.98566-3.92489.02545-.02122.06366-.0297.11884-.05516.11029.45826.0976.90803.0976,1.3578v1.40023c.10608-.06789.16125-.09759.20795-.13578.16547-.13154.33521-.25883.49646-.39885.9632-.81044,2.04517-.91227,3.20355-.53463.64069.20791,1.16687.58555,1.58691,1.1117.67889.84438,1.05231,1.81182,1.12445,2.88957.06787.98016.05518,1.96457-.20367,2.92776-.30548,1.15413-.85284,2.164-1.81183,2.91503-.84015.66193-1.80756,1.01411-2.87262,1.09897-.60254.04667-1.20929.06789-1.86273.11032h.00848l.00848-.00424v-.00002ZM1239.64134,33.06246c.73407-.09335,1.099-.24186,1.4978-.60677.31824-.29278.54309-.6492.70435-1.04381.32251-.78073.49646-1.6039.51764-2.4398.01697-.69163-.02972-1.38326-.03821-2.07913,0-.64071-.23761-1.20081-.56012-1.73544-.18671-.31399-.45825-.54312-.79346-.69163-.17822-.08062-.36493-.11881-.56012-.07213-.36914.09335-.61102.39037-.64069.82741-.04669.75952-.11029,1.51904-.11884,2.27856-.02124,1.79909-.01697,3.59817-.02124,5.39726,0,.04667,0,.09335.00848.16124h0l.00421.00424h.00018Z"/>
    <path class="st0" d="M1205.00468,1.30687c.25885-.00849.44977-.02546.63647-.02546h6.50897c.73407,0,1.43842.11881,2.10461.4328,1.18811.55585,1.67181,1.53177,1.62933,2.7453-.00848.25034-.03821.50069-.10181.74255-.18671.73406-.64917,1.26021-1.33234,1.57844-.40735.19094-.83167.35642-1.2475.53463-.05518.02122-.10181.04667-.19092.08486.14429.05516.25458.09759.36493.13578.27155.09759.54309.1867.81891.28429,1.14142.40734,1.867,1.21778,2.14703,2.3804.39038,1.62512-.05939,3.01262-1.32385,4.10735-.63647.55161-1.41718.78498-2.24463.80195-1.90942.0297-3.81458.0297-5.724.04243-.5304,0-1.06079-.00849-1.59119-.01273-.06787,0-.1358.01273-.20367,0-.08484-.02122-.20789-.03395-.25037-.09759-.06787-.11032.06366-.16124.12732-.22489.2843-.29702.4328-.65768.47949-1.06078.02124-.18245.02972-.36491.02972-.54736V3.14839c0-.23762-.01276-.48372-.0509-.71709-.06366-.41158-.25885-.76376-.58978-1.12019h.00421v-.00424h-.00006ZM1209.71031,14.79154c.95044.07638,1.65485-.29278,2.0791-1.05654.26306-.47947.41583-.99289.49646-1.52753.09332-.64496.04669-1.28567.00421-1.93062s-.26733-1.21778-.58978-1.7609c-.39459-.66617-1.19232-.97168-2.04095-.78498-.12732,2.34645-.10181,4.70139.05518,7.06057,0,0-.00421,0-.00421,0ZM1209.69334,7.2218c.85712.13578,1.45538-.28005,1.73969-.92076.02972-.06789.06366-.14002.08911-.21216.31396-.83165.39038-1.68028.22064-2.55436-.08484-.44553-.20367-.88257-.44556-1.27294-.34369-.54736-.98016-.76801-1.64209-.55585-.10181,1.82879-.0976,3.66606.03821,5.51183h0v.00424Z"/>
    <path class="st0" d="M1233.03904,17.72778v4.98568c-.07214-.04667-.13153-.06365-.15277-.10184-.07214-.14851-.14001-.29278-.19092-.44977-.53467-1.60815-1.56146-2.80895-3.01263-3.66606-.50067-.29702-1.03534-.44553-1.62933-.38188-1.04382.11456-1.69727.9547-1.56146,2.00276.1485,1.15413.70435,2.04095,1.70575,2.63923.95892.57282,1.91791,1.14565,2.87683,1.71422.61523.36491,1.19232.78074,1.67603,1.31961,2.23615,2.50769,1.21777,6.44956-1.9646,7.59945-.79773.28853-1.62512.39886-2.46948.39037-1.28564-.01273-2.52887-.22913-3.69153-.80195-.31824-.157-.62372-.33945-.92499-.53039-.37341-.23337-.53888-.58131-.53467-1.0226.00848-1.34083.00848-2.67741.00848-4.01824,0-.20791.04242-.4031.27155-.53888.05939.17821.12732.34369.17822.51766.44556,1.50207,1.09473,2.89806,2.10461,4.10735.32672.39037.69165.75103,1.06927,1.09473.40308.36915.87836.6195,1.42993.7086.34796.0594.69165.02546,1.02686-.06789.69586-.19094,1.04803-.58555,1.12866-1.2984.15277-1.4172-.2843-2.59255-1.50629-3.39875-.90802-.59828-1.84149-1.15838-2.75806-1.74393-.40735-.25883-.8147-.51342-1.20081-.8062-1.16687-.88681-1.76514-2.08338-1.88397-3.53028-.04669-.55161.00421-1.09897.1485-1.62936.37762-1.37902,1.25171-2.29129,2.5968-2.75803,1.27295-.44129,2.57135-.5219,3.90369-.33096.75952.11032,1.53601.13578,2.30402.15275.33948.00849.68317-.09335,1.05231-.15275h.00848-.00848v-.00425Z"/>
    <path class="st0" d="M1269.04624.04666c0,2.18097.02545,4.35769-.14001,6.53442.01697.00849.03821.01697.05518.02546.16547-.14427.33093-.28005.48798-.4328.94623-.92076,2.0791-1.16686,3.33508-.87408.9632.22489,1.64209,1.04381,1.75665,2.02822.14001,1.14989.14429,2.30826.15698,3.45815.00848.80619,0,1.61663-.02124,2.42707-.01276.6789.11456,1.2984.58557,1.8203,0,0,0,.01697.00848.04667h-5.08752c.01276-.02546.02124-.06365.04242-.08062.50494-.40734.69165-.95895.71283-1.57844.00848-.33945,0-.67466,0-1.00986,0-1.41721,0-2.83017-.01276-4.24737,0-.26732-.05518-.53463-.0976-.80195-.01697-.10184-.05518-.20367-.0976-.30126-.27582-.57282-.94196-.65769-1.34509-.16124-.28851.35642-.44977.76801-.45404,1.22202-.00848,1.84152-.00848,3.67879-.00848,5.52031,0,.45401.17395.84014.49219,1.16686.08063.08062.16547.157.2843.27156h-5.24878c.02545-.03819.04669-.08486.08063-.11881.42853-.39885.61102-.90379.62799-1.47237.01276-.50918,0-1.01835,0-1.53177,0-1.97305,0-3.95035-.00848-5.92341,0-.56858-.06366-1.13292-.11884-1.69725-.01697-.17821-.11029-.34369-.18243-.51342-.05518-.11881-.13153-.23337-.20367-.36067.4328-.35642.85284-.70436,1.27716-1.0523.86981-.71709,1.74396-1.42993,2.6095-2.15127.1485-.12305.30127-.19943.51343-.20791h0v-.00425h.00018Z"/>
    <path class="st0" d="M1249.38358,15.10129h-10.98547c.02972-.04667.04669-.08062.06787-.09759.48798-.34794.68738-.84014.70435-1.41721.01276-.34794,0-.69163,0-1.03957v-7.92192c0-.45826-.08484-.86984-.60254-1.082,1.49359-1.19232,2.95319-2.35918,4.43829-3.54301.11456.2461.16547.47099.15698.71285-.05518,1.68452-.11456,3.36904-.16125,5.05357-.02972,1.12867-.04669,2.2531-.06787,3.38177v.73406c.10187-.0594.16547-.08062.20795-.11881.7298-.6195,1.39172-1.30264,1.99005-2.04943.08063-.10184.1485-.22489.20367-.34794.25458-.60252.06787-1.15837-.49646-1.48934-.19092-.11032-.39038-.20791-.58557-.36491.08484-.02122.16974-.04243.25458-.05516,1.01837-.11032,2.03668-.12305,3.05933-.08486.47101.01697.94196.05516,1.41296.08911.1358.00849.27582.04243.42004.11881-.16974.0594-.33521.12729-.50916.16973-1.04803.26732-1.95605.79347-2.77075,1.49358-.34796.29702-.40308.54736-.22491.97592.70013,1.69725,1.40448,3.39875,2.10034,5.096.28851.70436.67889,1.31537,1.3493,1.71422.01276.00849.01276.0297.03394.06789h0l.00421.00424h.00012ZM1243.13346,11.09153c-.20795-.03819-.24188.05516-.2334.20791.02545.53039.03821,1.05654.06366,1.58693.02124.36491.04669.72982.07635,1.09473.02124.29278.17822.52615.37762.72557.16974.16973.50067.19943.66193.05516.21216-.19094.34796-.44129.23761-.72557-.38611-.99289-.79346-1.9773-1.18811-2.94898h.00421v.00424h.00012Z"/>
    <path class="st0" d="M1263.80174,30.30866c-.04242.81892-.31396,1.50207-.8656,2.05792-.70013.7086-1.55725,1.12867-2.52893,1.2984-3.05933.53888-5.89374-1.26445-6.60229-4.28556-.56012-2.39312.16547-4.41286,2.05365-5.9913.76801-.64496,1.69299-.94622,2.68591-1.01835,1.22626-.09335,2.40161.07638,3.47937.71709.84863.50918,1.38751,1.23899,1.54449,2.2234.24188,1.49782-.71283,2.88957-2.12158,3.12294-.6662.11032-1.32812.0594-1.94757-.23761-.82318-.39037-1.18384-1.09473-1.27716-1.96033-.05939-.54736.05518-1.06927.25885-1.57844.15277-.3734.2843-.75952.40735-1.1414.07635-.22913.02545-.43704-.16547-.60252-.18243-.14851-.37762-.16973-.55164-.02122-.2843.25034-.53461.53463-.62799.91227-.20367.86984-.31824,1.73968-.18671,2.63498.17395,1.2008.66193,2.2531,1.56573,3.07627.98016.89954,2.16821,1.16686,3.45813,1.04805.41156-.03819.8147-.14851,1.21777-.22913.05518-.00848.11029-.02122.20367-.04243h0v.01697Z"/>
    <path class="st0" d="M1269.49174,28.70476c-.0976.14851-.06366.2461.02972.35642,1.0141,1.13291,2.27856,1.64633,3.79333,1.51904.46674-.03819.92926-.157,1.39172-.23761.04669-.00848.09332-.00848.15698-.01273.04242.53039-.08063,1.00562-.36493,1.43418-.54736.8359-1.29419,1.42145-2.24463,1.72695-3.2757,1.0523-6.6405-.86984-7.37457-4.17948-.44556-1.99851.02972-3.80609,1.42993-5.32513.95044-1.03532,2.15552-1.56571,3.55573-1.62512.99713-.04243,1.98157.06365,2.91925.43704.7171.28853,1.29419.75528,1.74396,1.37902.58557.8062.69165,1.69725.40308,2.63498-.18671.60252-.60675,1.01835-1.15411,1.30688-.5686.29702-1.18384.47523-1.82031.52191-.70862.05516-1.42145.04667-2.13428.06789h-.33093v-.00425h.00006ZM1268.98686,28.26347c.75104.05516,1.37054-.2164,1.78638-.78922.1358-.1867.25458-.39037.34369-.59828.42004-1.00987.37341-2.03246,0-3.03808-.0976-.27156-.28851-.52615-.49646-.73406-.44128-.45401-1.15839-.39885-1.55298.09759-.25885.32672-.45404.68314-.56012,1.09473-.35645,1.38326-.08063,2.6859.47949,3.96733h0Z"/>
    <path class="st0" d="M1237.87199,10.13683c.05518.85711-.02545,1.69725-.40735,2.47799-.75952,1.54026-1.99426,2.46526-3.69153,2.73257-1.1499.18245-2.24463-.0297-3.27142-.57282-1.00562-.53039-1.70996-1.33234-2.08765-2.40585-.41583-1.1711-.50494-2.36767-.19092-3.57696.50494-1.96457,2.09186-3.3351,4.11157-3.57696,1.33661-.16124,2.57983.11456,3.65332.93773,1.20081.91652,1.83301,2.15127,1.88818,3.66606v.31823s-.00421,0-.00421,0ZM1233.80284,10.33201h.01697c0-.44553.00848-.88681,0-1.3281-.01697-.69163-.02545-1.38326-.08063-2.07489-.02545-.32248-.13153-.64071-.2334-.95046-.0976-.30126-.36493-.43704-.61102-.31823-.30127.14427-.5686.33945-.61523.7086-.05939.47947-.14429.9547-.1485,1.43418-.02124,1.42569,0,2.85138-.01697,4.27283-.00848.82317.08063,1.6336.2843,2.43131.08063.30551.25885.4625.53888.48372.26733.02122.49219-.12729.58978-.41583.15277-.45401.28003-.92076.28003-1.40872v-2.83017h0l-.00421-.00424Z"/>
    <path class="st0" d="M1227.20048,10.53144c-.02972,1.15837-.30548,2.23613-1.09045,3.12294-1.25598,1.41721-2.82166,1.99427-4.69287,1.65058-.4328-.08062-.8656-.20367-1.27295-.36491-1.05652-.42431-1.82452-1.1711-2.27856-2.21491-.52191-1.19656-.67468-2.45253-.40735-3.72971.37762-1.82455,1.55298-2.96595,3.25873-3.58544,1.21777-.44553,2.42285-.31823,3.60242.1867,1.76514.75952,2.68164,2.12156,2.83862,4.014.02545.30551.02972.61525.04669.92076h-.00427ZM1223.11436,10.33201h.01276v-2.2531c0-.58979-.03821-1.17535-.18243-1.74817-.04242-.16973-.11884-.34794-.22913-.48796-.23761-.30126-.63647-.30126-.86981,0-.11884.15275-.22491.34794-.25458.53888-.08063.5219-.15277,1.04805-.16547,1.57844-.02545,1.31961-.00848,2.63923-.01276,3.95884,0,.78074.01276,1.55723.16974,2.32948.04242.20367.11029.39037.25458.54312.25885.28429.64496.28853.87408-.02122.12305-.16548.21637-.3734.25037-.57282.07635-.42431.13153-.85711.14429-1.28991.02124-.85711.00848-1.71422.00848-2.57134h0v-.00424h-.00012Z"/>
    <path class="st0" d="M1263.335,5.34209c.08063,1.17959.09332,2.33372-.01276,3.47937-.10608.09759-.18243.07213-.2334-.03819-.10187-.20791-.20367-.41583-.30548-.62374-.37341-.78074-.84015-1.49358-1.51477-2.05367-.32251-.27156-.68317-.47947-1.11597-.48796-.21637-.00424-.44977.01697-.65344.08486-.43701.14851-.68738.60252-.61951,1.06078.08063.57282.39886.99714.88257,1.29415.55585.34369,1.12866.66617,1.69727.98865.61102.34369,1.1626.75103,1.65906,1.24324,1.07776,1.082,1.05231,3.1781-.36493,4.17524-.82739.58131-1.74396.89106-2.74957.94198-1.04803.04667-2.0791-.05516-3.07629-.39037-.46252-.15275-.87836-.39461-1.26447-.6789-.05939-.04243-.12305-.13154-.12305-.20367-.00848-.95046,0-1.90516,0-2.92776.1994.19943.31396.3734.43701.55161.32672.48796.64496.98016.99292,1.45539.33948.45826.74677.85711,1.21777,1.18808.51343.36491,1.065.61101,1.71423.60677.92078-.00849,1.12018-.90803.82318-1.40872-.07214-.12305-.16547-.23762-.25885-.34369-.36493-.39037-.79773-.69587-1.25598-.96743-.50494-.29702-1.02258-.57707-1.52753-.87408-.3819-.22489-.76801-.44553-1.12445-.70436-1.07776-.78074-1.51056-2.24886-1.04803-3.45391.22491-.5898.63647-1.03108,1.1499-1.37477.70862-.47523,1.4978-.69587,2.35071-.66193.71283.02546,1.42145.08486,2.13855.11032.62799.02122,1.25171.01697,1.8797.02546h.32672-.00848l-.00848-.01273h-.00421l.00006-.00002Z"/>
    <path class="st0" d="M1252.21372,22.57768c.03394.25883.08484.4625.08484.66617-.00848,1.7906-.01276,3.5812-.03821,5.37604-.01276.84863-.06787,1.69301-.0976,2.54163-.00848.30551,0,.61525.02545.92076.05518.53464.33093.93349.78925,1.20929.04669.0297.09332.06365.18671.13154-.16125.05516-.27582.11881-.39459.1273-1.5954.08486-3.19507.16124-4.79474.23337h-.16974c0-.02546-.01276-.04667-.00848-.0594.49219-.57707.62799-1.26021.6322-1.99427v-2.04943c0-.78922-.01276-1.57844,0-2.36767.00848-.50069-.05518-.96319-.51764-1.31537,1.42993-1.1414,2.8302-2.26159,4.28558-3.41996h.01697Z"/>
    <path class="st0" d="M1249.70603,8.32501c1.47235-1.17959,2.91504-2.33372,4.38318-3.50907.06787.32248.08484.62374.07635.925-.03394,1.85-.07214,3.70001-.10187,5.54577-.01276.71285-.01276,1.42569-.02124,2.13854-.00848.60252.16125,1.12019.65771,1.49782.02124.01273.02972.04667.05518.08486-.04669.0297-.08484.07638-.1358.08486-.07635.01273-.15277,0-.2334,0h-4.87109c.06366-.07213.08911-.11032.12305-.13578.44128-.3734.6322-.8656.64917-1.42993.01276-.47099,0-.94197,0-1.41721v-2.34221c0-.11456,0-.23337-.00848-.34794-.02972-.43704-.14429-.8359-.57709-1.10321h.00421v.00849h.00012Z"/>
    <path class="st0" d="M1249.93516,23.21839c-1.22626.11881-2.35492-1.02259-2.35919-2.38464,0-1.20929,1.1499-2.33372,2.38037-2.32523,1.23901.00849,2.3634,1.16262,2.35492,2.42283-.00848,1.25172-1.08624,2.29129-2.37616,2.28705h.00006Z"/>
    <path class="st0" d="M1254.46263,2.82167c-.01697,1.31537-1.03107,2.33796-2.2998,2.32523-1.33234-.02122-2.2998-1.03532-2.29126-2.38888.00848-1.12867,1.0014-2.1937,2.37189-2.20218,1.18811,0,2.30829,1.22202,2.2149,2.26583h.00427Z"/>
  </g>
  <g id="layer1">
    <path id="path3008" class="st0" d="M1659.80302,27.30249V6.50779h3.6423v20.7947h-3.6423Z"/>
    <path id="path3010" class="st0" d="M1672.84946,12.20315c-4.70198,0-7.94694,3.57616-7.94694,7.74834,0,4.63576,3.50997,7.74834,7.94694,7.74834s7.88086-3.11258,7.88086-7.81456c0-3.90728-3.04638-7.68211-7.88086-7.68211h0ZM1672.7832,15.71309c2.45028,0,4.23839,1.92053,4.23839,4.23841,0,2.45033-1.98669,4.23841-4.17214,4.23841-2.58279,0-4.23839-2.05298-4.23839-4.23841,0-2.3841,1.85436-4.23841,4.17214-4.23841Z"/>
    <path id="path3012" class="st0" d="M1689.93553,12.20315c-4.70198,0-7.94694,3.57616-7.94694,7.74834,0,4.63576,3.50997,7.74834,7.94694,7.74834s7.88086-3.11258,7.88086-7.81456c0-2.78146-1.19202-3.97351-1.19202-3.97351l.99343-.33113v-2.98013h-5.16557s-1.12577-.39735-2.51653-.39735h-.00017ZM1689.86927,15.71309c2.45028,0,4.23839,1.92053,4.23839,4.23841,0,2.45033-1.98669,4.23841-4.17214,4.23841-2.58279,0-4.23839-2.05298-4.23839-4.23841,0-2.3841,1.85436-4.23841,4.17214-4.23841h0Z"/>
    <path id="path3014" class="st0" d="M1694.10767,28.29587c0,2.45033-1.98669,4.23841-4.17214,4.23841-2.58279,0-4.23839-2.05298-4.23839-4.23841h-3.70855c0,4.63576,3.50997,7.74834,7.94694,7.74834s7.88086-3.11258,7.88086-7.74834h-3.70872Z"/>
    <path id="path3016" class="st0" d="M1699.27324,27.30249v-14.70199h3.6423v14.63576h-3.6423v.06623Z"/>
    <path id="path3018" class="st0" d="M1706.49192,27.30249v-11.39073h-1.98669v-3.31126h1.98669v-4.43708h3.6423v4.50331h1.98669v3.31126h-1.98669v11.39073c0-.06622-3.6423-.06622-3.6423-.06623Z"/>
    <path id="path3020" class="st0" d="M1703.51163,8.49455c0,1.3245-1.05968,2.45033-2.45028,2.45033s-2.45028-1.0596-2.45028-2.45033,1.12577-2.45033,2.51653-2.45033,2.38403,1.0596,2.38403,2.45033Z"/>
    <path id="path3022" class="st0" d="M1720.39912,12.20315c-4.70198,0-7.74836,3.57616-7.74836,7.8808s3.04638,7.68213,7.81461,7.68213c4.43714,0,6.62259-2.78146,6.62259-2.78146l-2.45028-2.45033s-1.85436,1.98675-4.17214,1.98675c-1.92061,0-3.44371-1.0596-4.03981-3.04636h11.39066v-.99338c.06625-4.10596-2.2517-8.27815-7.41727-8.27815h0ZM1720.26661,15.38196c1.65561,0,3.44371.92715,3.7748,3.04636h-7.61586c.26484-1.45695,1.58936-3.04636,3.84105-3.04636h0Z"/>
    <path id="path3024" class="st0" d="M1737.0216,27.69984c-4.70198,0-7.94694-3.57616-7.94694-7.81456s3.6423-7.68211,7.94694-7.68211,6.29134,2.91391,6.29134,2.91391l-2.51653,2.51655s-1.45702-1.92053-3.70855-1.92053c-2.51653,0-4.23839,1.92053-4.23839,4.17218,0,2.3841,1.85436,4.23841,4.17214,4.23841s3.7748-1.92053,3.7748-1.92053l2.58279,2.51655c-.06625.06623-2.1192,2.98013-6.35759,2.98013h0Z"/>
    <path id="path3026" class="st0" d="M1744.63762,27.30249V6.44157h3.6423v7.68211s1.39077-1.92053,4.43714-1.92053c3.84105,0,6.0265,2.84768,6.0265,6.49006v8.60928h-3.57622v-8.07948c0-2.45033-1.5231-3.44371-3.24496-3.44371-1.92061,0-3.6423,1.0596-3.6423,3.64238v7.88079s-3.64247,0-3.64247.00001Z"/>
  </g>
  <g>
    <path class="st0" d="M1536.27549,9.33152c-.25458-.38188-.50916-.76376-.80621-1.10321-.297-.38188-.59406-.72133-.93347-1.01835-.297-.33945-.63647-.63647-1.01837-.93349-.33948-.29702-.72131-.59404-1.06079-.84863-.55164-.38188-1.14563-.76376-1.73969-1.06078-1.23053-.63647-2.50348-1.14564-3.81885-1.4851-.67889-.16973-1.31537-.29702-1.99426-.38188-.33948-.04243-.67889-.08486-1.01837-.08486-.33948-.04243-.67889-.04243-1.01837-.04243h-1.01837c-.33948,0-.67889.04243-1.01837.08486s-.67889.08486-1.01837.16973-.67889.12729-1.01837.21216-.67889.16973-1.01837.29702-.67889.21216-.97589.38188l-9.92889,3.90368c-.25458.08486-.55164.25459-.80621.38188s-.50916.25459-.72131.42431c-.21216.12729-.46674.29702-.67889.46674-.21216.16973-.42432.33945-.59406.55161-.297.29702-.55164.59404-.76373.89106s-.42432.63647-.59406.97592-.33948.6789-.46674,1.06078c-.12732.33945-.21216.72133-.25458,1.10321,0,.21216-.04242.38188-.04242.59404v1.18808c0,.21216.04242.38188.08484.59404s.08484.38188.12732.59404l.16974.59404c.08484.21216.16974.38188.25458.59404s.16974.38188.297.59404c.12732.25459.297.50918.46674.72133.16974.21216.33948.46674.55164.6789s.3819.42431.59406.63647.42432.38188.67889.55161c.33948.25459.72131.50918,1.10321.72133.3819.21216.76373.42431,1.18811.59404s.84863.29702,1.27295.42431c.42432.08486.84863.21216,1.31537.25459.21216,0,.46674.04243.67889.04243h1.35779c.21216,0,.46674-.04243.67889-.08486s.46674-.08486.67889-.12729.46674-.08486.67889-.16973.42432-.12729.63647-.21216.42432-.16973.63647-.25459l8.69843-3.81882c.3819-.16973.67889-.38188.97589-.6789.25458-.25459.42432-.59404.55164-.93349.08484-.33945.12732-.6789.08484-1.06078s-.16974-.72133-.3819-1.06078-.50916-.63647-.84863-.84863c-.67889-.46674-1.48511-.72133-2.29126-.6789-.42432,0-.80621.12729-1.18811.25459l-8.61353,3.73395-.25458.08486-.25458.08486h-.25458c-.08484.04243-.16974.04243-.25458.04243h-.3819c-.12732,0-.25458,0-.3819-.04243-.12732,0-.25458-.08486-.3819-.08486s-.21216-.08486-.33948-.16973c-.04242,0-.12732-.04243-.16974-.08486-.04242,0-.12732-.08486-.16974-.08486l-.16974-.08486c-.04242-.04243-.08484-.08486-.12732-.12729l-.12732-.12729c-.04242,0-.08484-.08486-.12732-.12729,0-.04243-.08484-.08486-.08484-.16973,0-.04243-.08484-.12729-.08484-.16973-.04242-.08486-.08484-.16973-.12732-.21216l-.08484-.21216c0-.08486-.04242-.12729-.04242-.21216v-.55161c0-.12729,0-.21216.04242-.33945,0-.12729.08484-.21216.08484-.29702.04242-.08486.08484-.21216.16974-.29702,0-.04243.08484-.08486.08484-.12729s.08484-.08486.08484-.12729.08484-.08486.12732-.12729l.12732-.12729s.08484-.08486.12732-.08486l.16974-.08486.16974-.08486c.04242,0,.12732-.04243.16974-.08486l9.92889-4.15827c.25458-.08486.50916-.21216.76373-.29702s.50916-.16973.76373-.21216l.76373-.12729c.25458,0,.50916-.04243.80621-.04243h1.18811c.3819,0,.80621.08486,1.18811.16973.3819.08486.76373.21216,1.14563.29702s.72131.29702,1.10321.46674l.50916.25459c.16974.08486.33948.21216.50916.29702s.33948.21216.46674.33945c.16974.12729.297.25459.46674.38188s.297.25459.42432.42431c.12732.12729.25458.29702.42432.42431.12732.16973.25458.29702.3819.46674s.25458.33945.33948.50918c.12732.21216.25458.46674.3819.6789s.21216.46674.297.6789.16974.46674.21216.72133.08484.46674.16974.72133c.04242.33945.08484.72133.08484,1.06078s0,.72133-.08484,1.06078c-.04242.33945-.16974.6789-.25458,1.01835-.12732.33945-.25458.63647-.46674.97592-.08484.16973-.16974.29702-.297.46674-.08484.12729-.21216.29702-.33948.42431s-.25458.29702-.3819.42431-.25458.25459-.42432.38188c-.12732.12729-.297.25459-.42432.38188-.16974.12729-.297.21216-.46674.33945s-.33948.21216-.50916.29702-.3819.21216-.55164.25459l-14.04474,6.36469,5.47363,8.23167c.25458.38188.55164.6789.93347.93349s.76373.42431,1.18811.50917.84863.1273,1.27295.08486c.42432-.04243.84863-.16973,1.23053-.38188.33948-.21216.67889-.46674.93347-.76376.46674-.59404.67889-1.40023.59406-2.164-.08484-.38188-.21216-.8062-.42432-1.14564v-.16972l-1.69727-2.58831,7.97705-3.69152c.46674-.21216.84863-.42431,1.27295-.6789s.80621-.50918,1.18811-.76376.72131-.55161,1.06079-.84863.63647-.59404.93347-.93349c.42432-.46674.80621-1.01835,1.14563-1.52753.33948-.50918.59406-1.10321.84863-1.65482.21216-.55161.42432-1.14565.55164-1.73968.12732-.59404.21216-1.18808.25458-1.82455v-.93349c0-.29702,0-.63647-.04242-.93349s-.08484-.63647-.12732-.93349-.12732-.63647-.21216-.93349-.16974-.63647-.297-.93349-.25458-.63647-.3819-.93349-.297-.59404-.46674-.89106-.3819-.59404-.59406-.89106"/>
    <path class="st0" d="M1554.86039,4.45192c-.3819-1.10321-1.44269-1.82455-2.63074-1.78211-1.61237,0-3.13989,1.27294-3.13989,4.15827s1.73969,4.11584,3.13989,4.11584c1.18811.08486,2.29126-.6789,2.67316-1.78211l.50916.29702c-.55164,1.23051-1.82452,1.99427-3.18237,1.90941-2.41858,0-4.2431-1.99427-4.2431-4.54015s1.82452-4.54015,4.2431-4.54015c1.31537-.04243,2.5459.6789,3.09747,1.86698l-.46674.25459v.04243l.00006-.00002Z"/>
    <path class="st0" d="M1556.81223,11.15606V2.54251h.93347v8.18924h3.18237v.42431h-4.11584Z"/>
    <path class="st0" d="M1561.77671,11.15606V2.54251h.93347v8.57112h-.93347v.04243Z"/>
    <path class="st0" d="M1565.0015,11.15606V2.54251h2.29126c1.7821,0,3.18237.6789,3.18237,2.33372s-.80621,2.20643-2.41858,2.20643h-2.12158v4.0734h-.93347ZM1565.89256,6.65835h1.14563c1.31537,0,2.41858-.33945,2.41858-1.86698s-1.18811-1.90941-2.5459-1.90941h-.97589v3.77638h-.04242Z"/>
    <path class="st0" d="M1575.48203,9.79826c.25458.6789.89105,1.14565,1.61237,1.18808.93347.04243,1.73969-.6789,1.7821-1.61239v-.21216c0-2.67317-3.81885-1.52753-3.81885-4.32799-.08484-1.31537.93347-2.41858,2.24884-2.50345h.16974c.84863-.04243,1.65485.38188,2.03668,1.14564l-.3819.25459c-.3819-.6789-.76373-1.06078-1.65485-1.06078s-1.52753.84863-1.52753,1.73968c0,2.63074,3.86127,1.4851,3.86127,4.37042,0,1.40023-1.10321,2.58831-2.5459,2.63074h-.04242c-.93347.04243-1.7821-.42431-2.20642-1.27294l.42432-.33945h.04254Z"/>
    <path class="st0" d="M1582.65287,2.96682h-1.99426v-.42431h4.87958v.42431h-1.95184v8.18924h-.93347V2.96682Z"/>
    <path class="st0" d="M1592.32725,2.54251v6.15254c0,.93349-.46674,2.67317-2.63074,2.67317s-3.09747-.72133-3.09747-3.01262V2.54251h.93347v5.68579c0,1.90941,1.01837,2.7156,2.24884,2.7156s2.0791-.72133,2.0791-2.37615V2.54251h.50916-.04242.00006Z"/>
    <path class="st0" d="M1594.36393,2.54251h1.82452c3.09747,0,5.13422,1.4851,5.13422,4.54015,0,2.20643-1.73969,4.03097-3.94611,4.03097h-3.01263V2.54251h0ZM1595.2974,10.73175h1.44269c2.03668,0,3.52179-1.31537,3.52179-3.64909s-1.65485-4.0734-4.03094-4.0734h-.93347v7.7225h-.00006Z"/>
    <path class="st0" d="M1602.8502,11.15606V2.54251h.93347v8.57112h-.93347v.04243Z"/>
    <path class="st0" d="M1613.54289,6.8705c0,2.54588-1.7821,4.54015-4.11584,4.54015s-4.11584-1.95184-4.11584-4.54015,1.82452-4.58258,4.11584-4.58258,4.11584,1.95184,4.11584,4.54015v.04243ZM1606.41441,6.8705c0,2.75803,1.61237,4.15827,3.01263,4.15827s3.01263-1.40023,3.01263-4.15827-1.61237-4.15827-3.01263-4.15827-3.05505,1.40023-3.05505,4.15827h.04242Z"/>
    <path class="st0" d="M1548.8776,37.63319v-19.3911h5.09174c4.03094,0,7.21332,1.56996,7.21332,5.21905s-1.82452,5.04932-5.51605,5.04932h-4.7099v9.12273h-2.0791ZM1550.99912,27.53454h2.58832c2.97021,0,5.38879-.76376,5.38879-4.24313s-2.67316-4.28556-5.81311-4.28556h-2.20642v8.48626h0l.04242.04243Z"/>
    <path class="st0" d="M1568.56571,17.69048h.04242l7.93463,19.94271h-2.164l-2.37616-6.02524h-7.76495l-2.41858,6.02524h-1.27295l8.01953-19.94271h.00006ZM1564.61961,30.63203h6.95874l-3.43695-8.953-3.52179,8.953h0Z"/>
    <path class="st0" d="M1579.47056,37.63319v-19.3911h2.0791v19.3911h-2.0791Z"/>
    <path class="st0" d="M1586.59898,37.63319v-19.3911h1.82452l11.37158,14.89338h.04242v-14.89338h1.23053v19.90028h-.04242l-13.11127-17.05738h-.04242v16.50577h-1.23053s-.04242.04243-.04242.04243Z"/>
    <path class="st0" d="M1607.98435,19.17558h-4.45526v-.97592h11.03217v.97592h-4.45526v18.41518h-2.0791v-18.41518h-.04254Z"/>
  </g>
  <g>
    <path class="st0" d="M1105.14039.21429c-13.60379.02809-14.1778,16.99693-14.17462,20.11604.02014,9.4554,3.87067,19.90669,14.2504,19.8839,10.38028-.02173,14.18576-10.5504,14.16827-20.0058-.00583-3.11435-.63708-20.01852-14.24405-19.99414ZM1105.2162,39.64765c-9.86139.02014-12.52045-10.4656-12.53793-19.44823-.00583-2.96276-.50403-19.48851,12.42133-19.5166,12.92325-.02491,12.57028,16.59041,12.57291,19.5537.01749,8.97892-2.59387,19.39046-12.45633,19.41113h.00003Z"/>
    <path class="st0" d="M1111.71678,15.67313c-1.1586-1.84338-2.78149-4.02119-2.96487-6.26367-.11343-1.40771-.02914-2.9829-.97894-4.1431-.2735-.33815-.66302-.65191-1.05099-.85491-.41129-.212-.94342-.35087-1.40982-.35087-.44202,0-.88193.06943-1.30435.19504-.4982.15158-.99323.32967-1.50842.40387-.59998.08109-1.08334.05247-1.66901-.07791-.34662-.07738-.44257-.10547-.79236-.18232-.18921-.04028-.71603-.19186-.87982-.02915-.39328.39486.44308.87134.69061,1.05048.54486.39486.77435.52471,1.29324.97681.70172.6111,1.26089,1.33457,1.47662,2.24619.06094.26607.08109.53001.08426.7982.05246,3.93162-6.50641,7.78745-6.41577,14.74756.03232,2.45819,1.34518,2.86577,1.32767,1.49728-.02014-1.61971.55652-3.37034,1.15067-4.87186.13992-.3461.57983-.4521.48019.14999-.15689.95296-.54431,2.60182-.50934,5.29216.009.64661.04663,1.30224.13992,1.94037.07578.52206.18655,1.03405.34027,1.53544.12561.41924.28885.83053.49557,1.21744.16324.30476.35245.59732.57346.86233.22153.26024.4574.4521.72241.65933.15424.1219.32648.23161.39911.42348.11078.28515-.2507.39857-.43991.4839-.20987.09434-.39328.19928-.59097.2931-.28568.13886-.565.28515-.84167.43938-.16907.09805-.35883.15529-.52151.26501-.16324.10971-.24487.28091.00583.32172.11606.02014.2417-.01272.35828-.01643.19769-.00795.40759-.0371.59998.03657.25601.10123.24115.34928.25281.5899.01166.256.19293.34239.41977.2772.26819-.0742.45422-.2772.66144-.4521.14841-.12561.31113-.256.48868-.3461.35245-.17543.77487-.11713,1.15649-.09805.20987.01325.50986.10229.68158-.07261.17438-.17172.04929-.47595-.02649-.66781-.07526-.18232-.16537-.362-.25601-.54167-.0408-.08162-.09912-.14999-.13727-.23532-.14841-.34239,1.04572-.60262,1.22061-.64714.57666-.15476,1.18246-.29257,1.78244-.3461.565-.04929,1.19092-.04929,1.72678.17543.22684.09328.4166.256.57083.4468.08481.11024.2825.43196.10495.56181-.27454.19981-.55597.37419-.82736.58619-.16855.13091-.33179.26925-.47488.43196-.10706.12243-.1362.33391.08215.32172.29099-.01325.57877-.02862.86816-.03233.20618,0,.42773.02809.60208.14522.28622.1961.34982.60739.66727.7664.09009.04452.19769.04452.29364.01537.21359-.06519.30847-.28144.4187-.4521.10495-.15423.21094-.30423.37683-.3938.10175-.0583.22101-.08162.33762-.08162.21307,0,.42453.00424.6376.02809.16589.02067.3938.09805.54166-.01643.28036-.21518-.45688-.70067-.60263-.78919-.33813-.21147-.8157-.43196-.92328-.86339-.12189-.50828.13092-1.03352.34027-1.48191.22525-.47171.53107-.90791.70544-1.40453.16006-.45581.28198-.9307.35034-1.41195.36835-2.6331-.23956-5.42943-1.01074-7.9454-.09116-.30052-.21042-.59891-.29788-.8989-.13092-.47277.32703-.58619.56128-.12243.22525.44415,1.69922,3.27229,2.1301,5.38067.27032,1.33934,1.28104,1.39181,1.25189-.98953-.03711-3.44719-1.34253-5.94195-2.93521-8.48177l.00003-.00002ZM1104.47047,5.73754c.39645-.61057,1.14163-.83,1.66528-.48867.52524.33868.62701,1.11143.23108,1.72254-.39594.61004-1.14481.83-1.66635.49238-.52417-.34186-.62912-1.11461-.23001-1.72625ZM1104.01624,9.99565c.74573-.58619,2.61826-.84696,3.06665-3.02795.01697-.08162.11023-.2613.33231,0,.39008.45952.36676,2.34424-.27032,3.00251-.37631.3832-1.00916.43249-1.50946.50139-.55597.08162-1.09183.20352-1.63666.33762-.51834.1272-.48285-.42295.01749-.81357ZM1108.7519,30.89611c-.5618.02809-1.25772-.36571-2.29761-.2931-1.76813.11766-2.2923.79343-3.73712.53743-.82364-.14999-1.43579-.61481-1.78189-1.41672-.39328-.90791-.43091-1.94196-.49237-2.91718-.06677-1.09235-.06677-2.19001,0-3.28607.04663-.78919.13092-1.57519.23584-2.3612.17224-1.30224.44839-2.58804.74573-3.86643.26184-1.13104.5332-2.25785,1.0192-3.31681.3551-.77329.88882-1.51424,1.67166-1.9091.85651-.42666,2.05963-.45952,2.90341-.02915,1.90857.97787,1.85822,3.25692,1.92023,5.10984.04663,1.42361.22314,2.88909.48019,4.28938.28516,1.55876.91638,3.04491,1.08334,4.62435.17755,1.73791.36942,4.73671-1.75064,4.83476h.00003Z"/>
    <path class="st0" d="M1105.19004,6.27094c.19833-.285.5416-.39048.77155-.23234.23096.15489.25626.51392.06207.80284-.19592.28431-.54214.3898-.77258.23576-.22705-.159-.25592-.51699-.06104-.80626"/>
  </g>
  <g>
    <g>
      <path class="st0" d="M953.15507,20.78327v15.7469h-6.48923v-12.78392c0-2.73734-1.36609-4.13044-4.06918-4.13044-1.81516,0-3.43497.8144-4.68408,2.34487l-.08792.10791v14.46159h-6.47946V14.50425h6.47946v3.2279l.6149-.54948c1.7468-1.56988,4.64499-3.23772,7.58228-3.23772,4.52777,0,7.13318,2.49206,7.13318,6.83832h.00006Z"/>
      <path class="st0" d="M1023.02601,27.43524v-1.18711c0-7.35834-4.49872-12.30319-11.20261-12.30319-6.65527,0-11.681,4.96449-11.681,11.54771,0,6.8285,4.93781,11.59682,12.00284,11.59682,3.54242,0,6.94809-1.03022,8.98743-2.70788l-2.64447-3.91463c-1.37585,1.05956-3.50333,1.75611-5.44501,1.75611-3.70822,0-5.59152-2.23685-6.07944-4.15009-.07794-.19091-.1088-.63775-.1088-.63775h16.17105ZM1006.74888,23.46169l.07812-.43163c.34164-2.04067,1.84448-4.21883,4.9964-4.21883,3.35681,0,4.82059,2.28607,5.04501,4.23847l.04883.41199h-10.1684.00003Z"/>
      <rect class="st0" x="1024.81962" y="14.50425" width="6.48923" height="22.02592"/>
      <path class="st0" d="M970.66178,14.50425h6.47946v22.02592h-6.47946v-3.10023l-.6149.54936c-1.65887,1.51083-4.52777,3.11017-7.58228,3.11017-4.56686,0-7.08435-2.39398-7.08435-6.74036v-15.84487h6.48923v12.87207c0,2.7177,1.34653,4.0423,4.10825,4.0423,2.28354,0,3.7666-1.27549,4.60593-2.35469l.07812-.09809v-14.46159h0Z"/>
      <polygon class="st0" points="1001.49125 14.50425 992.87452 36.53017 985.69224 36.53017 977.07575 14.50425 983.91615 14.50425 989.28324 29.41711 994.65037 14.50425 1001.49125 14.50425"/>
    </g>
    <path class="st0" d="M1031.81629,7.11644c0,2.11912-1.64911,3.77726-3.75708,3.77726-2.10773,0-3.75684-1.65814-3.75684-3.77726,0-2.11924,1.64911-3.77738,3.75684-3.77738,2.10797,0,3.75708,1.65814,3.75708,3.77738Z"/>
  </g>
  <g id="surface1">
    <g>
      <path class="st1" d="M618.57813,30.25681h3.23404v3.82979h8.59575v-3.82979h3.23404v9.95745h-3.23404v-3.82979h-8.59575v3.82979h-3.23404v-9.95745"/>
      <path class="st1" d="M636.11004,39.78873v-9.53192h3.23404v7.31914c.85106.34043,1.78724.34043,2.7234.42554,1.53191.08511,3.06383,0,4.59574-.08511.42553-.08511.93617-.08511,1.3617-.25532v-7.31914h3.23404v9.87234h-3.14894v-1.27659c-1.95744.68085-4.08511,1.02128-6.12766,1.10639-2.12766.17022-4,0-5.87234-.25532"/>
      <path class="st1" d="M653.64195,30.25681h3.23404v9.95745h-3.23404v-9.95745"/>
      <path class="st1" d="M660.36535,31.3632c1.27659-.42553,2.55318-1.10639,3.91489-1.10639h6.55319c.68085,0,1.27659,0,1.87235.25532.85106.25532,1.70213.59574,2.63829.85106v7.82979c-.93617.25532-1.78724.59574-2.63829.85106-.68085.17022-1.44681.17022-2.21276.17022h-5.02127c-1.78724,0-3.40426-.59574-5.10638-.93617v-7.9149h0ZM663.34408,32.38447v5.61702h8.93618v-5.61702h-8.93617"/>
      <path class="st1" d="M677.81216,30.25681h4.42553c2.04255,2.38298,4.0851,4.68085,6.12766,6.97872v-6.97872h3.14894v9.95745h-4.34042c-1.61702-1.78724-3.31914-3.57446-4.93618-5.44681-.42553-.51063-.85106-.85106-1.27659-1.44681v6.7234c-.08511.17022-.34043.08511-.51063.08511h-2.63829v-9.87234"/>
    </g>
    <g>
      <path class="st1" d="M654.57813.55469c.08511-.17021.25532-.25532.42553-.34043.17022.08511.42553.17021.51063.42554,2.12766,4.17022,4.25531,8.34042,6.46809,12.42553.17022.25531.25532.51065.25532.85106v6.63829c0,.25532-.25532.42553-.51063.42553h-13.53191c-.17022,0-.42553-.08511-.42553-.34043v-7.23405c2.38298-4.25531,4.59574-8.59575,6.80851-12.85106h0ZM653.64195,5.23554c-.25532.17021-.34043.51063-.42553.76596-1.1915,2.38298-2.46809,4.76596-3.65957,7.06383-.08511.17021-.08511.34043-.08511.42554,3.74468,0,7.57447.08511,11.31914,0-1.44681-2.80852-2.97872-5.53192-4.42553-8.34042-.85106,0-1.78724,0-2.72341.08511"/>
      <path class="st1" d="M635.17387,8.81c.25531,0,.42554,0,.68085.08511,2.80852,1.19148,5.70212,2.29787,8.51064,3.40426.85106.34043,1.70213.68085,2.46809,1.10639.25532.51063.17022,1.10639.17022,1.61702v5.78723c-.51063.17022-1.02128.08511-1.61702.08511h-5.61701c-.17022-.17022-.34043-.34043-.42554-.51065-1.44681-3.74468-2.97872-7.40425-4.42553-11.14893.08511-.17021.17022-.25531.25531-.42554h-.00002ZM638.74833,11.3632c-.34043.42554-.85106.85106-1.19148,1.27659-.17022.17021,0,.34043,0,.51065.85106,2.29787,1.78724,4.59574,2.63829,6.89362h.25531c1.87235-1.95744,3.82979-3.82979,5.70212-5.78723-1.95744-.85106-4-1.61702-5.95744-2.46809-.42554-.08511-.93617-.42554-1.44681-.42554"/>
      <path class="st1" d="M674.23769,8.98022c.25532-.08511.51063-.08511.76596-.17021.17021.25531.17021.59574,0,.85106-1.44681,3.57446-2.89363,7.23405-4.25531,10.80851-.08511.17022-.25532.34043-.42553.42553h-6.5532c-.25532,0-.68085,0-.59574-.42553v-6.5532c0-.42554.34043-.76596.76596-.93617,3.40425-1.27659,6.89362-2.55318,10.29786-4ZM670.3228,11.70363c-2.12766.85106-4.17022,1.70213-6.29787,2.55318.17022.34043.51063.59574.76596.85106l4.68085,4.68085c.08511.17022.34043.17022.51063.17022.93617-2.29787,1.78724-4.59574,2.7234-6.80851,0-.08511.17022-.25531,0-.34043-.42553-.51065-.93617-.93617-1.3617-1.3617-.34043-.08511-.68085.08511-1.02128.25531"/>
      <path class="st1" d="M639.76961,21.91639c.68085-.17022,1.3617,0,2.04255-.08511,1.10639-.08511,2.21276,0,3.40426,0h24.59573c.25532,0,.51063.08511.68085.08511.25532.34043.25532.76596,0,1.02128-.25532,0-.42553.08511-.68085.08511h-28.51062c-.51065,0-1.02128,0-1.53191-.08511-.25531-.25532-.34043-.68085,0-1.02128"/>
    </g>
  </g>
  <g id="layer1-2">
    <path id="path4" class="st0" d="M2049.0771,17.04148c1.22328.99389,1.91127,2.59938,1.91127,4.74006v10.85627h-5.96324v-10.01529c0-.45872-.15285-.84098-.45871-1.14679s-.68815-.45872-1.14686-.45872h-3.51684c-.45871,0-.841.15291-1.14686.45872s-.45871.68808-.45871,1.14679v10.09175h-6.03983V7.71427h6.03983v8.10397c.07642,0,.30586-.07646.68815-.1529.30586-.07646.76457-.1529,1.37613-.1529h3.8227c1.98769,0,3.66968.53517,4.89297,1.52905h0v-.00002ZM2068.03724,15.51243h6.03983v10.55046c0,1.98776-.53513,3.59327-1.60557,4.81651s-2.52299,1.83486-4.43426,1.83486h-5.96324c-2.06428,0-3.74611-.61162-4.96939-1.68197-1.22328-1.14679-1.83484-2.7523-1.83484-4.89297v-10.62691h6.03983v10.09175c0,.45872.15285.84098.45871,1.14679s.68815.45872,1.14686.45872h3.44041c.45871,0,.841-.15291,1.14686-.45872s.53513-.68808.53513-1.14679v-10.09175h-.00033ZM2078.58775,7.71427h6.03983v24.92356h-6.03983V7.71427ZM2107.94555,15.51243v10.55046c0,1.98776-.53513,3.59327-1.60557,4.81651-1.07027,1.22324-2.52299,1.83486-4.43426,1.83486h-5.88681c-2.1407,0-3.74611-.61162-5.04581-1.68197-1.22328-1.14679-1.83484-2.7523-1.83484-4.89297v-10.62691h6.03983v10.09175c0,.45872.15285.84098.45871,1.14679s.68815.45872,1.14686.45872h3.51684c.45871,0,.841-.15291,1.14686-.45872s.45871-.68808.45871-1.14679v-10.09175h6.03983-.00033Z"/>
  </g>
  <g>
    <path class="st0" d="M1968.37303,15.8137v3.72355h-1.6925V.35531h11.45276c3.66711,0,6.71362,2.36953,7.67273,5.98025.84631,3.27221-.78979,6.82652-3.89282,8.57546-1.24121.67701-2.53882.90268-3.94922.90268h-8.57544c-.2821,0-.56421,0-1.0155,0ZM1968.42942,14.06476c.16919,0,.3385.05642.45129.05642,3.15942,0,6.31873.05642,9.47815,0,3.32861-.05642,5.92383-2.70804,5.92383-5.98025s-2.65161-5.98025-5.92383-6.03667c-3.15942-.05642-6.31873,0-9.47815,0-.11279,0-.22571.05642-.3949.05642l-.0564,11.90409h0Z"/>
    <path class="st0" d="M1945.80601,34.09297v5.98025h-1.57971v-16.07898h1.52332c0,.45134.0564.90268.0564,1.52327,1.7489-1.57969,3.66711-2.2567,5.86743-1.80536,1.52332.28209,2.7644,1.12835,3.66711,2.36953,1.86182,2.42595,1.63611,5.86742-.50781,8.12412-1.7489,1.80536-5.52893,2.93371-9.02686-.11284h.00012ZM1950.37583,25.17901c-2.53882,0-4.62622,2.03103-4.62622,4.56982s2.14392,4.68265,4.68262,4.62623c2.48242,0,4.56982-2.08745,4.56982-4.56982.0564-2.53879-2.03101-4.62623-4.62622-4.62623h0Z"/>
    <path class="st0" d="M1960.19248,30.6515c.2821,1.57969,1.18481,2.65162,2.59521,3.32863,1.86182.90268,4.23132.3385,5.47253-1.35402.45129-.62059.90271-.73343,1.52332-.39492.11279.05642.2821.11284.56421.16925-.62061,1.41044-1.63611,2.36953-2.93372,2.99013-3.38501,1.57969-7.27783,0-8.57544-3.5543-1.24121-3.38505.7334-7.05219,4.34412-8.0677,3.38501-.9591,7.05225,1.35402,7.72925,4.90832.3385,1.80536.22571,1.9182-1.57971,1.9182h-8.80115c-.11279,0-.16919,0-.3385.05642h-.00012ZM1960.24888,28.90256h8.91394c-.16919-2.08745-2.25671-3.72355-4.51343-3.72355s-4.28772,1.69252-4.40051,3.72355h0Z"/>
    <path class="st0" d="M1974.74815,35.61624h-1.52332v-11.622h1.4668c0,.28209.0564.56417.0564.9591.22571-.11284.3385-.22567.50781-.3385,1.91821-1.41044,4.00562-1.69252,6.14954-.67701,2.14392,1.07193,3.21582,2.82087,3.21582,5.19041v6.48801h-1.57971c0-.22567-.0564-.50776-.0564-.78985v-5.69817c-.0564-2.03103-1.354-3.72355-3.27222-4.11848-1.86182-.39492-3.78003.50776-4.56982,2.31312-.2821.56417-.3949,1.2976-.3949,1.9182-.0564,2.14386,0,4.23131,0,6.37518h0Z"/>
    <path class="st0" d="M1962.22349.41173c.3949.39492.78979.84626,1.18481,1.24118-2.59521,2.5952-5.13403,5.19041-7.78564,7.84203-.3949-.45134-.7334-.90268-1.1283-1.2976,2.53882-2.53879,5.13403-5.13399,7.72925-7.78561h-.00012Z"/>
    <path class="st0" d="M1953.14024,8.31018c-.3385.33851-.7334.73343-1.1283,1.12835-2.59521-2.65162-5.13403-5.19041-7.67273-7.78561.3385-.3385.7334-.73343,1.1283-1.12835,2.53882,2.53879,5.07751,5.13399,7.67273,7.78561Z"/>
    <path class="st0" d="M1945.41111,19.59368c-.3949-.39492-.78979-.84626-1.1283-1.24119,2.59521-2.5952,5.19043-5.13399,7.78564-7.78561.3385.39492.7334.78984,1.1283,1.24119-2.53882,2.53879-5.13403,5.13399-7.78564,7.78561Z"/>
    <path class="st0" d="M1963.35191,18.35249c-.3949.39492-.78979.84626-1.18481,1.24119-2.59521-2.65162-5.19043-5.19041-7.72925-7.78561.3949-.33851.78979-.78984,1.24121-1.12835,2.53882,2.53879,5.13403,5.07757,7.67273,7.67278h.00012Z"/>
  </g>
  <g>
    <path class="st0" d="M1885.41209,26.95627c.0564-.11284.0564-.16925.0564-.28209.16919.16925.16919.67701,0,.84626l-.0564-.05642v-.05642.05642c-.0564.73343-.84631,1.41044-1.57971,1.41044-1.7489.05642-3.21582-.56417-4.51343-1.74894-.0564-.05642-.16919-.16925-.22571-.28209-.0564.05642-.11279.11284-.16919.16925-1.18481,1.12835-2.59521,1.74894-4.17493,1.80536-.56421,0-1.1283.05642-1.63611-.11284-1.86182-.45134-3.15942-2.08745-3.15942-3.94922v-4.45698c0-.22567,0-.45134-.0564-.67701-.11279-.39492-.3949-.73343-.7334-.90268-1.18481-.62059-2.70801-.56417-3.66711.56417-.50781.56417-.7334,1.2976-.84631,2.03103-.0564.62059-.0564,1.2976,0,1.9182.11279.84626.16919,1.74894.22571,2.5952.0564.45134.11279.84626.11279,1.2976,0,.78985-.677,1.52327-1.4668,1.63611-.7334.11284-1.29761-.16925-1.7489-.73343-.16919-.22567-.22571-.50776-.2821-.78985v-.16925c-.0564.05642-.11279.05642-.16919.11284-1.29761,1.12835-2.87732,1.80536-4.56982,2.14386-.90271.16925-1.80542.22567-2.70801.16925-1.52332-.16925-2.93372-.62059-4.11853-1.69252-.677-.56417-.84631-1.46685-.50781-2.20028.45129-.9591,1.63611-1.24119,2.53882-.67701.3949.22567.7334.45134,1.1283.62059.7334.28209,1.52332.05642,1.97461-.56417.2821-.39492.2821-.78985,0-1.12835-.22571-.39492-.62061-.62059-1.0155-.84626-.45129-.22567-.90271-.50776-1.354-.73343-.56421-.3385-1.0155-.78985-1.354-1.2976-.0564-.05642-.11279-.11284-.11279-.16925-.16919.22567-.3949.45134-.56421.67701-.78979,1.01551-1.63611,2.08745-2.48242,3.10296-.90271,1.01551-1.86182,2.03103-2.99011,2.76446-1.4104.90268-2.93372,1.41044-4.62622,1.41044-1.57971,0-2.93372-.56417-4.17493-1.46685-.0564-.05642-.11279-.05642-.11279-.11284l-.11279-.11284-.2821.28209c-1.354,1.35402-2.99011,1.86178-4.90833,1.41044-1.18481-.28209-1.97461-1.07193-2.48242-2.14386-.3385-.73343-.50781-1.52327-.50781-2.36953v-4.34415c0-.73343-.62061-1.41044-1.29761-1.52327-.78979-.11284-1.4668.39492-1.6925,1.12835-.0564.16925-.0564.3385-.0564.45134v7.1086c0,.84626-.677,1.57969-1.57971,1.69252-.84631.05642-1.6925-.50776-1.80542-1.35402v-7.44711c0-.90268-.7334-1.52327-1.4104-1.57969-.7334-.05642-1.4668.56417-1.57971,1.24119-.0564.28209,0,.50776,0,.78985v6.60085c0,.62059-.22571,1.12835-.7334,1.46685-.56421.39492-1.1283.39492-1.6925.16925-.62061-.28209-.90271-.73343-1.0155-1.41044-.0564-.28209,0-.56417,0-.78985v-6.48801c0-.9591-.78979-1.63611-1.7489-1.52327-.62061.05642-1.18481.67701-1.24121,1.2976-.0564.28209-.0564.62059-.16919.90268-.2821.67701-.84631,1.01551-1.57971,1.01551s-1.29761-.3385-1.57971-1.01551c-.22571-.45134-.16919-.90268-.11279-1.35402.22571-1.35402.84631-2.48237,1.97461-3.32863,1.0719-.78984,2.31311-1.12835,3.66711-.9591.95911.11284,1.7489.45134,2.48242,1.07193.0564.05642.11279.05642.22571,0,1.1283-.90268,2.4259-1.24119,3.83643-1.07193.90271.11284,1.7489.50776,2.4259,1.07193,0,0,.0564.05642.11279.05642.0564-.05642.11279-.11284.22571-.16925,1.1283-.84626,2.36951-1.12835,3.72351-.9591,1.86182.22567,3.66711,1.63611,4.11853,3.77997.16919.62059.11279,1.24119.11279,1.9182v2.42595c0,.45134,0,.9591.0564,1.41044,0,.22567.11279.39492.16919.62059.11279.22567.2821.3385.56421.3385.78979,0,1.4668-.67701,1.52332-1.46685v-2.20028c0-3.15938,2.14392-5.98025,5.19043-6.71368,2.70801-.67701,5.07751.05642,6.99573,2.08745.78979.84626,1.354,1.91819,1.57971,3.04654,0,.05642,0,.11284.0564.11284l.0564.05642c.0564-.05642.11279-.11284.11279-.22567.56421-1.46685,1.4104-2.70804,2.59521-3.72355,1.24121-1.07193,2.59521-1.80536,4.23132-1.91819.90271-.05642,1.80542.05642,2.65161.33851.3385.11284.677.22567.95911.50776.50781.50776.62061,1.35402.3385,1.97461-.3385.67701-1.0719,1.07193-1.80542.90268-.62061-.11284-1.24121-.16925-1.86182-.05642-.22571.05642-.45129.11284-.56421.28209-.22571.16925-.22571.3385-.0564.56417.2821.3385.677.56417,1.0719.73343.677.3385,1.354.67701,1.86182,1.24119,1.0155.90268,1.52332,2.03103,1.57971,3.44147,0,.22567-.0564.50776-.0564.73343.0564-.05642.11279-.05642.16919-.11284.78979-.73343,1.57971-1.52327,2.14392-2.42595.11279-.16925.16919-.39492.11279-.56417-.11279-.84626-.16919-1.74894-.2821-2.65162-.11279-1.18477-.2821-2.36953-.45129-3.5543-.16919-1.24119-.3385-2.42595-.45129-3.66714-.11279-1.07193-.22571-2.20028-.2821-3.27221-.11279-1.69252-.0564-3.44147.50781-5.07757.2821-.90268.677-1.69252,1.354-2.36953.50781-.56417,1.1283-1.01551,1.91821-1.12835,1.354-.22567,2.48242.22567,3.32861,1.2976.62061.73343.95911,1.63611,1.18481,2.53879s.3385,1.80536.3949,2.76446c.0564.9591.11279,1.86178-.0564,2.76446-.11279.9591-.2821,1.97461-.45129,2.93371-.11279.67701-.3385,1.41044-.50781,2.08745v.05642c.22571,0,.45129.05642.677.05642,1.52332.11284,2.87732.56417,3.94922,1.69252.90271.9591,1.354,2.08745,1.4104,3.38505v4.56982c-.0564.62059.3385.84626.78979.84626,1.4668.05642,2.48242-.78985,2.93372-1.74894.16919-.3385.22571-.67701.22571-1.01551,0-1.86178,0-3.77997.0564-5.64175,0-.39492-.0564-.78984.16919-1.18477.3385-.62059,1.0719-1.01551,1.7489-.90268.90271.11284,1.4104.73343,1.52332,1.41044v5.92384c0,.56417.0564,1.12835.3385,1.63611.50769.9591,1.29761,1.52327,2.4259,1.57969.3385,0,.7334.05642,1.0155.22567.45129.28209.7334.62059.78979,1.12835-.11279,0-.11279.05642-.11279.16925h0l.00024-.00007ZM1840.72947,25.32016c1.86182,0,3.49792-1.57969,3.55432-3.49788,0-1.9182-1.57971-3.5543-3.55432-3.5543s-3.49792,1.63611-3.49792,3.49788c0,2.08745,1.6925,3.61072,3.49792,3.5543h0ZM1863.69139,14.88293h.0564c.0564-.05642.0564-.11284.11279-.16925l.16919-.67701c.3385-1.41044.677-2.82087.84631-4.23131.16919-1.57969.11279-3.10296-.22571-4.62623-.11279-.39492-.22571-.78984-.50781-1.18477-.0564-.11283-.11279-.11283-.16919,0-.11279.28209-.2821.50776-.3949.78984-.3385.84626-.45129,1.74894-.45129,2.65162-.0564,1.57969.16919,3.10296.2821,4.62623.0564.73343.16919,1.46685.22571,2.20028,0,.16925.0564.39492.0564.62059h0Z"/>
    <path class="st0" d="M1843.04258,35.58814c-.0564.11284-.11279.11284-.16919.16925-.50781,1.07193-.95911,2.14386-1.4668,3.27221-.11279.28209-.22571.56417-.3949.84626-.0564-.05642-.11279-.11283-.11279-.16925-.45129-.9591-.84631-1.97461-1.29761-2.93371-.11279-.28209-.22571-.56417-.3949-.84626-.0564-.11284-.11279-.16925-.16919-.28209v.05642c-.16919.90268-.2821,1.80536-.45129,2.70804-.0564.3385-.11279.67701-.16919,1.01552,0,.05642-.0564.11283-.11279.11283h-.95911c.45129-2.36953.90271-4.73907,1.4104-7.1086l.11279.11284c.62061,1.35402,1.18481,2.70804,1.80542,4.11848.11279.22567.22571.50776.3385.73343,0,.05642.0564.05642.11279.11283.78979-1.74894,1.57971-3.44147,2.36951-5.13399h0c.3949,2.36953.84631,4.73907,1.24121,7.1086h-.90271c-.0752,0-.11279-.03761-.11279-.11283-.11279-.90268-.2821-1.80536-.45129-2.76446-.16919-.28209-.16919-.62059-.22571-1.01551h-.00037Z"/>
    <path class="st0" d="M1868.99461,39.53737v-7.1086c.0564.05642.11279.11284.16919.16925,1.354,1.41044,2.70801,2.82087,4.06201,4.23131l.50781.50776c.0564.05642.11279.05642.16919.11283v-4.62623h1.0719v5.98025c0,.39492-.0564.78985-.0564,1.18477v.05642c-.11279-.16925-.22571-.3385-.3385-.45134-1.29761-1.35402-2.59521-2.70804-3.89282-4.06206-.16919-.16925-.3385-.3385-.45129-.50776-.0564-.05642-.11279-.11284-.16919-.16925,0,.16925.0564.28209.0564.39492v4.11848c0,.05642-.0564.11283-.0564.11283-.3949.05642-.7334.05642-1.0719.05642h0Z"/>
    <path class="st0" d="M1826.51231,32.42877c1.63611,1.69252,3.21582,3.38505,4.85193,5.07757h.0564v-4.56982h.84631c.11279,0,.16919.05642.16919.16925v5.35966c0,.50776.0564,1.01552.0564,1.46685v.16925c-.3949-.50776-.84631-.9591-1.29761-1.41044-1.1283-1.18477-2.20032-2.31312-3.32861-3.49788-.0564-.11284-.16919-.16925-.22571-.28209,0,0-.0564,0-.0564.05642v4.34415c0,.15045-.0752.22567-.22571.22567h-.677c-.0564,0-.11279,0-.11279-.11283v-6.7701c-.0564,0-.0564-.11284-.0564-.22567h0Z"/>
    <path class="st0" d="M1860.53196,36.20874c-.16919-1.46685,1.18481-3.27221,2.99011-3.44147,2.03101-.22567,3.38501,1.07193,3.78003,2.42595.7334,2.42595-1.0719,4.28773-2.87732,4.45698-1.4104.16925-2.53882-.3385-3.38501-1.52327-.3385-.45134-.50781-1.01552-.50781-1.63611,0,0,0-.28209,0-.28208ZM1861.49107,36.20874c-.0564,1.35402,1.24121,2.5952,2.53882,2.53879,1.29761-.05642,2.48242-1.18477,2.4259-2.53879,0-1.41044-1.24121-2.53879-2.59521-2.48237-1.354,0-2.4259,1.24119-2.36951,2.48237Z"/>
    <path class="st0" d="M1881.23716,10.08744c0,1.18477-.677,2.03103-1.86182,2.2567-1.354.22567-2.36951-.78984-2.48242-1.91819-.0564-.62059.0564-1.18477.45129-1.74894.56421-.73343,1.52332-1.01551,2.4259-.73343.84631.28209,1.4668,1.07193,1.4668,1.97461v.16925h.00024Z"/>
    <path class="st0" d="M1845.5814,39.53737c1.1283-2.36953,2.20032-4.73907,3.32861-7.1086,1.0719,2.36953,2.14392,4.73907,3.21582,7.1086h-.90271c-.11279,0-.22571-.05642-.2821-.16925-.16919-.39492-.3385-.84626-.50781-1.24118-.0564-.16925-.16919-.22567-.3385-.22567h-2.36951c-.16919,0-.2821.05642-.3385.22567-.16919.45134-.3949.84626-.56421,1.2976,0,.05642-.0564.11283-.11279.11283h-1.1283ZM1847.83811,36.94216h2.03101c-.0564-.11283-.11279-.22567-.11279-.3385-.22571-.56417-.50781-1.18477-.7334-1.74894,0-.05642-.0564-.05642-.11279-.11284-.0376.03761-.0752.07522-.11279.11284-.22571.45134-.3949.9591-.62061,1.41044-.11279.22567-.22571.45134-.3385.67701h-.00012Z"/>
    <path class="st0" d="M1825.44029,39.53737h-1.0155c-.0564,0-.11279-.05642-.16919-.11283-.22571-.45134-.3949-.90268-.56421-1.35402-.0564-.11283-.11279-.16925-.22571-.16925h-2.59521c-.0564,0-.16919.05642-.16919.11283-.22571.45134-.3949.90268-.62061,1.35402-.0564.11283-.11279.11283-.22571.11283h-.7334c-.16919,0-.22571-.05642-.11279-.22567.56421-1.18477,1.1283-2.31312,1.6925-3.49788.50781-1.07193.95911-2.14386,1.4668-3.15938,0-.05642.0564-.11284.11279-.22567,1.0155,2.42595,2.0874,4.79548,3.15942,7.16503v-.00002ZM1822.22447,34.74188h0c-.3949.73343-.7334,1.46685-1.0719,2.20028h2.03101c-.2821-.73343-.62061-1.46685-.95911-2.20028Z"/>
    <path class="st0" d="M1856.41355,33.78278h-1.52332v5.75458h-1.0155v-5.75458h-1.4104c-.0564,0-.11279-.05642-.11279-.11284v-.84626h3.94922c.11279,0,.16919,0,.16919.16925-.0564.28209-.0564.50776-.0564.78985h0Z"/>
    <path class="st0" d="M1851.61802,8.05641c.90271,0,1.63611.45134,1.91821,1.24118.3949,1.18477-.22571,2.42595-1.4668,2.65162-.78979.16925-1.52332-.05642-2.03101-.67701-.84631-1.01551-.3949-2.82087,1.18481-3.15938.11279-.05642.2821-.05642.3949-.05642h-.00012ZM1852.74644,10.03102c.0564-.78984-.677-1.24118-1.1283-1.24118-.62061,0-1.1283.56417-1.18481,1.18477,0,.62059.56421,1.18477,1.1283,1.18477.62061.05642,1.24121-.45134,1.18481-1.12836Z"/>
    <path class="st0" d="M1838.24705,11.8928v-3.49788c0-.18806.09399-.28209.2821-.28209h1.4104c1.0155.05642,1.7489.84626,1.80542,1.80536.0564.90268-.56421,1.74894-1.52332,1.91819-.22571.05642-.50781.05642-.7334.05642h-1.24121ZM1839.09336,11.15937h.84631c.56421-.05642.95911-.45134.95911-.9591.0564-.56417-.22571-1.07193-.7334-1.24118-.3385-.11283-.677-.05642-1.0155-.05642l-.0564,2.2567h-.00012Z"/>
    <path class="st0" d="M1831.36411,9.35401v-1.07193c0-.11283.0564-.16925.16919-.16925h.56421c.11279,0,.16919.05642.16919.16925v2.20028c.0564.39492.3949.73343.84631.67701.45129,0,.78979-.28209.78979-.73343v-2.14386c0-.15045.0752-.22567.22571-.22567h.50781c.0564,0,.11279.05642.11279.11283v2.36953c-.0564.84626-.56421,1.35402-1.4668,1.41044-.50781,0-.95911-.05642-1.354-.39492-.2821-.28209-.45129-.56417-.45129-.9591-.11279-.39492-.11279-.84626-.11279-1.24119h-.00012Z"/>
    <path class="st0" d="M1819.29087,10.76445c.3385.28209.677.45134,1.0719.50776.16919,0,.3949,0,.50781-.16925.16919-.11284.16919-.28209,0-.45134-.11279-.05642-.22571-.11284-.3949-.16925-.3385-.11284-.677-.16925-.95911-.33851-.677-.28209-.78979-1.24118-.22571-1.74894.3949-.33851.84631-.39492,1.29761-.33851.3949.05642.7334.16925,1.0155.33851.11279.05642.11279.11283.0564.22567-.11279.11283-.22571.28209-.2821.39492s-.11279.05642-.16919.05642c-.22571-.11283-.45129-.22567-.677-.28209-.2821-.05642-.50781,0-.62061.22567-.0564.11283-.0564.16925,0,.22567.11279.11283.22571.16925.3385.22567.22571.05642.45129.11284.677.16925.11279.05642.22571.05642.3385.11284.45129.22567.677.56417.62061,1.07193s-.3385.84626-.84631.9591c-.78979.22567-1.4668.05642-2.0874-.45134-.11279-.05642-.11279-.11284,0-.22567l.3385-.33851h0Z"/>
    <path class="st0" d="M1858.72666,32.88011v6.65726h-.95911s-.0564-.05642-.0564-.11283c0-.90268.0564-1.80536.0564-2.76446v-1.41044c0-.73343,0-1.46685-.0564-2.20028,0-.11284.0564-.16925.16919-.16925.2821,0,.56421-.05642.84631,0h0Z"/>
    <path class="st0" d="M1834.46714,32.88011h.90271c.11279,0,.11279.05642.11279.16925v6.43159c0,.05642-.0564.11283-.0564.11283h-.90271s-.0564-6.71368-.0564-6.71367Z"/>
    <path class="st0" d="M1828.0355,8.11283v.73343h-.95911c-.16919,0-.16919.05642-.16919.22567v2.70804c0,.05642-.0564.11284-.11279.11284h-.78979v-3.04654h-1.18481v-.56417c0-.11283.0564-.16925.16919-.16925h3.04651v-.00002Z"/>
    <path class="st0" d="M1845.2993,8.11283h.677c.11279,0,.16919.05642.16919.16925v3.5543c0,.05642-.0564.11284-.11279.11284h-.7334v-3.83639h0Z"/>
  </g>
  <path class="st1" d="M811.48623,19.50475s-1.32796-.82176-2.1497-1.13731c0,0-2.54416-1.17676-3.05037-1.74213,0,0-.99268-.93352-.41417-2.01824,0,0,.24324-.71,1.28851-.71,0,0,1.36742.07231,1.36742,1.19648v1.58435h4.8911v-2.32722c-.00658,0,.36815-3.81295-5.76546-3.98388,0,0-4.82536-.31555-6.20592,2.2812,0,0-.54565.57852-.54565,2.59675v1.45944s-.0526,1.68296.80203,2.76768c0,0,.48648.71,1.68295,1.49231,0,0,2.4324,1.30824,3.89185,2.05768,0,0,1.4726.84148,1.28194,2.17601,0,0-.11835,1.37398-1.54491,1.31481,0,0-1.30167-.05917-1.30167-1.40685v-1.57777h-5.20667v2.29435s-.14462,4.39147,6.54778,4.39147c0,0,6.39656.13148,6.6924-4.50323v-1.86703s.22353-2.83999-2.26147-4.33888h.00002ZM786.45878,10.90588l-1.63693,10.26211h-.38129l-1.56464-10.17007h-8.16498l-.40759,18.57829h4.83852l.05917-13.99617h.38129l2.56387,13.99617h5.08832l2.53101-13.9896h.33528l.11833,13.9896h4.85823l-.52592-18.67033s-8.09267,0-8.09267,0ZM757.67755,10.98477l-3.21472,18.57172h5.20667l1.90648-14.39719h.42731l1.90648,14.39719h5.20667l-3.22787-18.57172h-8.21758.00658ZM866.89898,19.24836v2.74138h1.33453v2.9386c0,1.43972-1.22935,1.46602-1.22935,1.46602-1.49231,0-1.43971-1.3674-1.43971-1.3674v-10.17007c0-1.04528,1.32796-1.10444,1.32796-1.10444,1.27538,0,1.28194,1.24907,1.28194,1.24907v1.5449h4.90425c.15778-3.01749-.44046-3.74721-.44046-3.74721-1.2162-2.72824-5.81804-2.58361-5.81804-2.58361-7.06711,0-6.28481,5.4236-6.28481,5.4236v9.83479c.15121,5.08832,7.11313,4.56897,7.23148,4.5624,3.09637-.34185,4.02989-1.32796,4.02989-1.32796.86121-.63768,1.08472-1.52518,1.08472-1.52518.24324-.51278.30898-2.16287.30898-2.16287v-5.7786h-6.29137v.00658ZM850.65447,22.27243h-.21037l-4.97656-11.35998h-5.94952v18.66376h4.84508l-.28926-11.35998h.21695l5.15405,11.35998h5.77203V10.91246h-4.90425l.34843,11.35998h-.00659.00002ZM827.69785,24.92835s.07231,1.53176-1.34769,1.53176c0,0-1.49231.07889-1.49231-1.49231l-.01314-14.04219h-5.31184v13.93043s-.54565,5.2724,6.89619,5.2724c0,0,6.46889.07889,6.46889-5.02916v-14.17367h-5.19351v14.00275h-.00659ZM747.54691,19.50475s-1.32796-.82176-2.14972-1.13731c0,0-2.54416-1.17676-3.05036-1.74213,0,0-.99268-.93352-.40759-2.01824,0,0,.24324-.71,1.28852-.71,0,0,1.3674.07231,1.3674,1.19648v1.58435h4.8911v-2.32722c-.00657,0,.36157-3.81295-5.76545-3.98388,0,0-.46018-.03287-1.13731,0,0,0-3.71434.19722-5.0423,2.23518-.00657.01315-.01972.0263-.0263.03944,0,0-.53907.57852-.53907,2.59675v1.45944s-.05917,1.68296.80204,2.76768c0,0,.48648.71,1.68296,1.49231,0,0,2.4324,1.30824,3.89184,2.05768,0,0,1.47259.84148,1.28194,2.17601,0,0-.11833,1.37398-1.53833,1.31481,0,0-1.30166-.05917-1.30166-1.40685v-1.58435h-5.22638v2.30092s-.14463,4.39147,6.54776,4.39147c0,0,6.39656.13148,6.69897-4.50323v-1.86703s.22352-2.84657-2.26148-4.33888h0l-.00657.00657v.00003Z"/>
  <path class="st1" d="M570.18335,23.95425h-12.41199v-11.21977h-4.138v14.95957h20.688v-3.7398h-4.138Z"/>
  <path class="st1" d="M483.29775,12.73434h-12.4127v3.74012h8.2752v11.21973h4.1375v-11.21973h8.2752v-3.74012h-8.2752Z"/>
  <path class="st1" d="M516.39256,20.21429c0,2.0654-1.8524,3.7398-4.1375,3.7398h-8.2752c-2.2853,0-4.1377-1.6744-4.1377-3.7398s1.8524-3.73983,4.1377-3.73983h8.2752c2.2851,0,4.1375,1.67438,4.1375,3.73983ZM512.25585,12.73434h-8.2753c-4.5703,0-8.2752,3.34876-8.2752,7.47995s3.7049,7.4799,8.2752,7.4799h8.2753c4.57,0,8.2748-3.3487,8.2748-7.4799s-3.7048-7.47995-8.2748-7.47995Z"/>
  <path class="st1" d="M545.35735,20.21429c0,2.0654-1.85201,3.7398-4.137,3.7398h-8.2756c-2.28539,0-4.13779-1.6744-4.13779-3.7398s1.8524-3.73983,4.13779-3.73983h8.2756c2.285,0,4.137,1.67438,4.137,3.73983ZM541.22035,12.73434h-8.2749c-4.5704,0-8.2752,3.34876-8.2752,7.47995s3.7048,7.4799,8.2752,7.4799h8.2749c4.57,0,8.275-3.3487,8.275-7.4799s-3.705-7.47995-8.275-7.47995Z"/>
  <path class="st1" d="M454.08405,20.64855l-3.88673-3.51323h-5.8513l6.81233,6.1579,2.9257-2.64467Z"/>
  <path class="st1" d="M465.78695,13.60288l.9608-.86855h-5.8513l-16.55043,14.95987h5.8513l5.34953-4.8356,5.3496,4.8356h5.8513l-8.2752-7.4799,7.3144-6.61142Z"/>
  <g>
    <path class="st0" d="M348.76724,35.11927h-6.27012c-.02264-.38481-.0679-.72435-.0679-1.06388,0-8.10362.02264-16.18461-.02264-24.28823,0-1.17706.43008-2.03722,1.35815-2.67103,1.47133-.97334,3.10111-1.42606,4.97988-1.74296v9.0996c2.35412,0,4.59507-.24899,6.74547.06791,3.87073.5659,6.40593,3.41801,6.56439,7.334.18108,4.16499.0679,8.35262.09054,12.54024,0,.70171-.36217.79225-.92807.79225-1.42605-.02264-2.87475-.04527-4.3008.02264-.8828.04527-1.17707-.249-1.15443-1.15443.04527-3.80282.02264-7.60563.02264-11.40845,0-2.53521-1.53923-3.89336-4.05181-3.59909-1.87877.20372-2.98793,1.42606-2.98793,3.30483-.02264,3.80282,0,7.60563,0,11.40845.02264.43008.02264.83753.02264,1.35815h0Z"/>
    <path class="st0" d="M297.04441,35.18409c-.02264-.54326-.06791-.92807-.06791-1.33551,0-7.87726.04527-15.73189-.02264-23.60916-.02264-1.81087.72435-2.96529,2.28622-3.62173,1.26761-.52062,2.58048-.90543,4.07445-1.40342v9.28068c1.13179-.06791,2.12777-.24899,3.12374-.20372,1.72032.11318,3.50855.11318,5.1157.61117,2.92002.90543,4.77616,3.16901,4.95724,6.13431.27163,4.64034.06791,9.30332.06791,14.05684h-6.13431v-1.31288c0-3.64437.02264-7.31137,0-10.95573-.02264-2.80684-1.72032-4.21026-4.36871-3.73491-1.76559.3169-2.7163,1.49396-2.73894,3.44064-.02264,3.75754-.04527,7.53773.02264,11.29527.02264,1.06388-.27163,1.44869-1.38079,1.38079-1.60714-.09054-3.21429-.02264-4.93461-.02264h0Z"/>
    <path class="st0" d="M283.84772,33.82236c-8.17153,4.09708-18.33501-1.29024-19.89688-10.41247-1.13179-6.60966,2.28622-12.90241,8.39789-15.50553,6.13431-2.60312,13.19668-.79225,17.02213,4.68561,3.30483,4.75352,3.64437,9.93712,1.17706,15.18863-1.01861,2.17304-2.64839,3.87072-5.29678,4.05181-1.72032.11318-3.12374-.70171-4.39135-1.76559-2.7163-2.37676-3.9839-5.52314-4.61771-8.96378-.3169-1.67505-.43008-3.39537-.58853-5.07042.67907,2.42203,1.10916,4.93461,2.0825,7.19819.81489,1.87877,2.03722,3.71227,3.46328,5.20624,2.35413,2.51258,5.20624,1.67505,6.13431-1.65242,1.65242-5.97586-.3169-13.58149-9.7334-15.73189-2.87475-.65644-5.79477-.90543-8.87324-.38481,1.99195,3.46328,1.04125,7.2661,1.49396,10.88783.92807,7.31137,5.95322,11.92907,13.30986,12.17807.06791-.02264.13581.02264.3169.09054h0Z"/>
    <path class="st0" d="M365.15557,14.4027h6.29275v12.42706c0,2.60312,1.53923,3.93863,4.14235,3.64437,1.74296-.20372,2.82948-1.22233,2.89738-3.0332.11318-3.01056.0679-6.02113.09054-9.03169,0-1.08652-.04527-2.19567.04527-3.28219.02264-.27163.40744-.74698.6338-.76962,1.78823-.06791,3.59909-.04527,5.52314-.04527.02263.49799.0679.90543.0679,1.29024v10.84256c0,5.20624-2.85211,8.35262-8.01308,8.71479-1.56187.11318-3.16901.04527-4.73088-.15845-4.14235-.5659-6.7002-3.23692-6.88129-7.49245-.20372-4.3008-.0679-8.64688-.0679-13.10614h0Z"/>
    <path class="st0" d="M319.83867,14.33479h6.29276c.02264.40744.0679.79225.0679,1.1997v11.18209c0,2.67103,1.53923,4.02918,4.16499,3.71227,1.74296-.22636,2.80684-1.22233,2.85211-3.05584.11318-3.53119.0679-7.06238.09054-10.6162,0-1.62978.80735-2.44467,2.42203-2.44467h3.84809v12.17807c0,5.13833-2.82948,8.26207-7.94517,8.66952-1.60714.11318-3.25956.04527-4.84406-.15845-4.02917-.5659-6.51912-3.01056-6.81338-7.19819-.29427-4.00654-.11318-8.03571-.13582-12.06489v-1.40342h0Z"/>
  </g>
  <path class="st0" d="M2195.57702,26.39005c-2.28418,0-4.05016-1.74923-4.05016-4.11719,0-2.26484,1.76599-4.01407,4.04887-4.01407,2.28418,0,4.04887,1.74923,4.04887,4.01407.10312,2.36797-1.76469,4.11719-4.04759,4.11719ZM2203.05087,18.15567v-2.77917h-4.98343c-.83014-.30937-1.66028-.41249-2.49171-.41249-4.25641,0-7.57826,3.19166-7.57826,7.41198s3.32185,7.41198,7.57955,7.41198c4.25512,0,7.57697-3.19166,7.57697-7.41198,0-1.44115-.41507-2.77917-1.14209-3.80911l1.03897-.41249v.00129ZM2179.174,26.39005c-2.28418,0-4.04887-1.74923-4.04887-4.11719,0-2.26484,1.76469-4.01407,4.04758-4.01407,2.28547,0,4.05016,1.74923,4.05016,4.01407,0,2.36797-1.76598,4.11719-4.04887,4.11719ZM2179.174,14.96401c-4.25641,0-7.57955,3.19166-7.57955,7.41198s3.32314,7.41198,7.57955,7.41198,7.57826-3.19166,7.57826-7.41198-3.32185-7.41198-7.57955-7.41198h.00129ZM2166.61231,29.37547h3.52939V9.50879h-3.52939v19.86668ZM2204.60803,29.37547h3.52939v-13.99897h-3.52939v13.99897ZM2195.57573,34.31636c-2.28289,0-4.04758-1.74923-4.04758-4.01407h-3.53068c0,4.22032,3.32185,7.41198,7.57955,7.41198,4.25512,0,7.57697-3.19166,7.57697-7.41198h-3.52939c0,2.36668-1.76469,4.01407-4.04758,4.01407h-.00129ZM2221.11418,20.93484c.51948-1.85364,1.86911-2.88229,3.73822-2.88229,1.86782,0,3.21744,1.02865,3.63251,2.88229h-7.37073ZM2224.95552,14.96401c-4.25641,0-7.47514,3.19166-7.47514,7.5151,0,4.22032,2.90679,7.30885,7.47514,7.30885,2.49171,0,4.7746-.92811,6.43617-2.67733l-2.3873-2.36668c-1.14209,1.13178-2.38859,1.85235-3.94446,1.85235-1.97223,0-3.42627-1.13307-3.84134-2.88229h11.00324v-.8237c0-4.73464-3.00991-7.9263-7.26632-7.9263ZM2256.20184,14.96401c-1.76341,0-3.21745.61874-4.25512,1.75052v-7.31014h-3.52938v19.9698h3.52938v-7.61822c0-2.05731,1.24522-3.39662,3.42626-3.39662,1.97223,0,3.11432,1.23619,3.11432,3.39791v7.61822h3.52939v-8.23696c0-3.91095-2.49171-6.17579-5.81357-6.17579l-.00128.00129ZM2240.94219,18.36063c1.45403,0,2.69925.72186,3.6338,1.85364l2.49171-2.36797c-1.34963-1.74923-3.52939-2.77917-6.02111-2.77917-4.25641,0-7.57955,3.19166-7.57955,7.41198s3.32314,7.41198,7.57955,7.41198c2.49171,0,4.67148-1.13435,6.01981-2.78046l-2.49042-2.4698c-.93455,1.02865-2.17976,1.85235-3.6338,1.85235-2.28418,0-3.94446-1.74923-3.94446-4.01407-.10313-2.36797,1.66028-4.11848,3.94446-4.11848ZM2215.09308,11.05177h-3.52939v4.32473h-1.86911v3.08725h1.86911v10.91172h3.52939v-10.91172h1.97223v-3.08725h-1.97223v-4.32602.00129ZM2206.37273,9.0963c-1.24521,0-2.28418,1.02994-2.28418,2.36797,0,1.2349,1.03897,2.26484,2.28418,2.26484,1.34963,0,2.3873-1.02994,2.3873-2.26484,0-1.33802-1.03768-2.36797-2.3873-2.36797ZM2288.80036,2.71427v7.10261c-5.60603,0-10.06997,4.42656-10.06997,9.9849,0,5.4565,4.46394,9.98619,10.06997,9.98619v7.10261c-9.55178,0-17.33758-7.61822-17.33758-17.0888,0-9.46928,7.78579-17.08751,17.33758-17.08751ZM2289.0079,16.71323v6.99948h8.30528v8.23696h7.05878v-15.23644h-15.36406Z"/>
  <path d="M2443.89724,31.027c-2.53616-.41714-4.63932-2.71912-5.46225-5.09616l-3.4494-9.96352c-.23651-.68316-1.86376-2.20603-2.36016-1.64071-4.17792,4.758-3.75484,17.42098-11.97181,16.72746-7.61419-.64265-6.38233-13.04785-11.29014-17.16806-4.67713,5.11554-3.94988,16.94586-11.63644,17.19775-5.70431.18693-7.33487-6.80543-9.23382-12.89332-.5115-1.63983-1.22414-3.51215-2.93534-4.18517-4.51648,5.27059-4.02572,17.24392-11.72069,17.07639-8.21076-.17876-7.6741-14.84724-11.26228-16.54708-1.74543-.82687-2.96159-1.32885-2.84394-3.04754.09036-1.32006,1.76896-2.41816,3.33571-2.09833,2.61687.5342,4.69458,2.6678,5.60372,5.29303l3.42301,9.88424c.23238.67102,1.87721,2.07478,2.36595,1.52262,4.00753-4.52767,3.74613-16.70634,11.31834-16.75095,7.92536-.04669,6.9828,12.21345,11.70085,17.18882,1.95303-1.43306,2.58946-3.49998,3.26396-5.59265,1.80451-5.59858,3.45844-11.63985,8.92548-11.59246,5.24006.04542,7.00875,6.73934,8.7036,12.32296.59849,1.9717,1.28775,3.4427,2.9836,5.01341,4.68536-5.4061,4.11017-17.28535,11.7247-17.33695,8.30487-.05627,7.85775,15.33521,11.56157,16.71873,1.54782.57817,2.71073,1.36436,2.61376,2.68807-.11389,1.55455-1.17998,2.63763-3.35797,2.2794Z"/>
  <path class="st0" d="M58.3401,34.77975c-1.76234-.74018-2.89023-2.43202-2.89023-4.37059V8.06273c0-2.57301,2.1148-4.68781,4.68781-4.68781h5.67472c6.83787,0,12.40685,5.56898,12.40685,12.40685s-4.8993,11.70191-11.17321,12.33635v10.2568l-8.70594-3.63041h0v.03525ZM60.13768,28.18861c-1.19839,0-2.22054.98691-2.22054,2.22054s.56395,1.72709,1.37462,2.04431l5.25176,2.1853v-6.45015s-4.40584,0-4.40584,0ZM57.95238,26.25004c.66969-.35247,1.44512-.56395,2.22054-.56395h4.40584v-10.67976l-6.20342-2.57301c-.14099-.07049-.28197-.14099-.42296-.21148v14.0282h0ZM60.13768,5.87743c-1.19839,0-2.22054.98691-2.22054,2.22054s.56395,1.72709,1.37462,2.07956l7.75428,3.20745v12.26586c4.96979-.63444,8.67069-4.8288,8.67069-9.83384s-4.44109-9.93958-9.90433-9.93958h-5.67472Z"/>
  <path class="st0" d="M99.50828,13.7727c0,3.70091-2.67875,5.81571-6.55589,5.81571h-3.70091v8.6002h-2.57301V7.92174h6.27392c3.84189,0,6.55589,2.15005,6.55589,5.85096h0ZM89.25148,17.22688h3.70091c2.32628,0,3.94763-1.26888,3.94763-3.45418s-1.62135-3.48943-3.94763-3.48943h-3.70091v6.94361Z"/>
  <path class="st0" d="M110.0823,18.88347c0-1.76234-1.23364-2.81974-3.31319-2.81974s-3.31319.77543-4.79356,2.1148v-2.60826c1.26888-1.0574,2.81974-1.76234,4.8288-1.76234,3.63041,0,5.70997,2.00906,5.70997,5.25176v9.1289h-2.36153v-1.83283c-1.09265,1.40987-2.81974,2.1853-4.65257,2.1853s-4.26486-1.69184-4.26486-4.01813,1.5861-4.01813,4.68782-4.54683l4.12387-.70493v-.35247h0l.03525-.03525ZM105.99367,26.28529c2.39678,0,4.12387-1.55086,4.12387-3.73615v-1.19839l-3.7714.66969c-1.69184.31722-2.60826,1.0574-2.60826,2.29104s.91642,1.97382,2.22054,1.97382h.03524Z"/>
  <path class="st0" d="M116.4972,34.18056V14.08992h2.46727v2.22054c1.02215-1.51561,2.92548-2.53776,4.96979-2.53776,3.98288,0,7.04935,3.17221,7.04935,7.36657s-3.06646,7.33132-7.04935,7.33132-3.94763-.88117-4.96979-2.43202v8.14199s-2.46727,0-2.46727,0ZM123.61704,16.06374c-2.74925,0-4.8288,2.22054-4.8288,5.07553s2.07955,5.07553,4.8288,5.07553,4.8288-2.22054,4.8288-5.07553-2.07955-5.07553-4.8288-5.07553h0Z"/>
  <path class="st0" d="M146.10446,26.673c-1.55085,1.12789-3.45418,1.79758-5.42799,1.79758-4.47633,0-7.36656-3.20745-7.36656-7.33132s2.89023-7.36657,6.9436-7.36657,6.62639,3.2427,6.62639,7.22558-.0705.88117-.0705.88117h-11.03223c.21148,2.36153,2.15005,4.3001,5.07553,4.3001s3.52467-.70493,5.25177-2.22054v2.67875h0v.03525ZM144.34212,19.83514c-.21148-2.22054-1.83283-3.91239-4.15912-3.91239s-4.15912,2.00906-4.33535,3.91239c0,0,8.49446,0,8.49446,0Z"/>
  <path class="st0" d="M157.27766,16.4162s-.24673-.07049-.70493-.07049c-2.60826,0-4.19436,2.07956-4.19436,5.11078v6.69688h-2.46727v-14.06345h2.43202v2.50252c.63444-1.62135,2.46727-2.714,4.30011-2.714s.5992.07049.5992.07049v2.50252h0l.03524-.03525Z"/>
  <path class="st0" d="M162.38844,7.8865v20.26687h-2.50252V7.8865h2.50252Z"/>
  <path class="st0" d="M167.81643,11.62265c-.91642,0-1.69184-.74018-1.69184-1.69184s.74018-1.69184,1.69184-1.69184,1.69184.74018,1.69184,1.69184-.74018,1.69184-1.69184,1.69184ZM169.08532,14.08992v14.06345h-2.50252v-14.06345h2.50252Z"/>
  <path class="st0" d="M175.71171,19.6589l5.92145-5.60423h3.17221l-6.41491,5.99194,6.94361,8.0715h-3.17221l-5.53374-6.52064-.95167.88117v5.63948h-2.46727V7.8865h2.46727v11.77241h.03526Z"/>
  <path class="st0" d="M198.3401,26.673c-1.55085,1.12789-3.45418,1.79758-5.42799,1.79758-4.47634,0-7.36656-3.20745-7.36656-7.33132s2.89024-7.36657,6.94361-7.36657,6.62638,3.2427,6.62638,7.22558-.0705.88117-.0705.88117h-11.03222c.21148,2.36153,2.15005,4.3001,5.07553,4.3001s3.52467-.70493,5.25176-2.22054v2.67875h0v.03525ZM196.57777,19.83514c-.21148-2.22054-1.83283-3.91239-4.15911-3.91239s-4.15911,2.00906-4.33534,3.91239h8.49446-.00001Z"/>
  <path class="st0" d="M202.42873,17.72033h-.74018v-2.53776h-.91642v-.74018h2.60826v.74018h-.91642v2.53776h-.03524ZM206.69358,15.64078l-.81067,1.23364h-.42297l-.81067-1.23364v2.04431h-.74018v-3.2427h.84592l.91642,1.44512.91642-1.44512h.81067v3.2427h-.74018v-2.07956l.03525.03525Z"/>
</svg>