<?xml version="1.0" encoding="UTF-8"?>
<svg id="Layer_1" xmlns="http://www.w3.org/2000/svg" width="100" height="37.53003" version="1.1" viewBox="0 0 100 37.53003">
  <!-- Generator: Adobe Illustrator 30.6.0, SVG Export Plug-In . SVG Version: 2.1.4 Build 109)  -->
  <defs>
    <style>
      .st0 {
        fill: #282828;
      }
    </style>
  </defs>
  <g>
    <path class="st0" d="M12.57376,18.30835c-.20607.07975-.3086.31125-.22899.51731.08598.22742.35911.32235.57033.20535.88939-.46959,2.01122-.33611,2.88642.10626.30115.17977.57979-.27213.28309-.45942-1.04344-.63933-2.36416-.85951-3.51085-.3695Z"/>
    <path class="st0" d="M20.81251,20.77089c.03253-.25063.01655-.51051-.04578-.76938-.00487-.02021-.00451-.04041-.01003-.06062-.01963-.07215-.06642-.12933-.12625-.16358-.09898-.0566-.23338-.05078-.34079.05399-.03583.03495-.05379.08477-.05379.13483v.11591q0,.00007,0,.00014c.0288.10604.04614.21259.05281.3182.04643.73957-.43148,1.4368-1.17406,1.63835-.84812.22742-1.72626-.27306-1.9564-1.12125-.03934-.14445-.18837-.22985-.33109-.18973-.1438.03883-.22878.18708-.1898.33074h0v.00014c.1936.71292.72861,1.24377,1.3812,1.46381.21753.07337.4481.1122.6834.1117h.00007c.18307-.00043.36907-.0245.55393-.07495.6321-.17139,1.11222-.61562,1.36837-1.1679.07538-.16243.13234-.33253.16508-.51043.00681-.03704.01827-.07251.02314-.10998Z"/>
    <path class="st0" d="M38.0356,9.82334C36.06314,3.8397,29.74863-.01607,21.94759.00005c-2.49758.00516-5.01034.41471-7.46751,1.21698C8.71812,3.09927,4.03622,6.90095,1.63494,11.64755-.1217,15.1195-.47063,18.71375.62611,22.04118c1.23955,3.76114,4.1858,6.69675,8.20491,8.34942.19721.08109.32803.27067.32845.4839l.00289,1.46458s-.01841,4.7241,3.19953,4.8199c.09709.00774-.66319-2.21814-.69665-3.12222.3786,1.58619,1.30575,3.32184,2.3014,3.44794.81319.13403,1.55848-.05669,1.99541-.21442.16752-.06047.19496-.28635.04535-.38298-.64759-.41826-1.99532-1.45454-2.49179-3.09143,1.84427-.61633,3.67099-1.76961,4.10619-3.94097.01619-.16952.19639-.26346.34177-.17483.70571.43068,1.19518,1.12454,1.47119,1.60389.10804.18763.38334.16688.46122-.03514.28679-.74401.90416-2.0272,1.92473-2.64206.14552-.08763.32508.00695.33876.17619.38813,2.4167,2.10188,3.82828,3.74267,4.64021l1.03961.44708c1.25954.46565,2.2698.58997,2.2698.58997l.0865-.00019c.11633-.00025.21044-.09476.2102-.21109l-.01194-5.79963c-.00037-.17959.09237-.34572.24385-.4422,3.17193-2.02026,5.72188-4.69607,7.28726-7.79049,1.75629-3.47166,2.10486-7.06584,1.00819-10.39327ZM15.86995,28.00859c-.83676.62419-1.96092.88355-3.13531.54073-1.10787-.3234-1.98033-1.2028-2.30378-2.31066-.16-.548-.1876-1.08464-.10805-1.58616.07333-.4623.65451-.62776.96183-.27471l.13685.15721c.01931.02214.02664.05253.01931.08097-.04887.18963-.08227.38512-.08187.58983.00272,1.3352,1.09152,2.41948,2.42686,2.41676.49654-.00106.953-.15845,1.33575-.41827.11049-.075.24778-.09855.37634-.06238l.22979.06465c.36419.10246.44553.57582.14228.80203ZM18.39346,26.58752c-5.34173-.30358-6.98452-3.9275-7.05122-4.07975l-.08505-.1984-.19826-.08498c-1.116-.47886-2.36447-1.707-3.14521-2.56266-.20214-.22153-.118-.57632.16189-.68399,1.17615-.45246,2.72979-.26193,2.73233-.26162.00006,0,0-.00005,0-.00011l.01103-.51957c.00566-.27611.23024-6.66209,7.55391-7.42631.0011-.00012.00208.00075.00207.00186-.01829,2.35625.88006,4.72783,3.02965,5.86849.09875.0524.12679.17899.06566.27259-.19981.30592-.26122.70898-.07687,1.12961.10967.25023.31353.45305.56656.55608.84119.34252,1.64271-.26782,1.6411-1.06408v-.00243c-.00065-.11649.09745-.21077.21362-.2021,1.60573.11991,3.28275-.30387,4.76905-1.01746.3047-.00542,1.63343.0018,2.93049.43779.25587.08601.36701.38791.22827.61947-.64721,1.08021-1.99217,2.93212-4.25599,4.36836l-.00009.00006c-.07117.04523-.13073.10655-.17388.179h0c-.30616.51244-3.15031,4.98863-8.91907,4.67015ZM22.5258,15.96174c-2.35143-.77507-3.21563-3.27204-3.08909-5.55483.00005,0,.00003,0,.00003,0,.17715,2.72651,2.44463,4.88084,5.21449,4.87508.95212-.00196,1.84231-.2615,2.60953-.70902.1201-.07005.27427-.02571.33943.09712.10366.19537.19469.36588.26387.49305.0692.12721.01275.28493-.12033.34203-1.66434.71419-3.56316,1.00199-5.21793.45656ZM35.89864,19.65932c-1.24992,2.47042-3.17344,4.67024-5.57388,6.44305-.34477.25463-.83332.00906-.83421-.41954l-.00832-4.03436c2.31219-1.6158,3.4433-4.00907,3.794-4.87333.07812-.19252.00675-.4125-.1703-.52124-.6051-.37165-2.0906-1.13412-3.93586-1.01405l-.00047-.00034c-.61224-2.48001-2.13095-4.5982-4.18993-5.98363-.05539-.03754-.11335-.07158-.16952-.10812-.16343-.10547-.32701-.21008-.49675-.30623-.14824-.08462-.30165-.16078-.45455-.23809-.08756-.04371-.17268-.09128-.26167-.13262-1.29085-.60508-2.72936-.94549-4.2482-.94234-.00695,0-.01369.00107-.02064.00107-.00802,0-.01598-.001-.024-.001l-.03102.00007c-5.56467.01146-10.06879,4.50073-10.12199,10.05018,0,.00042-.00033.00076-.00075.00077-1.37219.06162-2.39809.76374-2.87776,1.16583-.17658.14802-.20448.40819-.06152.58889.48441.6123,1.64515,1.99955,2.93128,2.96103h0s.01187,6.04141.01187,6.04141c.00076.38616-.40397.64077-.75118.47175-3.20553-1.56049-5.54191-4.05155-6.56684-7.1611-.99328-3.01417-.67279-6.27919.92722-9.4419C5.00844,7.76856,9.4238,4.20175,14.87766,2.42032c2.34009-.76458,4.72926-1.15464,7.10138-1.15958,7.22025-.0149,13.04804,3.50096,14.84646,8.95697.99364,3.01417.67251,6.27891-.92686,9.44161Z"/>
    <path class="st0" d="M20.35367,35.50079c-.22877.23409-.35211.41873-.45313.6096-.09045.1709-.33914.1709-.42959,0-.10102-.19087-.22436-.37551-.45311-.60959-.16143-.16518-.36288-.2976-.5444-.39634-.17024-.09261-.17024-.33638,0-.42899.18152-.09875.38298-.23116.54441-.39633.22874-.23409.35209-.41873.45311-.60959.09045-.1709.33914-.1709.42959,0,.10102.19087.22436.37551.45313.6096.16143.16517.36288.29758.5444.39633.17024.09262.17024.33637,0,.42899-.18151.09875-.38296.23116-.54439.39635Z"/>
  </g>
  <g>
    <path class="st0" d="M49.48039,23.11094c1.72416,0,3.0216-3.54058,3.0216-6.18353,0-.25949-.04613-.42479-.21144-.42479s-.30754.0692-.54397.0692c-.44786,0-.77847-.42479-.73041-1.08505.04613-1.1331.8246-1.7232,1.58-1.7232.92071,0,1.29937.77847,1.2763,2.45457-.04805,3.54058-1.41662,8.71114-5.21861,8.71114-1.60499,0-2.691-.7554-2.36039-3.51752l.70927-5.57132v-.02403l-.70927.37866c-.42479.18837-.68428-.18933-.68428-.70831,0-.09869.01037-.19759.02862-.28223.02632-.1221.11061-.22346.22287-.27822l1.75523-.85616c.37866-.1653.61316-.25949.89764-.25949.54204,0,.89572.51898.7554,1.69917l-.66122,5.2657c-.14224,1.18019-.14224,2.3354.87265,2.3354Z"/>
    <path class="st0" d="M62.72778,22.47471c.44978-.21336.70927.1653.70927.68428,0,.02353-.00029.04708-.00093.07048-.00674.24664-.15685.46686-.37967.57282l-1.62612.77331c-.37866.18837-.61316.28255-.92071.28255-.47285,0-.84959-.42479-.70735-1.62805l.04613-.54397h-.02307c-.47285.92071-1.41662,2.24314-2.83323,2.24314-1.48774,0-2.45457-1.20326-2.45457-3.87119,0-4.34404,2.00671-7.34258,4.34404-7.34258.9899,0,1.55693.51994,1.91061,1.11004h.02499c.06714-.50022.49399-.87361.9987-.87361h.19814c.60508,0,1.07372.52952,1.00018,1.13012l-.9457,7.72326v.02307l.65929-.35367ZM59.44669,15.08505c-1.67611,0-2.54876,3.21094-2.54876,6.11529,0,1.43968.28255,2.12396,1.01489,2.12396.92071,0,2.00671-1.46467,2.24314-3.20997l.49463-3.93863c.01691-.13462-.00461-.27296-.07009-.39179-.22836-.4144-.60002-.69886-1.13381-.69886Z"/>
    <path class="st0" d="M64.92863,16.17202c-.44786.21144-.73041-.16627-.73041-.68524v-.00637c.0003-.26496.1522-.50637.39093-.6213l1.63885-.78895c.37674-.18933.61316-.25949.87265-.25949.49591,0,.89764.47189.7554,1.69917l-.68428,5.35989c-.18837,1.62805.07112,2.28927.70927,2.28927.94377,0,1.84141-1.3455,2.02978-2.92742l.67673-5.28156c.07136-.55689.54537-.97405,1.10682-.97405h0c.67017,0,1.18917.58656,1.10756,1.25174l-.93245,7.60068v.02307l.66122-.33061c.42479-.21144.73234.1653.73234.70927,0,.08269-.01202.18317-.03583.27162-.03002.11153-.11184.20195-.21565.25259l-1.7783.86742c-.37866.1653-.61508.28448-.92071.28448-.47102,0-.75321-.49209-.66229-1.68526.00068-.00897.00107-.01835.00107-.02736v-.45941s-.02499,0-.02499,0c-.80153,1.39163-1.79336,2.19508-2.9255,2.19508-1.2763,0-2.10282-1.10907-1.79528-3.56365l.68428-5.52519v-.02403l-.66122.3556Z"/>
    <path class="st0" d="M78.15295,23.159v.00634c-.00062.27948-.16167.53378-.41406.65381l-1.59073.75647c-.3556.1653-.5901.28255-.87457.28255-.49591,0-.92071-.40173-.7554-1.67611l1.54721-12.51573c.03069-.24828-.16298-.46737-.41315-.46737h0c-.30754,0-.49591-.23642-.49591-.61412,0-.25889.05134-.45335.11381-.5902.06665-.14602.21542-.23633.37594-.23633h1.37301c.79105,0,1.40325.69307,1.30561,1.47808l-1.56338,12.56893v.02307l.66122-.35367c.49591-.18837.73041.18837.73041.68428Z"/>
    <path class="st0" d="M80.56524,15.76933l-.66122.33061c-.44978.18933-.73234-.14128-.73234-.63719,0-.13077.02176-.24684.05324-.3404.03529-.10486.11224-.18993.21168-.23844l1.76486-.86085c.37866-.18933.61508-.28352.89764-.28352.49591,0,.92071.30658.77847,1.5108l-1.03737,8.46524c-.06838.55796-.54221.97727-1.10434.97727h0c-.66792,0-1.18532-.58437-1.10441-1.24738l.93379-7.65213v-.02403ZM82.19329,9.01781c.94377,0,1.36856.51994,1.36856,1.27534,0,.80249-.54204,1.48678-1.48581,1.48678-.92071,0-1.3455-.49591-1.3455-1.29841s.54204-1.46371,1.46275-1.46371Z"/>
    <path class="st0" d="M86.27976,24.92929c-1.22825,0-2.07783-1.06294-1.77029-3.56365l.68428-5.50117v-.02403l-.66122.35463c-.44786.21336-.73234-.1653-.73234-.68524,0-.12869.01764-.24857.0525-.34936.03478-.10057.11209-.18052.20773-.22717l1.76956-.86315c.37866-.1653.61508-.25949.89764-.25949.49591,0,.84959.47189.70927,1.69917l-.66122,5.38295c-.19029,1.65304.0692,2.2662.70735,2.2662.99182,0,1.86448-1.43968,2.02978-2.92742l.67829-5.28106c.07157-.55722.54592-.97455,1.10772-.97455h0c.67017,0,1.18944.58611,1.10868,1.2514l-.9341,7.6952c-.64323,4.57715-3.21883,5.15883-5.29667,5.15883-1.27438,0-2.24314-.56703-2.24314-1.41662,0-.40173.23642-.70927.5901-.70927.54397,0,.80345.37866,1.53579.37866,1.41662,0,2.86701-.42085,3.19385-3.59997h-.02307c-.80345,1.41662-1.79336,2.19508-2.95049,2.19508Z"/>
    <path class="st0" d="M97.61655,13.57424c1.55693,0,2.38345.73137,2.38345,1.62901,0,.44882-.21144.73137-.63815.73137-.77847,0-.63623-1.03796-1.86448-1.03796-.68428,0-1.27438.56607-1.27438,1.46371,0,1.88754,3.51752,1.46275,3.51752,4.72078,0,2.55068-1.98365,3.94231-3.96538,3.94231-1.91253,0-2.83323-1.10907-2.83323-2.21815,0-.61508.33061-.87457.70735-.87457.92071,0,.78039,1.58192,2.38538,1.58192.7554,0,1.46275-.5901,1.46275-1.72224,0-2.2662-3.51752-1.60499-3.51752-4.81688,0-1.67611,1.32243-3.39931,3.63669-3.39931Z"/>
  </g>
</svg>