<?xml version="1.0" encoding="UTF-8"?>
<svg id="Layer_1" xmlns="http://www.w3.org/2000/svg" width="17" height="15" version="1.1" viewBox="0 0 17.89033 15">
  <!-- Generator: Adobe Illustrator 30.6.0, SVG Export Plug-In . SVG Version: 2.1.4 Build 109)  -->
  <defs>
    <style>
      .st0 {
        fill: #282828;
      }
    </style>
  </defs>
  <path class="st0" d="M10.46914,8.83693c-.57315.58647-.85627,1.03692-1.10039,1.51952-.17701.34994-.67013.34994-.84714,0-.24411-.4826-.52725-.93304-1.10034-1.51952-.41188-.42146-.93796-.74942-1.38693-.98102-.33706-.17387-.33706-.65151,0-.82539.44898-.23161.97506-.55957,1.38694-.98099.57309-.58647.85623-1.03692,1.10034-1.51952.17701-.34994.67012-.34995.84714,0,.24412.4826.52724.93305,1.10039,1.51952.41188.42142.93795.74938,1.38691.981.33705.17388.33704.65151,0,.82538-.44896.23161-.97502.55957-1.3869.98103Z"/>
  <path class="st0" d="M6.53546,15c-.02584,0-.05206-.00186-.07836-.00566-3.03818-.43778-5.40646-2.26035-6.18071-4.75647-.59093-1.90488-.22733-3.97291,1.02377-5.82311,1.22564-1.81261,3.16427-3.20284,5.45859-3.9145,2.29433-.71166,4.6794-.66264,6.71577.13821,2.07848.81742,3.54854,2.31663,4.1394,4.22156.59093,1.90488.22733,3.97291-1.0237,5.82311-1.22571,1.81261-3.16427,3.2028-5.45859,3.91446-.2876.08934-.5926-.07156-.68175-.35893s.07152-.5926.35889-.68172c2.05872-.63858,3.79137-1.87593,4.87884-3.48417,1.06208-1.57066,1.37658-3.30731.88567-4.88997s-1.73304-2.83642-3.49754-3.53034c-1.80669-.71052-3.93548-.75016-5.99412-.11157-2.05872.63858-3.79137,1.87596-4.87884,3.4842-1.06208,1.57069-1.37666,3.30731-.88575,4.88997.64846,2.09056,2.67754,3.6236,5.29541,4.00084.29786.0429.50444.3191.46157.61692-.03914.27145-.27209.46716-.53856.46716Z"/>
</svg>