<?xml version="1.0" encoding="utf-8"?>
<!-- Generator: Adobe Illustrator 27.5.0, SVG Export Plug-In . SVG Version: 6.00 Build 0)  -->
<svg version="1.1" id="Layer_1" xmlns="http://www.w3.org/2000/svg" xmlns:xlink="http://www.w3.org/1999/xlink" x="0px" y="0px"
	 viewBox="0 0 74 70.4" style="enable-background:new 0 0 74 70.4;" xml:space="preserve">
<style type="text/css">
	.st0{fill:#212121;}
</style>
<path class="st0" d="M42.8,27.4V34h-3V0c0.5,0,0.9,0,1.4,0c6.3,0,12.6,0,18.9,0C66.6,0,72,4.2,73.7,10.6c1.5,5.8-1.4,12.1-6.9,15.2
	c-2.2,1.2-4.5,1.6-7,1.6c-5.1,0-10.1,0-15.2,0C44.1,27.4,43.6,27.4,42.8,27.4z M42.9,24.3c0.3,0,0.6,0.1,0.8,0.1
	c5.6,0,11.2,0.1,16.8,0c5.9-0.1,10.5-4.8,10.5-10.6c0-5.8-4.7-10.6-10.5-10.7c-5.6-0.1-11.2,0-16.8,0c-0.2,0-0.4,0.1-0.7,0.1
	L42.9,24.3L42.9,24.3z"/>
<path class="st0" d="M2.8,59.8v10.6H0V41.9h2.7c0,0.8,0.1,1.6,0.1,2.7c3.1-2.8,6.5-4,10.4-3.2c2.7,0.5,4.9,2,6.5,4.2
	c3.3,4.3,2.9,10.4-0.9,14.4C15.7,63.2,9,65.2,2.8,59.8L2.8,59.8z M10.9,44c-4.5,0-8.2,3.6-8.2,8.1c0,4.5,3.8,8.3,8.3,8.2
	c4.4,0,8.1-3.7,8.1-8.1C19.2,47.7,15.5,44,10.9,44L10.9,44z"/>
<path class="st0" d="M28.3,53.7c0.5,2.8,2.1,4.7,4.6,5.9c3.3,1.6,7.5,0.6,9.7-2.4c0.8-1.1,1.6-1.3,2.7-0.7c0.2,0.1,0.5,0.2,1,0.3
	c-1.1,2.5-2.9,4.2-5.2,5.3c-6,2.8-12.9,0-15.2-6.3c-2.2-6,1.3-12.5,7.7-14.3c6-1.7,12.5,2.4,13.7,8.7c0.6,3.2,0.4,3.4-2.8,3.4
	c-5.2,0-10.4,0-15.6,0C28.7,53.6,28.6,53.6,28.3,53.7L28.3,53.7z M28.4,50.6h15.8c-0.3-3.7-4-6.6-8-6.6C32.2,44,28.6,47,28.4,50.6
	L28.4,50.6z"/>
<path class="st0" d="M54.1,62.5h-2.7V41.9H54c0,0.5,0.1,1,0.1,1.7c0.4-0.2,0.6-0.4,0.9-0.6c3.4-2.5,7.1-3,10.9-1.2
	c3.8,1.9,5.7,5,5.7,9.2c0,3.8,0,7.6,0,11.5h-2.8c0-0.4-0.1-0.9-0.1-1.4c0-3.4,0-6.7,0-10.1c-0.1-3.6-2.4-6.6-5.8-7.3
	c-3.3-0.7-6.7,0.9-8.1,4.1c-0.5,1-0.7,2.3-0.7,3.4C54,55,54.1,58.7,54.1,62.5L54.1,62.5z"/>
<path class="st0" d="M31.9,0.1c0.7,0.7,1.4,1.5,2.1,2.2c-4.6,4.6-9.1,9.2-13.8,13.9c-0.7-0.8-1.3-1.6-2-2.3
	C22.7,9.4,27.3,4.8,31.9,0.1z"/>
<path class="st0" d="M15.8,14.1c-0.6,0.6-1.3,1.3-2,2C9.2,11.4,4.7,6.9,0.2,2.3c0.6-0.6,1.3-1.3,2-2C6.7,4.8,11.2,9.4,15.8,14.1z"/>
<path class="st0" d="M2.1,34.1c-0.7-0.7-1.4-1.5-2-2.2c4.6-4.6,9.2-9.1,13.8-13.8c0.6,0.7,1.3,1.4,2,2.2
	C11.4,24.8,6.8,29.4,2.1,34.1z"/>
<path class="st0" d="M33.9,31.9c-0.7,0.7-1.4,1.5-2.1,2.2c-4.6-4.7-9.2-9.2-13.7-13.8c0.7-0.6,1.4-1.4,2.2-2
	C24.8,22.8,29.4,27.3,33.9,31.9L33.9,31.9z"/>
</svg>
