<?xml version="1.0" encoding="utf-8"?>
<!-- Generator: Adobe Illustrator 27.5.0, SVG Export Plug-In . SVG Version: 6.00 Build 0)  -->
<svg version="1.1" id="Layer_1" xmlns="http://www.w3.org/2000/svg" xmlns:xlink="http://www.w3.org/1999/xlink" x="0px" y="0px"
	 viewBox="0 0 85.7 47" style="enable-background:new 0 0 85.7 47;" xml:space="preserve">
<style type="text/css">
	.st0{fill-rule:evenodd;clip-rule:evenodd;fill:#212121;}
</style>
<g id="surface1">
	<g>
		<path class="st0" d="M0,35.3c1.2,0,2.5,0,3.8,0c0,1.5,0,3,0,4.5c3.4,0,6.7,0,10.1,0c0-1.5,0-3,0-4.5c1.2,0,2.5,0,3.8,0
			c0,3.9,0,7.8,0,11.7c-1.2,0-2.5,0-3.8,0c0-1.5,0-3,0-4.5c-3.4,0-6.7,0-10.1,0c0,1.5,0,3,0,4.5c-1.2,0-2.5,0-3.8,0
			C0,43.1,0,39.2,0,35.3"/>
		<path class="st0" d="M20.6,46.5c0-3.7,0-7.5,0-11.2c1.3,0,2.5,0,3.8,0v8.6c1,0.4,2.1,0.4,3.2,0.5c1.8,0.1,3.6,0,5.4-0.1
			c0.5-0.1,1.1-0.1,1.6-0.3c0-2.9,0-5.7,0-8.6c1.3,0,2.5,0,3.8,0c0,3.9,0,7.8,0,11.6c-1.2,0-2.5,0-3.7,0c0-0.5,0-1,0-1.5
			c-2.3,0.8-4.8,1.2-7.2,1.3C25,47,22.8,46.8,20.6,46.5"/>
		<path class="st0" d="M41.2,35.3c1.2,0,2.5,0,3.8,0c0,3.9,0,7.8,0,11.7c-1.2,0-2.5,0-3.8,0C41.2,43.1,41.2,39.2,41.2,35.3"/>
		<path class="st0" d="M49.1,36.6c1.5-0.5,3-1.3,4.6-1.3c2.6,0,5.1,0,7.7,0c0.8,0,1.5,0,2.2,0.3c1,0.3,2,0.7,3.1,1
			c0,3.1,0,6.1,0,9.2c-1.1,0.3-2.1,0.7-3.1,1c-0.8,0.2-1.7,0.2-2.6,0.2h-5.9c-2.1,0-4-0.7-6-1.1C49.1,42.7,49.1,39.7,49.1,36.6
			L49.1,36.6z M52.6,37.8c0,2.2,0,4.4,0,6.6c3.5,0,7,0,10.5,0c0-2.2,0-4.4,0-6.6C59.6,37.8,56.1,37.8,52.6,37.8"/>
		<path class="st0" d="M69.6,35.3c1.7,0,3.4,0,5.2,0c2.4,2.8,4.8,5.5,7.2,8.2c0-2.7,0-5.5,0-8.2c1.2,0,2.5,0,3.7,0
			c0,3.9,0,7.8,0,11.7c-1.7,0-3.4,0-5.1,0c-1.9-2.1-3.9-4.2-5.8-6.4c-0.5-0.6-1-1-1.5-1.7c0,2.6,0,5.3,0,7.9
			c-0.1,0.2-0.4,0.1-0.6,0.1c-1,0-2.1,0-3.1,0C69.6,43.1,69.6,39.2,69.6,35.3"/>
	</g>
	<g>
		<path class="st0" d="M42.3,0.4c0.1-0.2,0.3-0.3,0.5-0.4c0.2,0.1,0.5,0.2,0.6,0.5c2.5,4.9,5,9.8,7.6,14.6c0.2,0.3,0.3,0.6,0.3,1
			c0,2.6,0,5.2,0,7.8c0,0.3-0.3,0.5-0.6,0.5c-5.3,0-10.6,0-15.9,0c-0.2,0-0.5-0.1-0.5-0.4c0-2.8,0-5.7,0-8.5
			C37.1,10.5,39.7,5.4,42.3,0.4L42.3,0.4z M41.2,5.9c-0.3,0.2-0.4,0.6-0.5,0.9c-1.4,2.8-2.9,5.6-4.3,8.3c-0.1,0.2-0.1,0.4-0.1,0.5
			c4.4,0,8.9,0.1,13.3,0c-1.7-3.3-3.5-6.5-5.2-9.8C43.4,5.8,42.3,5.8,41.2,5.9"/>
		<path class="st0" d="M19.5,10.1c0.3,0,0.5,0,0.8,0.1c3.3,1.4,6.7,2.7,10,4c1,0.4,2,0.8,2.9,1.3c0.3,0.6,0.2,1.3,0.2,1.9
			c0,2.2,0,4.5,0,6.8c-0.6,0.2-1.2,0.1-1.9,0.1c-2.2,0-4.4,0-6.6,0c-0.2-0.2-0.4-0.4-0.5-0.6c-1.7-4.4-3.5-8.7-5.2-13.1
			C19.3,10.4,19.4,10.3,19.5,10.1z M23.7,13.1c-0.4,0.5-1,1-1.4,1.5c-0.2,0.2,0,0.4,0,0.6c1,2.7,2.1,5.4,3.1,8.1c0.1,0,0.2,0,0.3,0
			c2.2-2.3,4.5-4.5,6.7-6.8c-2.3-1-4.7-1.9-7-2.9C24.9,13.5,24.3,13.1,23.7,13.1"/>
		<path class="st0" d="M65.4,10.3c0.3-0.1,0.6-0.1,0.9-0.2c0.2,0.3,0.2,0.7,0,1c-1.7,4.2-3.4,8.5-5,12.7c-0.1,0.2-0.3,0.4-0.5,0.5
			c-2.6,0-5.1,0-7.7,0c-0.3,0-0.8,0-0.7-0.5c0-2.6,0-5.1,0-7.7c0-0.5,0.4-0.9,0.9-1.1C57.3,13.5,61.4,12,65.4,10.3z M60.8,13.5
			c-2.5,1-4.9,2-7.4,3c0.2,0.4,0.6,0.7,0.9,1c1.8,1.8,3.6,3.6,5.5,5.5c0.1,0.2,0.4,0.2,0.6,0.2c1.1-2.7,2.1-5.4,3.2-8
			c0-0.1,0.2-0.3,0-0.4c-0.5-0.6-1.1-1.1-1.6-1.6C61.6,13.1,61.2,13.3,60.8,13.5"/>
		<path class="st0" d="M24.9,25.5c0.8-0.2,1.6,0,2.4-0.1c1.3-0.1,2.6,0,4,0c9.6,0,19.3,0,28.9,0c0.3,0,0.6,0.1,0.8,0.1
			c0.3,0.4,0.3,0.9,0,1.2c-0.3,0-0.5,0.1-0.8,0.1c-11.1,0-22.3,0-33.5,0c-0.6,0-1.2,0-1.8-0.1C24.6,26.4,24.5,25.9,24.9,25.5"/>
	</g>
</g>
</svg>
