<?xml version="1.0" encoding="utf-8"?>
<!-- Generator: Adobe Illustrator 27.5.0, SVG Export Plug-In . SVG Version: 6.00 Build 0)  -->
<svg version="1.1" id="Layer_1" xmlns="http://www.w3.org/2000/svg" xmlns:xlink="http://www.w3.org/1999/xlink" x="0px" y="0px"
	 viewBox="0 0 149.5 45.4" style="enable-background:new 0 0 149.5 45.4;" xml:space="preserve">
<style type="text/css">
	.st0{fill:#212121;}
</style>
<g id="layer1">
	<path id="path3008" class="st0" d="M0,32.1V0.7h5.5v31.4C5.5,32.1,0,32.1,0,32.1z"/>
	<path id="path3010" class="st0" d="M19.7,9.3c-7.1,0-12,5.4-12,11.7c0,7,5.3,11.7,12,11.7S31.6,28,31.6,20.9
		C31.6,15,27,9.3,19.7,9.3L19.7,9.3L19.7,9.3z M19.6,14.6c3.7,0,6.4,2.9,6.4,6.4c0,3.7-3,6.4-6.3,6.4c-3.9,0-6.4-3.1-6.4-6.4
		C13.3,17.4,16.1,14.6,19.6,14.6z"/>
	<path id="path3012" class="st0" d="M45.5,9.3c-7.1,0-12,5.4-12,11.7c0,7,5.3,11.7,12,11.7S57.4,28,57.4,20.9c0-4.2-1.8-6-1.8-6
		l1.5-0.5V9.9h-7.8C49.3,9.9,47.6,9.3,45.5,9.3L45.5,9.3L45.5,9.3z M45.4,14.6c3.7,0,6.4,2.9,6.4,6.4c0,3.7-3,6.4-6.3,6.4
		c-3.9,0-6.4-3.1-6.4-6.4C39.1,17.4,41.9,14.6,45.4,14.6C45.4,14.6,45.4,14.6,45.4,14.6z"/>
	<path id="path3014" class="st0" d="M51.8,33.6c0,3.7-3,6.4-6.3,6.4c-3.9,0-6.4-3.1-6.4-6.4h-5.6c0,7,5.3,11.7,12,11.7
		s11.9-4.7,11.9-11.7C57.4,33.6,51.8,33.6,51.8,33.6z"/>
	<path id="path3016" class="st0" d="M59.6,32.1V9.9h5.5v22.1H59.6z"/>
	<path id="path3018" class="st0" d="M70.5,32.1V14.9h-3v-5h3V3.2H76V10h3v5h-3v17.2C76,32.1,70.5,32.1,70.5,32.1z"/>
	<path id="path3020" class="st0" d="M66,3.7c0,2-1.6,3.7-3.7,3.7s-3.7-1.6-3.7-3.7S60.3,0,62.4,0S66,1.6,66,3.7z"/>
	<path id="path3022" class="st0" d="M91.5,9.3c-7.1,0-11.7,5.4-11.7,11.9s4.6,11.6,11.8,11.6c6.7,0,10-4.2,10-4.2l-3.7-3.7
		c0,0-2.8,3-6.3,3c-2.9,0-5.2-1.6-6.1-4.6h17.2v-1.5C102.8,15.6,99.3,9.3,91.5,9.3L91.5,9.3z M91.3,14.1c2.5,0,5.2,1.4,5.7,4.6H85.5
		C85.9,16.5,87.9,14.1,91.3,14.1L91.3,14.1L91.3,14.1z"/>
	<path id="path3024" class="st0" d="M116.6,32.7c-7.1,0-12-5.4-12-11.8s5.5-11.6,12-11.6s9.5,4.4,9.5,4.4l-3.8,3.8
		c0,0-2.2-2.9-5.6-2.9c-3.8,0-6.4,2.9-6.4,6.3c0,3.6,2.8,6.4,6.3,6.4s5.7-2.9,5.7-2.9l3.9,3.8C126.1,28.3,123,32.7,116.6,32.7
		L116.6,32.7L116.6,32.7z"/>
	<path id="path3026" class="st0" d="M128.1,32.1V0.6h5.5v11.6c0,0,2.1-2.9,6.7-2.9c5.8,0,9.1,4.3,9.1,9.8v13H144V19.9
		c0-3.7-2.3-5.2-4.9-5.2c-2.9,0-5.5,1.6-5.5,5.5v11.9L128.1,32.1L128.1,32.1z"/>
</g>
</svg>
