<?xml version="1.0" encoding="UTF-8"?><svg id="Layer_1" xmlns="http://www.w3.org/2000/svg" viewBox="0 0 149.5 45.38"><defs><style>.cls-1{fill:#010101;}</style></defs><g id="layer1"><path id="path3008" class="cls-1" d="m0,32.1V.66h5.52v31.44H0Z"/><path id="path3010" class="cls-1" d="m19.66,9.3c-7.08,0-11.98,5.44-11.98,11.67,0,6.95,5.33,11.74,12.03,11.74s11.88-4.7,11.88-11.76c0-5.93-4.58-11.66-11.94-11.66h0Zm-.07,5.33c3.71,0,6.43,2.88,6.43,6.37,0,3.69-3.01,6.39-6.33,6.39-3.93,0-6.4-3.11-6.4-6.38,0-3.58,2.79-6.38,6.3-6.38Z"/><path id="path3012" class="cls-1" d="m45.47,9.3c-7.08,0-11.98,5.44-11.98,11.67,0,6.95,5.33,11.74,12.03,11.74s11.88-4.7,11.88-11.76c0-4.16-1.8-6-1.8-6l1.53-.52v-4.48h-7.84s-1.7-.65-3.83-.65h0Zm-.07,5.33c3.71,0,6.43,2.88,6.43,6.37,0,3.69-3.01,6.39-6.33,6.39-3.93,0-6.4-3.11-6.4-6.38,0-3.58,2.79-6.38,6.3-6.38h0Z"/><path id="path3014" class="cls-1" d="m51.8,33.64c0,3.69-3.01,6.41-6.33,6.41-3.93,0-6.41-3.14-6.41-6.41h-5.6c0,6.95,5.33,11.74,12.03,11.74s11.88-4.69,11.88-11.74h-5.57Z"/><path id="path3016" class="cls-1" d="m59.62,32.1V9.95h5.52v22.15h-5.52Z"/><path id="path3018" class="cls-1" d="m70.51,32.1V14.91h-2.96v-4.96h2.96V3.15h5.52v6.8h3.04v4.96h-3.04v17.19h-5.52Z"/><path id="path3020" class="cls-1" d="m66.03,3.66c0,2.02-1.64,3.66-3.66,3.66s-3.66-1.64-3.66-3.66,1.64-3.66,3.66-3.66,3.66,1.64,3.66,3.66Z"/><path id="path3022" class="cls-1" d="m91.48,9.28c-7.11,0-11.7,5.45-11.7,11.89s4.6,11.56,11.81,11.56c6.73,0,10.04-4.2,10.04-4.2l-3.69-3.7s-2.79,3.01-6.28,3.01c-2.91,0-5.24-1.62-6.05-4.6h17.21v-1.52c0-6.07-3.51-12.43-11.34-12.43Zm-.18,4.86c2.54,0,5.15,1.36,5.73,4.61h-11.56c.46-2.29,2.46-4.61,5.84-4.61h0Z"/><path id="path3024" class="cls-1" d="m116.64,32.73c-7.13,0-11.99-5.43-11.99-11.84s5.49-11.62,11.97-11.62,9.47,4.42,9.47,4.42l-3.85,3.83s-2.23-2.88-5.64-2.88c-3.78,0-6.36,2.89-6.36,6.33,0,3.63,2.75,6.41,6.32,6.41s5.68-2.88,5.68-2.88l3.89,3.83s-3.17,4.39-9.48,4.39h0Z"/><path id="path3026" class="cls-1" d="m128.13,32.12V.58h5.52v11.58s2.11-2.89,6.71-2.89c5.78,0,9.13,4.3,9.13,9.8v13.04h-5.52v-12.21c0-3.69-2.3-5.23-4.85-5.23-2.9,0-5.48,1.65-5.48,5.51v11.92h-5.52Z"/></g></svg>