<?xml version="1.0" encoding="UTF-8"?><svg id="Layer_1" xmlns="http://www.w3.org/2000/svg" viewBox="0 0 81.01 65.77"><defs><style>.cls-1{fill:#55595b;}</style></defs><path class="cls-1" d="m32.4,38.33c-2.15-.89-3.54-2.98-3.54-5.32V5.73c0-3.16,2.57-5.73,5.73-5.73h6.92c8.36,0,15.16,6.8,15.16,15.16,0,7.72-5.97,14.31-13.64,15.08v12.52l-10.62-4.42Zm2.19-8.02c-1.49,0-2.7,1.21-2.7,2.7,0,1.09.67,2.11,1.67,2.52l6.42,2.67v-7.89h-5.4Zm-2.7-2.36c.83-.45,1.76-.68,2.7-.68h5.4v-13.06s-7.58-3.16-7.58-3.16c-.17-.07-.34-.15-.51-.24v17.13Zm2.7-24.92c-1.49,0-2.7,1.21-2.7,2.7,0,1.09.67,2.11,1.67,2.52l9.46,3.94v14.99c6.06-.76,10.6-5.89,10.6-12.02,0-6.68-5.44-12.12-12.12-12.12h-6.92Z"/><path class="cls-1" d="m9.24,51.08c0,2.67-1.94,4.19-4.71,4.19H1.86v6.19H0v-14.6h4.53c2.77,0,4.71,1.54,4.71,4.21Zm-7.38,2.48h2.67c1.67,0,2.84-.92,2.84-2.48s-1.17-2.5-2.84-2.5H1.86v4.99Z"/><path class="cls-1" d="m16.87,54.74c0-1.27-.9-2.04-2.4-2.04-1.38,0-2.4.56-3.44,1.52v-1.88c.92-.75,2.02-1.27,3.48-1.27,2.61,0,4.11,1.44,4.11,3.8v6.57h-1.69v-1.33c-.79,1.02-2.02,1.56-3.36,1.56-1.79,0-3.07-1.23-3.07-2.9,0-1.81,1.15-2.9,3.38-3.27l2.98-.5v-.25Zm-2.96,5.34c1.73,0,2.98-1.13,2.98-2.69v-.86l-2.71.48c-1.21.23-1.88.77-1.88,1.65s.67,1.42,1.61,1.42Z"/><path class="cls-1" d="m21.48,65.77v-14.48h1.77v1.61c.73-1.11,2.11-1.84,3.59-1.84,2.88,0,5.09,2.29,5.09,5.3s-2.21,5.3-5.09,5.3c-1.48,0-2.84-.65-3.59-1.75v5.86h-1.77Zm5.15-13.06c-1.98,0-3.48,1.61-3.48,3.65s1.5,3.65,3.48,3.65,3.48-1.61,3.48-3.65-1.5-3.65-3.48-3.65Z"/><path class="cls-1" d="m42.84,60.37c-1.13.81-2.5,1.29-3.92,1.29-3.23,0-5.32-2.32-5.32-5.3s2.09-5.3,5.01-5.3,4.78,2.34,4.78,5.21c0,.4-.04.65-.04.65h-7.95c.15,1.69,1.54,3.11,3.65,3.11,1.29,0,2.54-.52,3.8-1.61v1.94Zm-1.27-4.92c-.15-1.61-1.33-2.82-3-2.82s-3,1.44-3.13,2.82h6.13Z"/><path class="cls-1" d="m50.87,52.97s-.19-.04-.5-.04c-1.88,0-3.02,1.5-3.02,3.69v4.82h-1.77v-10.14h1.75v1.79c.46-1.17,1.77-1.96,3.11-1.96.25,0,.44.04.44.04v1.79Z"/><path class="cls-1" d="m54.56,46.84v14.6h-1.79v-14.6h1.79Z"/><path class="cls-1" d="m58.49,49.51c-.67,0-1.21-.54-1.21-1.21s.54-1.21,1.21-1.21,1.21.54,1.21,1.21-.54,1.21-1.21,1.21Zm.9,1.79v10.14h-1.79v-10.14h1.79Z"/><path class="cls-1" d="m64.18,55.32l4.26-4.03h2.29l-4.61,4.32,5.01,5.82h-2.27l-3.98-4.71-.69.65v4.07h-1.77v-14.6h1.77v8.49Z"/><path class="cls-1" d="m80.47,60.37c-1.13.81-2.5,1.29-3.92,1.29-3.23,0-5.32-2.32-5.32-5.3s2.09-5.3,5.01-5.3,4.78,2.34,4.78,5.21c0,.4-.04.65-.04.65h-7.95c.15,1.69,1.54,3.11,3.65,3.11,1.29,0,2.54-.52,3.8-1.61v1.94Zm-1.27-4.92c-.15-1.61-1.33-2.82-3-2.82s-3,1.44-3.13,2.82h6.13Z"/></svg>