<?xml version="1.0" encoding="UTF-8"?><svg id="Layer_1" xmlns="http://www.w3.org/2000/svg" viewBox="0 0 296.66 19.59"><defs><style>.cls-1{fill:#010101;}</style></defs><path class="cls-1" d="m14.53.27v3.73H4.66v4.03h7.91v3.62h-7.91v7.74H0V.27h14.53Z"/><path class="cls-1" d="m21.7,15.8h10.27v3.6h-14.93V.27h4.66v15.53Z"/><path class="cls-1" d="m47.01,1.21l-6.62,11.86v6.32h-4.66v-6.32L29.11,1.21h5.29l3.71,7.07,3.68-7.07h5.23Z"/><path class="cls-1" d="m55.44.27v19.13h-4.66V.27h4.66Z"/><path class="cls-1" d="m75.99,19.4h-4.66l-7.79-11.8v11.8h-4.66V.27h4.66l7.79,11.85V.27h4.66v19.13Z"/><path class="cls-1" d="m92.75,6.32c-.35-.64-.84-1.12-1.49-1.46-.65-.34-1.4-.5-2.27-.5-1.51,0-2.72.5-3.62,1.49-.91.99-1.36,2.31-1.36,3.96,0,1.76.48,3.14,1.43,4.13s2.27,1.49,3.94,1.49c1.14,0,2.11-.29,2.9-.87.79-.58,1.37-1.42,1.73-2.51h-5.91v-3.43h10.14v4.33c-.34,1.16-.93,2.24-1.76,3.24-.83,1-1.88,1.81-3.15,2.43-1.27.62-2.71.93-4.3.93-1.89,0-3.57-.41-5.05-1.24-1.48-.83-2.63-1.97-3.46-3.45-.83-1.47-1.24-3.15-1.24-5.04s.41-3.57,1.24-5.05,1.97-2.63,3.45-3.46c1.47-.83,3.15-1.24,5.04-1.24,2.29,0,4.22.55,5.79,1.66.79.55,1.96,1.98,1.96,1.98l-3.99,2.62Z"/><path class="cls-1" d="m121.39,16.02h-7.14l-1.14,3.38h-4.88L115.16.27h5.39l6.92,19.13h-4.93l-1.14-3.38Zm-1.2-3.6l-2.37-7-2.34,7h4.71Z"/><path class="cls-1" d="m141.86,19.4l-3.98-7.22h-1.12v7.22h-4.66V.27h7.82c1.51,0,2.79.26,3.85.79,1.06.53,1.86,1.25,2.38,2.17.53.92.79,1.94.79,3.06,0,1.27-.36,2.41-1.08,3.41-.72,1-1.78,1.71-3.17,2.12l4.41,7.57h-5.26Zm-5.1-10.52h2.89c.85,0,1.49-.21,1.92-.63s.64-1.01.64-1.77-.21-1.3-.64-1.72-1.07-.63-1.92-.63h-2.89v4.74Z"/><path class="cls-1" d="m164.79.27v3.73h-5.07v15.39h-4.66V4.01h-5.07V.27h14.79Z"/><path class="cls-1" d="m178.54,18.91c-1.11-.45-1.99-1.13-2.66-2.02-.66-.89-1.01-1.96-1.05-3.22h4.96c.07.71.32,1.25.74,1.62s.96.56,1.63.56,1.24-.16,1.63-.48c.4-.32.6-.76.6-1.32,0-.47-.16-.86-.48-1.17-.32-.31-.71-.56-1.17-.76-.46-.2-1.12-.43-1.97-.68-1.24-.38-2.24-.76-3.02-1.14-.78-.38-1.45-.94-2.02-1.69-.56-.75-.84-1.72-.84-2.92,0-1.78.64-3.17,1.93-4.18s2.97-1.51,5.04-1.51,3.81.5,5.1,1.51c1.29,1.01,1.98,2.41,2.07,4.21h-5.04c-.04-.62-.26-1.1-.68-1.46-.42-.35-.95-.53-1.61-.53-.56,0-1.02.15-1.36.45s-.52.73-.52,1.29c0,.62.29,1.1.87,1.44.58.34,1.49.72,2.72,1.12,1.24.42,2.24.82,3.01,1.2.77.38,1.44.94,2,1.66.56.73.84,1.66.84,2.81s-.28,2.08-.83,2.97c-.55.89-1.36,1.6-2.41,2.12-1.05.53-2.3.79-3.73.79s-2.65-.23-3.76-.68Z"/><path class="cls-1" d="m206.59.27v3.73h-5.07v15.39h-4.66V4.01h-5.07V.27h14.79Z"/><path class="cls-1" d="m214.84.27v11.44c0,1.14.28,2.03.84,2.64.56.62,1.39.93,2.48.93s1.93-.31,2.51-.93c.58-.62.87-1.5.87-2.64V.27h4.66v11.42c0,1.71-.36,3.15-1.09,4.33-.73,1.18-1.7,2.07-2.93,2.67-1.23.6-2.59.9-4.1.9s-2.86-.3-4.05-.89c-1.19-.59-2.13-1.48-2.82-2.67-.69-1.19-1.04-2.64-1.04-4.35V.27h4.66Z"/><path class="cls-1" d="m243.43,1.47c1.51.8,2.67,1.92,3.5,3.36.83,1.44,1.24,3.11,1.24,5s-.41,3.53-1.24,4.99c-.83,1.45-2,2.58-3.51,3.38-1.52.8-3.27,1.2-5.27,1.2h-7.17V.27h7.17c2.02,0,3.78.4,5.29,1.2Zm-1.47,12.45c.98-.96,1.47-2.32,1.47-4.09s-.49-3.13-1.47-4.11c-.98-.98-2.35-1.47-4.11-1.47h-2.21v11.12h2.21c1.76,0,3.13-.48,4.11-1.44Z"/><path class="cls-1" d="m256.3.27v19.13h-4.66V.27h4.66Z"/><path class="cls-1" d="m264.64,18.34c-1.5-.84-2.69-2-3.57-3.5-.88-1.5-1.32-3.18-1.32-5.05s.44-3.55,1.32-5.04c.88-1.49,2.07-2.65,3.57-3.49,1.5-.83,3.15-1.25,4.95-1.25s3.45.42,4.95,1.25c1.5.84,2.68,2,3.54,3.49.86,1.49,1.29,3.17,1.29,5.04s-.44,3.56-1.31,5.05c-.87,1.5-2.05,2.67-3.54,3.5s-3.13,1.25-4.93,1.25-3.45-.42-4.95-1.25Zm8.61-4.52c.92-1.02,1.38-2.36,1.38-4.03s-.46-3.04-1.38-4.05c-.92-1.01-2.14-1.51-3.66-1.51s-2.77.5-3.69,1.5c-.92,1-1.38,2.35-1.38,4.06s.46,3.04,1.38,4.05c.92,1.01,2.15,1.51,3.69,1.51s2.75-.51,3.66-1.53Z"/><path class="cls-1" d="m285.92,18.91c-1.11-.45-1.99-1.13-2.66-2.02-.66-.89-1.01-1.96-1.05-3.22h4.96c.07.71.32,1.25.74,1.62s.96.56,1.63.56,1.24-.16,1.63-.48c.4-.32.6-.76.6-1.32,0-.47-.16-.86-.48-1.17-.32-.31-.71-.56-1.17-.76-.46-.2-1.12-.43-1.97-.68-1.24-.38-2.24-.76-3.02-1.14-.78-.38-1.45-.94-2.02-1.69-.56-.75-.84-1.72-.84-2.92,0-1.78.64-3.17,1.93-4.18,1.29-1.01,2.97-1.51,5.04-1.51s3.81.5,5.1,1.51c1.29,1.01,1.98,2.41,2.07,4.21h-5.04c-.04-.62-.26-1.1-.68-1.46-.42-.35-.95-.53-1.61-.53-.56,0-1.02.15-1.36.45s-.52.73-.52,1.29c0,.62.29,1.1.87,1.44.58.34,1.49.72,2.72,1.12,1.24.42,2.24.82,3.01,1.2.77.38,1.44.94,2,1.66.56.73.84,1.66.84,2.81s-.28,2.08-.83,2.97c-.55.89-1.36,1.6-2.41,2.12-1.05.53-2.3.79-3.73.79s-2.65-.23-3.76-.68Z"/></svg>