<?xml version="1.0" encoding="utf-8"?>
<!-- Generator: Adobe Illustrator 27.5.0, SVG Export Plug-In . SVG Version: 6.00 Build 0)  -->
<svg version="1.1" id="Layer_1" xmlns="http://www.w3.org/2000/svg" xmlns:xlink="http://www.w3.org/1999/xlink" x="0px" y="0px"
	 viewBox="0 0 296.7 19.6" style="enable-background:new 0 0 296.7 19.6;" xml:space="preserve">
<style type="text/css">
	.st0{fill:#212121;}
</style>
<path class="st0" d="M14.5,0.3V4H4.7v4h7.9v3.6H4.7v7.7H0V0.3H14.5z"/>
<path class="st0" d="M21.7,15.8H32v3.6H17V0.3h4.7V15.8z"/>
<path class="st0" d="M47,1.2l-6.6,11.9v6.3h-4.7v-6.3L29.1,1.2h5.3l3.7,7.1l3.7-7.1L47,1.2L47,1.2z"/>
<path class="st0" d="M55.4,0.3v19.1h-4.7V0.3H55.4z"/>
<path class="st0" d="M76,19.4h-4.7L63.5,7.6v11.8h-4.7V0.3h4.7l7.8,11.9V0.3H76C76,0.3,76,19.4,76,19.4z"/>
<path class="st0" d="M92.8,6.3c-0.3-0.6-0.8-1.1-1.5-1.5S89.9,4.4,89,4.4c-1.5,0-2.7,0.5-3.6,1.5c-0.9,1-1.4,2.3-1.4,4
	c0,1.8,0.5,3.1,1.4,4.1s2.3,1.5,3.9,1.5c1.1,0,2.1-0.3,2.9-0.9s1.4-1.4,1.7-2.5h-5.9V8.6h10.1v4.3c-0.3,1.2-0.9,2.2-1.8,3.2
	s-1.9,1.8-3.2,2.4c-1.3,0.6-2.7,0.9-4.3,0.9c-1.9,0-3.6-0.4-5.1-1.2s-2.6-2-3.5-3.4c-0.8-1.5-1.2-3.2-1.2-5s0.4-3.6,1.2-5.1
	s2-2.6,3.4-3.5c1.5-0.8,3.2-1.2,5-1.2c2.3,0,4.2,0.6,5.8,1.7c0.8,0.6,2,2,2,2L92.8,6.3L92.8,6.3z"/>
<path class="st0" d="M121.4,16h-7.1l-1.1,3.4h-4.9l6.9-19.1h5.4l6.9,19.1h-4.9L121.4,16L121.4,16z M120.2,12.4l-2.4-7l-2.3,7H120.2z
	"/>
<path class="st0" d="M141.9,19.4l-4-7.2h-1.1v7.2h-4.7V0.3h7.8c1.5,0,2.8,0.3,3.9,0.8c1.1,0.5,1.9,1.2,2.4,2.2
	c0.5,0.9,0.8,1.9,0.8,3.1c0,1.3-0.4,2.4-1.1,3.4s-1.8,1.7-3.2,2.1l4.4,7.6L141.9,19.4L141.9,19.4z M136.8,8.9h2.9
	c0.9,0,1.5-0.2,1.9-0.6s0.6-1,0.6-1.8s-0.2-1.3-0.6-1.7s-1.1-0.6-1.9-0.6h-2.9V8.9L136.8,8.9z"/>
<path class="st0" d="M164.8,0.3V4h-5.1v15.4h-4.7V4H150V0.3H164.8L164.8,0.3z"/>
<path class="st0" d="M178.5,18.9c-1.1-0.5-2-1.1-2.7-2c-0.7-0.9-1-2-1.1-3.2h5c0.1,0.7,0.3,1.2,0.7,1.6s1,0.6,1.6,0.6
	s1.2-0.2,1.6-0.5c0.4-0.3,0.6-0.8,0.6-1.3c0-0.5-0.2-0.9-0.5-1.2c-0.3-0.3-0.7-0.6-1.2-0.8c-0.5-0.2-1.1-0.4-2-0.7
	c-1.2-0.4-2.2-0.8-3-1.1s-1.4-0.9-2-1.7c-0.6-0.8-0.8-1.7-0.8-2.9c0-1.8,0.6-3.2,1.9-4.2s3-1.5,5-1.5s3.8,0.5,5.1,1.5
	c1.3,1,2,2.4,2.1,4.2h-5c0-0.6-0.3-1.1-0.7-1.5c-0.4-0.3-0.9-0.5-1.6-0.5c-0.6,0-1,0.2-1.4,0.5s-0.5,0.7-0.5,1.3
	c0,0.6,0.3,1.1,0.9,1.4s1.5,0.7,2.7,1.1c1.2,0.4,2.2,0.8,3,1.2c0.8,0.4,1.4,0.9,2,1.7c0.6,0.7,0.8,1.7,0.8,2.8s-0.3,2.1-0.8,3
	s-1.4,1.6-2.4,2.1c-1.1,0.5-2.3,0.8-3.7,0.8S179.6,19.3,178.5,18.9L178.5,18.9z"/>
<path class="st0" d="M206.6,0.3V4h-5.1v15.4h-4.7V4h-5.1V0.3H206.6L206.6,0.3z"/>
<path class="st0" d="M214.8,0.3v11.4c0,1.1,0.3,2,0.8,2.6c0.6,0.6,1.4,0.9,2.5,0.9s1.9-0.3,2.5-0.9s0.9-1.5,0.9-2.6V0.3h4.7v11.4
	c0,1.7-0.4,3.1-1.1,4.3s-1.7,2.1-2.9,2.7s-2.6,0.9-4.1,0.9s-2.9-0.3-4.1-0.9s-2.1-1.5-2.8-2.7s-1-2.6-1-4.4V0.3H214.8L214.8,0.3z"/>
<path class="st0" d="M243.4,1.5c1.5,0.8,2.7,1.9,3.5,3.4s1.2,3.1,1.2,5s-0.4,3.5-1.2,5c-0.8,1.5-2,2.6-3.5,3.4
	c-1.5,0.8-3.3,1.2-5.3,1.2H231V0.3h7.2C240.2,0.3,241.9,0.7,243.4,1.5L243.4,1.5z M242,13.9c1-1,1.5-2.3,1.5-4.1s-0.5-3.1-1.5-4.1
	s-2.4-1.5-4.1-1.5h-2.2v11.1h2.2C239.6,15.4,241,14.9,242,13.9L242,13.9z"/>
<path class="st0" d="M256.3,0.3v19.1h-4.7V0.3H256.3z"/>
<path class="st0" d="M264.6,18.3c-1.5-0.8-2.7-2-3.6-3.5s-1.3-3.2-1.3-5.1s0.4-3.6,1.3-5s2.1-2.7,3.6-3.5c1.5-0.8,3.1-1.2,5-1.2
	s3.5,0.4,5,1.2c1.5,0.8,2.7,2,3.5,3.5c0.9,1.5,1.3,3.2,1.3,5s-0.4,3.6-1.3,5.1c-0.9,1.5-2,2.7-3.5,3.5s-3.1,1.2-4.9,1.2
	S266.1,19.2,264.6,18.3L264.6,18.3z M273.2,13.8c0.9-1,1.4-2.4,1.4-4s-0.5-3-1.4-4.1s-2.1-1.5-3.7-1.5s-2.8,0.5-3.7,1.5
	s-1.4,2.3-1.4,4.1s0.5,3,1.4,4.1s2.1,1.5,3.7,1.5S272.3,14.8,273.2,13.8z"/>
<path class="st0" d="M285.9,18.9c-1.1-0.5-2-1.1-2.7-2c-0.7-0.9-1-2-1-3.2h5c0.1,0.7,0.3,1.2,0.7,1.6s1,0.6,1.6,0.6s1.2-0.2,1.6-0.5
	c0.4-0.3,0.6-0.8,0.6-1.3c0-0.5-0.2-0.9-0.5-1.2s-0.7-0.6-1.2-0.8c-0.5-0.2-1.1-0.4-2-0.7c-1.2-0.4-2.2-0.8-3-1.1s-1.5-0.9-2-1.7
	c-0.6-0.8-0.8-1.7-0.8-2.9c0-1.8,0.6-3.2,1.9-4.2c1.3-1,3-1.5,5-1.5s3.8,0.5,5.1,1.5s2,2.4,2.1,4.2h-5c0-0.6-0.3-1.1-0.7-1.5
	c-0.4-0.3-1-0.5-1.6-0.5c-0.6,0-1,0.2-1.4,0.5s-0.5,0.7-0.5,1.3c0,0.6,0.3,1.1,0.9,1.4s1.5,0.7,2.7,1.1c1.2,0.4,2.2,0.8,3,1.2
	c0.8,0.4,1.4,0.9,2,1.7c0.6,0.7,0.8,1.7,0.8,2.8s-0.3,2.1-0.8,3s-1.4,1.6-2.4,2.1c-1,0.5-2.3,0.8-3.7,0.8S287,19.3,285.9,18.9
	L285.9,18.9z"/>
</svg>
