<?xml version="1.0" encoding="UTF-8"?><svg id="Layer_1" xmlns="http://www.w3.org/2000/svg" viewBox="0 0 136.53 70.42"><defs><style>.cls-1{fill:#010101;}</style></defs><path class="cls-1" d="m136.2,47.19c.05-.21.08-.35.12-.5.28.28.28,1.21,0,1.46-.03-.03-.06-.06-.08-.1-.02-.03-.02-.07-.04-.13-.02.04-.03.06-.03.08-.05,1.33-1.47,2.49-2.79,2.51-3.09.06-5.73-1-7.99-3.07-.14-.13-.26-.28-.43-.46-.1.12-.18.23-.28.33-2.09,1.99-4.55,3.1-7.45,3.19-.98.03-1.96.08-2.93-.15-3.28-.78-5.56-3.65-5.57-7.04,0-2.62.02-5.24.02-7.86,0-.4-.03-.82-.13-1.21-.19-.73-.67-1.28-1.32-1.63-2.05-1.11-4.76-1.03-6.53,1.02-.89,1.03-1.34,2.26-1.5,3.6-.14,1.14-.08,2.28.04,3.43.16,1.54.28,3.09.42,4.64.07.77.15,1.55.17,2.32.03,1.41-1.16,2.71-2.57,2.9-1.31.18-2.32-.29-3.08-1.34-.3-.4-.41-.87-.46-1.36,0-.08-.02-.17-.03-.31-.11.09-.19.14-.26.21-2.32,2.04-5.05,3.19-8.06,3.79-1.6.32-3.21.43-4.81.26-2.7-.3-5.25-1.09-7.33-2.96-1.17-1.05-1.52-2.6-.89-3.91.81-1.67,2.91-2.22,4.5-1.2.65.41,1.32.83,2.03,1.12,1.31.54,2.71.11,3.46-.95.47-.66.49-1.36.04-2.03-.44-.67-1.09-1.09-1.78-1.47-.81-.44-1.63-.86-2.42-1.34-.96-.59-1.75-1.38-2.42-2.29-.07-.1-.15-.19-.25-.31-.34.43-.66.82-.98,1.22-1.45,1.82-2.87,3.67-4.37,5.45-1.56,1.85-3.26,3.56-5.3,4.91-2.48,1.64-5.19,2.52-8.17,2.47-2.75-.05-5.21-.95-7.38-2.63-.08-.06-.15-.12-.22-.19-.07-.06-.14-.13-.23-.22-.16.17-.31.34-.47.49-2.43,2.43-5.33,3.3-8.66,2.47-2.06-.51-3.47-1.87-4.37-3.77-.63-1.33-.92-2.73-.92-4.2,0-2.56,0-5.12,0-7.68,0-1.26-1.1-2.52-2.31-2.66-1.36-.16-2.65.71-2.96,2.03-.06.27-.09.56-.09.84,0,4.21,0,8.42,0,12.63,0,1.53-1.22,2.82-2.81,2.96-1.53.14-2.99-.92-3.25-2.4-.1-.56-.1-1.14-.1-1.71,0-3.86-.02-7.72.02-11.58.01-1.61-1.29-2.69-2.47-2.79-1.29-.1-2.65.95-2.81,2.24-.06.45-.05.91-.05,1.36,0,3.91,0,7.82,0,11.73,0,1.1-.41,1.98-1.32,2.61-.96.66-2,.73-3.04.26-1.06-.47-1.64-1.34-1.76-2.48-.05-.47-.02-.95-.02-1.42,0-3.84,0-7.68,0-11.53,0-1.7-1.4-2.94-3.08-2.74-1.07.13-2.11,1.24-2.23,2.32-.06.53-.09,1.11-.3,1.58-.53,1.17-1.49,1.8-2.79,1.79-1.31,0-2.27-.64-2.83-1.84-.36-.76-.31-1.57-.19-2.37.37-2.42,1.49-4.42,3.45-5.89,1.92-1.44,4.09-1.98,6.48-1.67,1.66.21,3.12.83,4.4,1.89.13.11.22.1.35,0,1.99-1.62,4.27-2.21,6.81-1.88,1.63.21,3.07.86,4.34,1.89.04.04.09.07.16.11.12-.1.24-.2.36-.29,1.97-1.48,4.17-2.02,6.61-1.71,3.32.41,6.46,2.93,7.35,6.71.27,1.12.21,2.25.19,3.39-.03,1.42-.01,2.85,0,4.28,0,.82.02,1.65.09,2.47.03.37.16.74.29,1.09.17.44.54.64,1.02.63,1.44-.02,2.62-1.16,2.65-2.6.02-1.29,0-2.58,0-3.87,0-5.64,3.75-10.58,9.24-11.94,4.83-1.19,9.01.08,12.41,3.72,1.43,1.53,2.36,3.35,2.78,5.42.02.08.04.15.07.22,0,.02.03.02.08.06.07-.12.16-.24.21-.36,1.02-2.56,2.51-4.8,4.58-6.65,2.16-1.93,4.63-3.18,7.54-3.44,1.6-.14,3.15.08,4.68.59.62.21,1.22.44,1.69.92.91.92,1.14,2.4.55,3.55-.61,1.19-1.9,1.85-3.21,1.62-1.1-.19-2.2-.32-3.3-.07-.37.08-.75.23-1.04.46-.38.29-.37.57-.06.95.51.62,1.19,1.02,1.91,1.35,1.21.57,2.36,1.23,3.34,2.15,1.75,1.64,2.74,3.64,2.79,6.06,0,.43-.06.86-.1,1.34.11-.06.22-.1.3-.18,1.43-1.29,2.79-2.65,3.78-4.32.2-.34.26-.65.21-1.04-.2-1.55-.35-3.1-.54-4.65-.25-2.11-.53-4.21-.79-6.32-.27-2.16-.55-4.33-.78-6.5-.2-1.93-.39-3.86-.49-5.8-.16-3.03-.09-6.05.89-8.98.52-1.55,1.24-2.99,2.38-4.19.94-.99,2.03-1.77,3.41-2,2.43-.4,4.41.41,5.95,2.32,1.07,1.33,1.7,2.88,2.14,4.51.43,1.59.64,3.21.74,4.85.1,1.64.15,3.28-.06,4.91-.23,1.73-.51,3.45-.83,5.16-.24,1.25-.57,2.49-.86,3.74,0,.04,0,.07-.01.14.39.03.77.07,1.16.1,2.68.21,5.09,1.05,7,3.02,1.62,1.67,2.45,3.69,2.48,6.01.03,2.63,0,5.26-.01,7.89,0,.07,0,.14,0,.2-.07,1.06.57,1.46,1.43,1.49,2.63.1,4.39-1.41,5.16-3.1.26-.58.42-1.19.43-1.83.02-3.34.03-6.67.05-10.01,0-.7-.07-1.41.29-2.08.59-1.11,1.86-1.78,3.07-1.64,1.56.19,2.49,1.34,2.69,2.45.03.15.03.31.03.46,0,3.32,0,6.64,0,9.95,0,1.01.07,2.02.58,2.93.95,1.68,2.34,2.68,4.3,2.83.63.05,1.26.06,1.83.41.76.47,1.32,1.08,1.4,2.02,0,.1.04.21.08.38Zm-79.18-2.84c3.35.03,6.22-2.8,6.26-6.18.04-3.37-2.84-6.31-6.26-6.29-3.56.03-6.21,2.93-6.23,6.18-.02,3.6,3,6.33,6.22,6.29Zm40.68-18.57l.12.03c.05-.1.12-.2.15-.31.1-.39.18-.79.28-1.19.61-2.48,1.18-4.97,1.5-7.51.35-2.78.23-5.53-.44-8.25-.18-.73-.45-1.44-.86-2.08-.13-.2-.23-.22-.35,0-.23.46-.52.89-.71,1.36-.6,1.52-.77,3.11-.79,4.73-.05,2.75.26,5.48.54,8.2.13,1.3.3,2.6.45,3.9.04.37.08.74.12,1.11Z"/><path class="cls-1" d="m61.07,62.48c-.13.15-.24.23-.29.34-.87,1.91-1.73,3.83-2.59,5.75-.21.48-.42.96-.65,1.49-.09-.14-.18-.23-.22-.34-.77-1.74-1.54-3.49-2.31-5.24-.22-.51-.43-1.02-.66-1.52-.07-.15-.17-.29-.29-.47-.06.1-.09.14-.1.18-.26,1.59-.53,3.19-.79,4.79-.1.61-.21,1.22-.32,1.83-.02.09-.12.23-.19.23-.54,0-1.09-.01-1.63-.02-.03,0-.05-.02-.06-.03.82-4.18,1.63-8.36,2.46-12.59.07.1.15.17.18.25,1.07,2.42,2.14,4.84,3.2,7.26.2.44.38.89.57,1.33.03.06.06.11.15.25,1.41-3.09,2.79-6.1,4.17-9.12.02,0,.04.02.05.03.74,4.19,1.48,8.38,2.22,12.6-.06,0-.15.03-.24.03-.47,0-.93,0-1.4,0-.16,0-.21-.04-.24-.2-.25-1.63-.51-3.25-.76-4.88-.09-.61-.17-1.22-.27-1.94Z"/><path class="cls-1" d="m107.14,69.5v-12.62c.14.12.24.2.33.29,2.4,2.51,4.81,5.02,7.21,7.53.29.3.57.61.86.91.08.08.17.13.3.23v-8.17h1.88c0,.81,0,1.61,0,2.4,0,2.74,0,5.47,0,8.21,0,.69-.05,1.37-.09,2.06,0,.04-.03.09-.03.09-.2-.26-.38-.55-.61-.79-2.3-2.41-4.6-4.81-6.9-7.22-.28-.29-.56-.59-.85-.88-.08-.09-.19-.15-.35-.29.02.29.05.49.05.7,0,1.34,0,2.68,0,4.02,0,1.12.03,2.23.03,3.35,0,.07-.09.19-.14.19-.56.01-1.12,0-1.7,0Z"/><path class="cls-1" d="m31.8,56.86c2.89,3.03,5.73,6,8.56,8.97.03-.01.05-.02.08-.03v-8.12c.1,0,.19-.02.28-.02.42,0,.83.02,1.25.01.22,0,.27.08.26.28-.02.35-.04.7-.04,1.04,0,2.82,0,5.64,0,8.47,0,.88.06,1.76.08,2.64,0,.11-.02.23-.03.31-.65-.93-1.5-1.68-2.27-2.5-1.96-2.07-3.94-4.12-5.92-6.18-.14-.15-.26-.31-.39-.46-.03.02-.06.04-.09.06-.01.08-.03.16-.03.24,0,2.41,0,4.81.02,7.22,0,.1,0,.19,0,.29.03.42.03.42-.38.43-.41,0-.82,0-1.22.02-.15,0-.2-.04-.2-.2.02-3.32.03-6.63.04-9.95,0-.65-.01-1.3-.02-1.95,0-.17.01-.34.03-.56Z"/><path class="cls-1" d="m92.09,63.61c-.31-2.6,2.05-5.75,5.35-6.11,3.63-.4,6.03,1.86,6.73,4.28,1.26,4.29-1.89,7.55-5.11,7.89-2.53.27-4.54-.62-6.02-2.65-.62-.84-.95-1.82-.95-2.88,0-.18,0-.37,0-.53Zm1.74-.03c-.1,2.44,2.18,4.56,4.48,4.5,2.31-.06,4.38-2.07,4.35-4.55-.03-2.49-2.15-4.52-4.58-4.43-2.46.09-4.36,2.29-4.25,4.48Z"/><path class="cls-1" d="m128.8,17.29c0,2.1-1.23,3.63-3.28,3.95-2.37.37-4.24-1.41-4.4-3.42-.09-1.11.07-2.14.77-3.06.98-1.3,2.66-1.82,4.27-1.33,1.51.46,2.58,1.87,2.64,3.48,0,.13,0,.25,0,.38Z"/><path class="cls-1" d="m65.58,69.5c1.97-4.21,3.91-8.37,5.88-12.59,1.9,4.23,3.77,8.38,5.66,12.59-.23,0-.47,0-.7,0-.31,0-.62,0-.93.02-.24,0-.38-.08-.48-.32-.29-.74-.63-1.46-.93-2.19-.12-.28-.29-.38-.6-.38-1.41.02-2.82.01-4.22,0-.33,0-.49.11-.62.42-.31.77-.67,1.52-1.02,2.28-.03.07-.14.16-.21.16-.61.01-1.22,0-1.83,0Zm4-4.55h3.6c-.09-.23-.17-.42-.25-.6-.44-1.03-.88-2.07-1.32-3.1-.03-.08-.13-.13-.19-.19-.05.06-.13.11-.16.18-.37.82-.73,1.65-1.1,2.47-.18.4-.37.8-.57,1.24Z"/><path class="cls-1" d="m29.86,69.5c-.59,0-1.18,0-1.77,0-.1,0-.25-.11-.29-.2-.35-.79-.69-1.58-1.02-2.38-.08-.2-.2-.29-.42-.29-1.52,0-3.03,0-4.55.01-.11,0-.28.13-.33.25-.38.78-.74,1.58-1.1,2.37-.08.18-.18.24-.37.24-.45,0-.89.01-1.34.02-.3,0-.36-.09-.23-.37.98-2.07,1.98-4.14,2.95-6.22.88-1.88,1.74-3.76,2.61-5.64.05-.12.12-.23.2-.37,1.89,4.21,3.77,8.38,5.66,12.58Zm-5.65-8.46s-.06-.02-.08-.02c-.59,1.3-1.19,2.59-1.8,3.93h3.61c-.58-1.32-1.16-2.61-1.73-3.91Z"/><path class="cls-1" d="m84.78,59.34h-2.72v10.16h-1.79v-10.15c-.47,0-.96,0-1.44,0-.37,0-.74.01-1.11,0-.07,0-.2-.1-.2-.16-.02-.49,0-.99,0-1.52.12,0,.23,0,.33,0,1.52,0,3.05.02,4.57.03.7,0,1.4,0,2.1-.02.19,0,.28.04.27.26-.02.45,0,.91,0,1.42Z"/><path class="cls-1" d="m76.33,13.69c1.6.02,2.86.81,3.36,2.24.74,2.09-.42,4.25-2.64,4.65-1.41.26-2.65-.09-3.58-1.23-1.49-1.83-.73-5.04,2.08-5.57.26-.05.52-.05.78-.08Zm2.01,3.51c.07-1.39-1.18-2.2-2.03-2.18-1.12.02-2.04.97-2.05,2.14-.01,1.11.97,2.14,2.04,2.14,1.01,0,2.1-.89,2.04-2.1Z"/><path class="cls-1" d="m52.61,20.52c0-.14,0-.27,0-.4,0-1.94,0-3.88,0-5.82,0-.52,0-.52.52-.51.84.01,1.69,0,2.53.04,1.78.09,3.1,1.48,3.18,3.21.07,1.62-1.04,3.07-2.71,3.39-.42.08-.87.08-1.3.09-.73.01-1.47,0-2.21,0Zm1.47-1.34c.5,0,.98.04,1.45,0,.95-.09,1.65-.81,1.74-1.74.11-1.01-.43-1.9-1.34-2.2-.6-.2-1.22-.11-1.85-.12v4.07Z"/><path class="cls-1" d="m40.38,15.99c0-.65,0-1.3,0-1.95,0-.21.06-.27.26-.26.32.02.64.02.96,0,.22-.01.28.07.28.28-.02.98-.03,1.96-.03,2.94,0,.35,0,.7.05,1.04.1.74.74,1.27,1.45,1.25.77-.03,1.38-.55,1.41-1.31.05-1.27.03-2.54.03-3.81,0-.4,0-.39.4-.39.29,0,.58-.01.87,0,.07,0,.2.11.2.16,0,1.41.05,2.82-.05,4.22-.11,1.55-1.05,2.37-2.62,2.46-.86.05-1.69-.06-2.37-.67-.51-.45-.75-1.04-.79-1.7-.04-.75,0-1.51,0-2.27-.02,0-.03,0-.05,0Z"/><path class="cls-1" d="m19.01,18.48c.57.48,1.16.81,1.88.86.34.02.66-.04.92-.28.28-.25.29-.54-.01-.76-.2-.15-.44-.25-.67-.33-.57-.2-1.18-.33-1.73-.58-1.18-.53-1.39-2.17-.44-3.05.66-.61,1.46-.68,2.29-.6.66.06,1.26.31,1.82.65.2.13.22.22.07.4-.19.22-.35.46-.51.71-.1.16-.18.15-.33.07-.41-.2-.81-.42-1.24-.54-.52-.15-.91.02-1.15.38-.11.16-.12.32.02.44.2.16.41.33.64.42.38.15.78.23,1.17.34.21.06.43.13.63.23.84.41,1.18,1.01,1.1,1.89-.07.85-.6,1.51-1.45,1.73-1.36.35-2.59.06-3.72-.76-.16-.12-.19-.22-.04-.38.26-.28.5-.57.76-.87Z"/><path class="cls-1" d="m88.93,57.66v11.82c-.57,0-1.14,0-1.71,0-.04,0-.11-.12-.11-.18.02-1.62.06-3.24.08-4.86.01-.84,0-1.69,0-2.53-.01-1.31-.04-2.62-.07-3.93,0-.25.05-.34.32-.33.48.02.97,0,1.49,0Z"/><path class="cls-1" d="m45.9,57.66c.56,0,1.07,0,1.57,0,.22,0,.19.13.19.27,0,2.49,0,4.99,0,7.48,0,1.3.01,2.6.01,3.9,0,.07-.08.2-.12.2-.53,0-1.07,0-1.6-.02-.03,0-.05-.03-.05-.03v-11.8Z"/><path class="cls-1" d="m34.51,13.79v1.32c-.15,0-.33,0-.51,0-.4,0-.8.02-1.19,0-.28-.02-.35.1-.35.35.01,1.24.02,2.48.03,3.72,0,.38.02.76.02,1.13,0,.07-.09.21-.15.21-.44.02-.89,0-1.35,0v-5.42h-2.07c0-.37.01-.71,0-1.04-.01-.23.06-.3.29-.29,1.65.01,3.3.01,4.95.01.1,0,.19,0,.34,0Z"/><path class="cls-1" d="m65.05,13.78c.43,0,.83.01,1.22,0,.21,0,.27.05.27.26-.02,1.84-.03,3.68-.03,5.52,0,.25.03.5.02.75,0,.07-.1.2-.16.2-.43.02-.87,0-1.32,0v-6.74Z"/></svg>