<?xml version="1.0" encoding="utf-8"?>
<!-- Generator: Adobe Illustrator 27.5.0, SVG Export Plug-In . SVG Version: 6.00 Build 0)  -->
<svg version="1.1" id="Layer_1" xmlns="http://www.w3.org/2000/svg" xmlns:xlink="http://www.w3.org/1999/xlink" x="0px" y="0px"
	 viewBox="0 0 27.8 42.8" style="enable-background:new 0 0 27.8 42.8;" xml:space="preserve">
<style type="text/css">
	.st0{fill:#212121;}
</style>
<path class="st0" d="M3.5,38.3C1.4,37.4,0,35.4,0,33V5.7C0,2.6,2.6,0,5.7,0h6.9C21,0,27.8,6.8,27.8,15.2c0,7.7-6,14.3-13.6,15.1
	v12.5L3.5,38.3L3.5,38.3z M5.7,30.3C4.2,30.3,3,31.5,3,33c0,1.1,0.7,2.1,1.7,2.5l6.4,2.7v-7.9L5.7,30.3L5.7,30.3z M3,28
	c0.8-0.5,1.8-0.7,2.7-0.7h5.4V14.2l-7.6-3.2C3.4,11,3.2,10.9,3,10.8L3,28L3,28z M5.7,3C4.2,3,3,4.2,3,5.7c0,1.1,0.7,2.1,1.7,2.5
	l9.5,3.9v15c6.1-0.8,10.6-5.9,10.6-12C24.8,8.5,19.3,3,12.6,3L5.7,3L5.7,3z"/>
</svg>
