<?xml version="1.0" encoding="UTF-8"?><svg id="Layer_1" xmlns="http://www.w3.org/2000/svg" viewBox="0 0 74.03 70.42"><path d="m42.83,27.43v6.61h-2.95V0c.49,0,.93,0,1.38,0,6.29,0,12.57,0,18.86,0,6.52,0,11.88,4.23,13.53,10.63,1.49,5.77-1.39,12.13-6.88,15.17-2.17,1.2-4.51,1.64-6.97,1.63-5.06,0-10.11,0-15.17,0-.54,0-1.08,0-1.8,0Zm.06-3.13c.34.04.56.08.78.08,5.6,0,11.2.07,16.8-.02,5.86-.09,10.46-4.84,10.46-10.61,0-5.83-4.66-10.64-10.53-10.72-5.6-.08-11.2-.02-16.8-.01-.21,0-.43.06-.7.1v21.18Z"/><path d="m2.78,59.77v10.65H0v-28.54h2.7c.04.81.09,1.59.14,2.65,3.08-2.84,6.5-4.01,10.41-3.21,2.67.55,4.87,1.96,6.54,4.15,3.3,4.33,2.91,10.41-.88,14.37-3.18,3.33-9.93,5.36-16.12-.08Zm8.17-15.77c-4.54,0-8.18,3.61-8.18,8.13,0,4.55,3.76,8.29,8.27,8.24,4.41-.05,8.08-3.73,8.11-8.12.03-4.59-3.6-8.24-8.2-8.24Z"/><path d="m28.28,53.7c.5,2.84,2.14,4.73,4.61,5.89,3.35,1.57,7.5.62,9.7-2.37.84-1.14,1.56-1.29,2.69-.74.24.12.52.15.98.28-1.13,2.48-2.88,4.22-5.25,5.33-6,2.83-12.87-.03-15.21-6.3-2.22-5.95,1.3-12.52,7.68-14.34,5.99-1.71,12.48,2.41,13.68,8.68.61,3.18.39,3.44-2.84,3.44-5.19,0-10.38,0-15.57.02-.09,0-.18.04-.48.11Zm.11-3.12h15.76c-.35-3.7-3.97-6.63-8.04-6.59-3.9.04-7.48,3.05-7.73,6.59Z"/><path d="m54.06,62.55h-2.74v-20.68h2.69c.03.53.06,1.02.1,1.7.36-.24.63-.41.89-.6,3.41-2.54,7.09-3.05,10.91-1.16,3.77,1.86,5.65,5.03,5.69,9.23.04,3.78,0,7.56,0,11.45h-2.77c-.02-.4-.06-.88-.06-1.36,0-3.37.03-6.74-.01-10.11-.05-3.64-2.45-6.59-5.83-7.3-3.33-.69-6.7.93-8.12,4.09-.47,1.04-.68,2.28-.71,3.43-.09,3.72-.03,7.45-.03,11.31Z"/><path d="m31.92.13c.69.71,1.41,1.45,2.09,2.16-4.6,4.62-9.15,9.19-13.8,13.86-.67-.79-1.34-1.57-1.95-2.29C22.71,9.38,27.28,4.79,31.92.13Z"/><path d="m15.83,14.07c-.55.56-1.28,1.3-1.99,2.02C9.23,11.44,4.69,6.86.17,2.3.77,1.68,1.48.95,2.14.25c4.53,4.57,9.08,9.17,13.69,13.82Z"/><path d="m2.12,34.11c-.67-.72-1.37-1.48-2.04-2.2,4.57-4.56,9.16-9.13,13.84-13.8.63.68,1.32,1.44,1.98,2.16-4.54,4.56-9.11,9.15-13.78,13.84Z"/><path d="m33.94,31.92c-.66.71-1.37,1.47-2.07,2.22-4.64-4.67-9.18-9.24-13.7-13.79.67-.63,1.44-1.36,2.17-2.05,4.45,4.46,9.02,9.04,13.59,13.62Z"/></svg>