<?xml version="1.0" encoding="UTF-8"?><svg id="Layer_1" xmlns="http://www.w3.org/2000/svg" viewBox="0 0 98.98 32.64"><defs><style>.cls-1{fill:#47b649;}</style></defs><g id="layer1"><path id="path4" class="cls-1" d="m22.01,12.2c1.64,1.33,2.46,3.41,2.46,6.24v14.2h-7.81v-13.16c0-.57-.22-1.08-.65-1.51-.43-.43-.93-.65-1.51-.65h-4.55c-.57,0-1.07.22-1.48.65-.41.43-.61.93-.61,1.51v13.16H0V0h7.87v10.64c.12-.04.41-.12.86-.25.45-.12,1.04-.18,1.78-.18h5.04c2.66,0,4.82.67,6.45,2Zm24.77-2h7.87v13.77c0,2.58-.71,4.67-2.12,6.27-1.41,1.6-3.33,2.4-5.75,2.4h-7.75c-2.7,0-4.87-.75-6.49-2.24-1.62-1.5-2.43-3.64-2.43-6.42v-13.77h7.87v13.16c0,.57.2,1.07.61,1.48.41.41.9.61,1.48.61h4.55c.57,0,1.08-.2,1.51-.61.43-.41.65-.9.65-1.48v-13.16ZM60.61,0h7.87v32.64h-7.87V0Zm38.36,10.2v13.77c0,2.58-.71,4.67-2.12,6.27-1.41,1.6-3.33,2.4-5.75,2.4h-7.68c-2.75,0-4.93-.75-6.55-2.24-1.62-1.5-2.43-3.64-2.43-6.42v-13.77h7.87v13.16c0,.57.2,1.07.61,1.48.41.41.9.61,1.48.61h4.61c.57,0,1.07-.2,1.48-.61.41-.41.61-.9.61-1.48v-13.16h7.87Z"/></g></svg>