<?xml version="1.0" encoding="UTF-8"?><svg id="Layer_1" xmlns="http://www.w3.org/2000/svg" viewBox="0 0 137.09 26.83"><defs><style>.cls-1{fill:#1c1c1c;}.cls-1,.cls-2{fill-rule:evenodd;}.cls-2{fill:#08b2cb;}</style></defs><g id="surface1"><path class="cls-2" d="m23.13.37c.1-.2.35-.26.52-.37.25.11.52.23.63.49,2.52,4.88,5.05,9.75,7.58,14.62.15.31.26.64.28.98.01,2.61,0,5.23,0,7.84.04.31-.28.52-.56.47-5.3,0-10.61,0-15.91,0-.22.03-.53-.08-.49-.35,0-2.83-.03-5.66.04-8.49,2.65-5.05,5.27-10.12,7.89-15.18Zm-1.09,5.51c-.26.24-.37.6-.54.91-1.45,2.78-2.88,5.56-4.33,8.33-.07.17-.07.36-.09.54,4.43.01,8.86.06,13.29-.02-1.65-3.29-3.48-6.48-5.16-9.75-1.06-.04-2.12-.05-3.17,0"/><path class="cls-2" d="m.27,10.14c.27.02.55.04.8.15,3.29,1.43,6.67,2.66,10,3.99.95.42,1.95.75,2.85,1.26.31.6.19,1.29.21,1.93-.02,2.25.05,4.51-.02,6.76-.6.21-1.23.14-1.85.14-2.2,0-4.41.03-6.6,0-.21-.17-.38-.38-.46-.64C3.45,19.36,1.72,14.99,0,10.61c.09-.16.18-.32.27-.47Zm4.23,2.96c-.44.53-.97.98-1.43,1.48-.2.17-.05.44.01.64,1.04,2.7,2.12,5.37,3.14,8.08.1,0,.2.01.3.02,2.2-2.29,4.51-4.47,6.7-6.78-2.31-1.01-4.67-1.91-7-2.89-.57-.18-1.1-.55-1.72-.55"/><path class="cls-2" d="m46.23,10.31c.28-.13.59-.15.9-.16.2.31.18.67.02.99-1.68,4.24-3.37,8.48-5.04,12.73-.07.23-.29.35-.46.51-2.57.02-5.14,0-7.72,0-.29.02-.77-.05-.71-.45,0-2.56,0-5.13.01-7.7-.04-.54.42-.87.87-1.05,4-1.71,8.12-3.14,12.13-4.87Zm-4.64,3.16c-2.47,1-4.93,2.03-7.4,3.02.18.44.6.71.91,1.04,1.81,1.83,3.64,3.65,5.46,5.47.14.2.37.24.6.19,1.1-2.67,2.12-5.37,3.21-8.04.04-.14.15-.32.01-.45-.51-.56-1.07-1.07-1.59-1.62-.43.04-.81.22-1.2.39"/><path class="cls-1" d="m51.43,14.29c1.25,0,2.5,0,3.75,0,0,1.5-.02,3,.01,4.51,3.36-.01,6.73,0,10.09,0,0-1.5,0-3,0-4.5,1.25,0,2.5,0,3.75,0,0,3.89.01,7.79-.01,11.68-1.25-.03-2.5,0-3.75,0,.03-1.48,0-2.96.01-4.45-3.37,0-6.74.01-10.1,0-.01,1.48,0,2.97-.01,4.46-1.25-.02-2.5.01-3.76-.02.04-3.88.01-7.77.01-11.65"/><path class="cls-1" d="m71.99,25.46c0-3.72,0-7.45,0-11.17,1.26,0,2.51,0,3.77,0v8.58c1.01.36,2.09.37,3.15.46,1.79.11,3.59.04,5.38-.13.52-.06,1.05-.15,1.55-.32,0-2.86,0-5.72,0-8.58,1.26,0,2.51,0,3.77,0,0,3.88.01,7.76,0,11.64-1.25,0-2.5.01-3.74,0,0-.49-.01-.99-.01-1.48-2.31.84-4.76,1.19-7.21,1.33-2.22.17-4.46.05-6.65-.31"/><path class="cls-1" d="m92.63,14.29c1.25,0,2.5,0,3.75,0,0,3.89-.02,7.78,0,11.67-1.25,0-2.5-.01-3.75,0-.01-3.89,0-7.78,0-11.67"/><path class="cls-1" d="m100.47,15.62c1.51-.54,3-1.35,4.64-1.34,2.56-.01,5.12,0,7.67,0,.76,0,1.53.03,2.25.27,1.02.33,2.04.67,3.05,1.02,0,3.06,0,6.12,0,9.19-1.05.29-2.06.72-3.11.97-.85.21-1.74.18-2.61.18h-5.88c-2.06,0-4.01-.73-6-1.15-.02-3.04,0-6.08-.01-9.13Zm3.56,1.16c-.03,2.19-.02,4.39,0,6.59,3.51.02,7.02,0,10.53,0,0-2.19,0-4.38,0-6.57-3.51-.01-7.02.02-10.52-.02"/><path class="cls-1" d="m121.01,14.29c1.72,0,3.44-.02,5.16.01,2.37,2.78,4.83,5.48,7.23,8.24-.04-2.74,0-5.49-.02-8.23,1.23-.03,2.46-.04,3.69-.03,0,3.89-.03,7.78.02,11.67-1.69.03-3.38.01-5.07.01-1.94-2.13-3.9-4.25-5.84-6.38-.48-.56-1.04-1.05-1.46-1.65,0,2.64,0,5.29,0,7.93-.05.23-.39.06-.55.11-1.04-.01-2.09,0-3.14,0-.03-3.89,0-7.79-.01-11.69"/><path class="cls-2" d="m5.65,25.52c.77-.16,1.57-.02,2.36-.08,1.32-.08,2.65.03,3.97-.04,9.64,0,19.29,0,28.93,0,.29,0,.57.06.85.11.29.37.29.88-.04,1.23-.27.05-.54.1-.81.1-11.15,0-22.31,0-33.46,0-.62,0-1.24.05-1.84-.1-.24-.37-.33-.88.03-1.2"/></g></svg>