<svg id="Layer_1" data-name="Layer 1" xmlns="http://www.w3.org/2000/svg" viewBox="0 0 71.31 66.66"><defs><style>.cls-1{fill:#fff;}</style></defs><circle class="cls-1" cx="3.55" cy="6.54" r="3.55"/><circle class="cls-1" cx="25.9" cy="3.55" r="3.55"/><circle class="cls-1" cx="38.27" cy="7.95" r="3.55"/><circle class="cls-1" cx="50.64" cy="12.35" r="3.55"/><circle class="cls-1" cx="62.51" cy="16.57" r="3.55"/><path class="cls-1" d="M52.36,39.54C52,57.86,25.93,57.07,25.44,38.93a57.88,57.88,0,0,1,.08-7.56,5.52,5.52,0,1,1,11,.88,54.18,54.18,0,0,0-.91,8.06c.69,6.09,8.66,8.83,11.86.09.93-3.4,4.64-5.17,4.89-.86Z"/><path class="cls-1" d="M61.9,43.78c.21,21.86-28.65,30.24-43,15.42a23,23,0,0,1-6.62-13.81c-.22-4.13-.84-8.8-3.9-11.75-5.77-3.94-.43-13.27,6.28-9.06,5.83,4.89,7.49,12.92,7.23,20.12C22.15,57,38,63,48.07,57.38c5.16-2.56,7.5-5.62,9.15-11,1.18-4.89,4.57-5.61,4.68-2.61Z"/><path class="cls-1" d="M63.64,36.07,38.5,25.22C24.61,19.23,14,14,14,14c-3.9-1.77-5.53-8.6-1.44-7.29l55,19.11c7,2.71,3.06,13-4,10.26Z"/></svg>