<svg id="Layer_1" data-name="Layer 1" xmlns="http://www.w3.org/2000/svg" viewBox="0 0 213.6 119.4"><defs><style>.cls-1{font-size:21.95px;font-family:Poppins-Regular, Poppins;}.cls-1,.cls-2{fill:#fff;}</style></defs><text class="cls-1" transform="translate(41.59 106.85)">digital artist</text><path class="cls-2" d="M7.76,79.12c-1.57-.55-2.9-1.94-4-4.18a32.49,32.49,0,0,1-2.45-8.15A84.21,84.21,0,0,1,.2,57a89.54,89.54,0,0,1-.14-9.14A33.72,33.72,0,0,1,.72,41.7a7.75,7.75,0,0,1,2.39-3.91A8.85,8.85,0,0,1,7,35.7a4.73,4.73,0,0,1,3.71.49c1.07.66,1.66,2,1.77,4q.16,5.94.11,13-.12,7.77.11,12.28a1.38,1.38,0,0,0,.35.85.43.43,0,0,0,.5.06A1.42,1.42,0,0,0,14,66q1.65-3.36,4.46-9.52Q22.07,48.51,26,40.51A88.19,88.19,0,0,1,32.2,29.26a5.82,5.82,0,0,1,2.89-1.93,3.75,3.75,0,0,1,4.87,3,10.06,10.06,0,0,1-.5,5.23c-.65,1.94-2.07,5.26-4.23,10s-4.6,9.67-7.29,14.91-5.19,9.65-7.46,13.21a34.86,34.86,0,0,1-2.87,3.91A4.12,4.12,0,0,1,15,79.12c-.48,0-1.2.07-2.18.11s-1.94.06-2.91.06A10.46,10.46,0,0,1,7.76,79.12Z"/><path class="cls-2" d="M49.36,68.17a10.74,10.74,0,0,1-7-3.33,14.36,14.36,0,0,1-3.42-7.07,23.74,23.74,0,0,1,0-8.89,27.07,27.07,0,0,1,3.25-8.78,20.41,20.41,0,0,1,6.25-6.74,16.11,16.11,0,0,1,9.08-2.67,14.35,14.35,0,0,1,5.12.8,9.84,9.84,0,0,1,4.07,2.67,9.08,9.08,0,0,1,2.14,4.67v1.11A11.93,11.93,0,0,0,69,41.5a1.73,1.73,0,0,0,.56,1.16,3.38,3.38,0,0,0,1.87.41,11,11,0,0,1,2.72.33,3.25,3.25,0,0,1,2,1.49,4.5,4.5,0,0,1,.22,3.36c-.33,1.39-.7,3-1.1,4.89Q74,58.65,72.53,64.78A86.4,86.4,0,0,1,69.45,75.1a5.88,5.88,0,0,1-3.19,3.25,7.22,7.22,0,0,1-4.4.39,6,6,0,0,1-3.64-2.37,6.58,6.58,0,0,1-.88-5.06c.22-.92.48-1.85.77-2.81.11-.33.2-.63.28-.88.25-.88.24-1.39-.06-1.54s-.88,0-1.76.49A13.33,13.33,0,0,1,49.36,68.17Zm1.38-21.25a24.58,24.58,0,0,0-1.49,5.56,10.21,10.21,0,0,0,.33,4.82,4.07,4.07,0,0,0,3,2.67A3.2,3.2,0,0,0,55,59.64a7.39,7.39,0,0,0,2.48-2.42,27.71,27.71,0,0,0,2.23-5.84c.86-2.9,1.68-6,2.44-9.24a3.7,3.7,0,0,0-.3-3.06,2.67,2.67,0,0,0-2.12-1,6.05,6.05,0,0,0-4.18,1.3,11.78,11.78,0,0,0-2.94,3.49A26.27,26.27,0,0,0,50.74,46.92Z"/><path class="cls-2" d="M89.84,72.13a9.94,9.94,0,0,1-6.44-2.56A15.09,15.09,0,0,1,79.16,63a24.2,24.2,0,0,1-.71-10.08,41,41,0,0,1,3.08-11.47,30.26,30.26,0,0,1,6.27-9.6,4.11,4.11,0,0,1,2.48-1,6.68,6.68,0,0,1,3.14.44,4.47,4.47,0,0,1,2.31,2,4.87,4.87,0,0,1,0,3.77c-.47,1.25-1,2.66-1.54,4.24q-2.35,6.27-4.51,13.16a22.87,22.87,0,0,0-1,4.78A9,9,0,0,0,89.1,63a2.58,2.58,0,0,0,1.84,1.81,5.21,5.21,0,0,0,4.54-1.54,22.79,22.79,0,0,0,4.27-5.39,74.86,74.86,0,0,0,3.82-7.38c1.19-2.64,2.29-5.13,3.28-7.48a57.13,57.13,0,0,1,3.24-7.1,5,5,0,0,1,3.39-2.29,4,4,0,0,1,3.44,1c1,.88,1.32,2.29,1.1,4.24q-.55,3.36-2.28,10.62T112,64.15q-2,7.38-3.33,11a5.56,5.56,0,0,1-7,3.52,5.36,5.36,0,0,1-3.11-2.39,5.59,5.59,0,0,1-.38-4.49,11.84,11.84,0,0,0,.44-2.31c0-.4-.13-.57-.39-.5a3.8,3.8,0,0,0-1,.61,12.55,12.55,0,0,1-7.38,2.53Z"/><path class="cls-2" d="M131.7,73.89a6.39,6.39,0,0,1-3.16,4.27,7.52,7.52,0,0,1-5.07.8,6.47,6.47,0,0,1-4.29-3c-1.08-1.66-1.36-4-.85-7.11q1.42-7.59,4-18.51t5.86-21.44A88.89,88.89,0,0,1,135,12.14,18.65,18.65,0,0,1,140.4,6q2.74-1.79,4.4-.74c1.1.69,1.45,2.42,1,5.17q-1.93,10.35-4.68,22.51t-5.56,24Q133.47,66.08,131.7,73.89Z"/><path class="cls-2" d="M145.16,56.66a13.78,13.78,0,0,1,3.14-4.41,10.76,10.76,0,0,1,3.9-2.48,3.14,3.14,0,0,1,3.15.34c.8.66,1.09,2,.87,4.06q-.56,4.63-1.68,10.6T152.45,75a6.27,6.27,0,0,1-2.57,4.06,5.12,5.12,0,0,1-3.82.68,6.08,6.08,0,0,1-3.44-2,6,6,0,0,1-1.39-4.19A45.59,45.59,0,0,1,142.52,65,53.29,53.29,0,0,1,145.16,56.66ZM155,40a2.43,2.43,0,0,1,2,2,3.55,3.55,0,0,1-.8,2.81,3.1,3.1,0,0,1-3.06,1,2.74,2.74,0,0,1-2.31-2.09,3.19,3.19,0,0,1,.77-2.86A3.51,3.51,0,0,1,155,40Z"/><path class="cls-2" d="M155.79,37.14a11.37,11.37,0,0,1-5.12-5.67,20.3,20.3,0,0,1-1.54-8.36A31.51,31.51,0,0,1,150.59,14a27.86,27.86,0,0,1,3.88-8,14.79,14.79,0,0,1,5.72-5A8.86,8.86,0,0,1,164.43,0a3.16,3.16,0,0,1,2.69,1.56q.82,1.44.06,4.41c-.29,1-.79,2.35-1.49,4.18q-1.2,3.2-2.45,7A37.63,37.63,0,0,0,161.62,24c-.26,2.08.06,3.53.94,4.38a3.67,3.67,0,0,0,3.05.58,10,10,0,0,0,3.66-1.57,24,24,0,0,0,4.35-3.91q2.08-2.37,4-4.95c1.21-1.51,2.37-2.9,3.49-4.19a17.86,17.86,0,0,1,3.28-3,5.6,5.6,0,0,1,3.71-.91,4.6,4.6,0,0,1,3.22,1.65,4.35,4.35,0,0,1,.55,4Q186.12,37.8,180,62.51q-1.86,7.38-3.46,13.76a5.37,5.37,0,0,1-2.89,3.52,8.18,8.18,0,0,1-4.71.72,7.33,7.33,0,0,1-4.29-2A5.91,5.91,0,0,1,163,73.74a104.33,104.33,0,0,1,3-15.91q2.42-9.63,5.39-18.82a15.86,15.86,0,0,0,.8-2.92c.06-.55-.06-.79-.36-.71a6.73,6.73,0,0,0-1.43.66,21.92,21.92,0,0,1-2,1,16.22,16.22,0,0,1-6.69,1.41A12.85,12.85,0,0,1,155.79,37.14Z"/><path class="cls-2" d="M207,76.86a5.94,5.94,0,0,1-4,2.8,7.09,7.09,0,0,1-4.49-.81,7.31,7.31,0,0,1-3.17-3.27,5.34,5.34,0,0,1,0-4.59c.48-1.13,1-2.19,1.42-3.19a46.44,46.44,0,0,0,3.19-8,14.14,14.14,0,0,0-.1-7.49,34.55,34.55,0,0,0-5.06-9.84,17.07,17.07,0,0,1-2.2-5.41,19.3,19.3,0,0,1-.36-6.36,14.83,14.83,0,0,1,2-6.06,11.38,11.38,0,0,1,4.88-4.37c1.66-.77,2.95-.92,3.84-.46s1,1.56.42,3.3a15.76,15.76,0,0,0-1.06,7.67,21.13,21.13,0,0,0,2.18,6.83c1,1.93,2.07,3.84,3.25,5.75s2.35,4,3.41,6a24.45,24.45,0,0,1,2.24,6.54,21.4,21.4,0,0,1-.85,9.28A46.1,46.1,0,0,1,207,76.86Z"/></svg>