<svg id="Layer_1" data-name="Layer 1" xmlns="http://www.w3.org/2000/svg" viewBox="0 0 92.08 123.66"><defs><style>.cls-1{fill:#231f20;}</style></defs><path class="cls-1" d="M6.47,43.28a6.15,6.15,0,0,1-3.3-3.48,26.61,26.61,0,0,1-2-6.79,70,70,0,0,1-1-8.18q-.24-4.2-.11-7.61A27.66,27.66,0,0,1,.6,12.1a6.42,6.42,0,0,1,2-3.25A7.44,7.44,0,0,1,5.85,7.1a4,4,0,0,1,3.09.42q1.34.83,1.47,3.3.13,4.95.09,10.82-.09,6.46.09,10.22a1.09,1.09,0,0,0,.3.71.34.34,0,0,0,.41,0,1,1,0,0,0,.35-.3c.92-1.86,2.15-4.51,3.71-7.93q3-6.6,6.28-13.27a72.73,72.73,0,0,1,5.19-9.38,4.71,4.71,0,0,1,2.4-1.6,3.26,3.26,0,0,1,2.5.25,3.34,3.34,0,0,1,1.56,2.27A8.37,8.37,0,0,1,32.88,7q-.83,2.43-3.53,8.3T23.27,27.74q-3.37,6.56-6.21,11A29.06,29.06,0,0,1,14.67,42a3.45,3.45,0,0,1-2.15,1.28c-.4,0-1,.06-1.81.09s-1.62.05-2.43.05A8.76,8.76,0,0,1,6.47,43.28Z"/><path class="cls-1" d="M35.81,48.49a9,9,0,0,1-5.87-2.77,11.89,11.89,0,0,1-2.84-5.89,19.86,19.86,0,0,1,0-7.41,22.73,22.73,0,0,1,2.71-7.31A17.09,17.09,0,0,1,35,19.49a13.41,13.41,0,0,1,7.56-2.22,12.13,12.13,0,0,1,4.27.66,8.27,8.27,0,0,1,3.39,2.23A7.52,7.52,0,0,1,52,24.05V25a9.72,9.72,0,0,0,.09,1.31,1.46,1.46,0,0,0,.46,1,2.87,2.87,0,0,0,1.56.34,9.35,9.35,0,0,1,2.27.28,2.68,2.68,0,0,1,1.67,1.24,3.77,3.77,0,0,1,.19,2.8c-.28,1.16-.59,2.52-.92,4.08q-1,4.58-2.25,9.69a72.37,72.37,0,0,1-2.56,8.6A4.93,4.93,0,0,1,49.89,57a6.09,6.09,0,0,1-3.67.33,5,5,0,0,1-3-2,5.46,5.46,0,0,1-.73-4.21c.18-.77.39-1.55.64-2.34.09-.28.17-.52.23-.74.21-.73.2-1.16,0-1.28s-.73,0-1.46.41A11,11,0,0,1,35.81,48.49ZM37,30.79a19.86,19.86,0,0,0-1.24,4.64,8.58,8.58,0,0,0,.27,4,3.4,3.4,0,0,0,2.52,2.22,2.71,2.71,0,0,0,2-.27,6.1,6.1,0,0,0,2.06-2,22.77,22.77,0,0,0,1.86-4.86c.72-2.42,1.4-5,2-7.71a3.09,3.09,0,0,0-.25-2.54,2.23,2.23,0,0,0-1.77-.85A5,5,0,0,0,41,24.49a9.79,9.79,0,0,0-2.45,2.91A21.27,21.27,0,0,0,37,30.79Z"/><path class="cls-1" d="M68.55,56.13A8.41,8.41,0,0,1,63.19,54a12.56,12.56,0,0,1-3.53-5.48,19.91,19.91,0,0,1-.6-8.4,34.16,34.16,0,0,1,2.57-9.55,25.21,25.21,0,0,1,5.22-8,3.38,3.38,0,0,1,2.07-.83,5.57,5.57,0,0,1,2.61.36,3.67,3.67,0,0,1,1.93,1.68,4,4,0,0,1,0,3.14c-.39,1-.82,2.22-1.28,3.53q-2,5.22-3.76,11a18.68,18.68,0,0,0-.8,4,7.54,7.54,0,0,0,.27,3.12A2.17,2.17,0,0,0,69.47,50a4.39,4.39,0,0,0,3.78-1.28,19.31,19.31,0,0,0,3.56-4.5A59.74,59.74,0,0,0,80,38.11q1.49-3.3,2.73-6.24A46.12,46.12,0,0,1,85.43,26a4.11,4.11,0,0,1,2.81-1.9,3.3,3.3,0,0,1,2.87.84A4,4,0,0,1,92,28.43c-.31,1.87-.94,4.82-1.91,8.85s-2,8.1-3.11,12.2-2,7.15-2.78,9.17a4.82,4.82,0,0,1-2.5,2.75,4.7,4.7,0,0,1-3.3.18,4.45,4.45,0,0,1-2.59-2,4.65,4.65,0,0,1-.32-3.74,9.34,9.34,0,0,0,.37-1.92c0-.34-.11-.48-.32-.42a2.79,2.79,0,0,0-.87.51,10.63,10.63,0,0,1-6.15,2.11Z"/><path class="cls-1" d="M12.54,101a5.34,5.34,0,0,1-2.64,3.55,6.27,6.27,0,0,1-4.22.67,5.33,5.33,0,0,1-3.57-2.48c-.91-1.37-1.14-3.35-.72-5.91q1.2-6.33,3.35-15.43T9.62,63.5a74,74,0,0,1,5.67-14,15.41,15.41,0,0,1,4.49-5.16q2.29-1.48,3.67-.62c.91.58,1.21,2,.87,4.31q-1.61,8.63-3.9,18.75t-4.63,20Q14,94.45,12.54,101Z"/><path class="cls-1" d="M19.52,104.32a11.56,11.56,0,0,1,2.61-3.67,9.22,9.22,0,0,1,3.25-2.06,2.62,2.62,0,0,1,2.63.28c.67.55.91,1.67.72,3.38-.3,2.58-.77,5.52-1.39,8.83s-1.21,6.16-1.75,8.53A5.18,5.18,0,0,1,23.45,123a4.26,4.26,0,0,1-3.18.57,5,5,0,0,1-2.87-1.71,4.92,4.92,0,0,1-1.15-3.49,38.27,38.27,0,0,1,1.07-7.11A45.38,45.38,0,0,1,19.52,104.32Zm8.19-13.86a2,2,0,0,1,1.65,1.69,2.92,2.92,0,0,1-.66,2.34,2.59,2.59,0,0,1-2.55.83,2.29,2.29,0,0,1-1.92-1.75,2.65,2.65,0,0,1,.64-2.38A2.9,2.9,0,0,1,27.71,90.46Z"/><path class="cls-1" d="M28.37,83.37a9.48,9.48,0,0,1-4.26-4.72,17.05,17.05,0,0,1-1.29-7A26.83,26.83,0,0,1,24,64.07a23.62,23.62,0,0,1,3.23-6.67A12.47,12.47,0,0,1,32,53.2a7.57,7.57,0,0,1,3.53-.76,2.66,2.66,0,0,1,2.25,1.31c.46.79.47,2,0,3.67-.24.79-.65,1.95-1.24,3.48q-1,2.67-2,5.8a31.24,31.24,0,0,0-1.36,5.73c-.21,1.73.05,2.95.78,3.65a3,3,0,0,0,2.55.48,8.21,8.21,0,0,0,3-1.31A19.38,19.38,0,0,0,43.23,72c1.16-1.32,2.27-2.69,3.35-4.13q1.5-1.87,2.91-3.48a15.08,15.08,0,0,1,2.72-2.52,4.67,4.67,0,0,1,3.1-.76A3.84,3.84,0,0,1,58,62.48a3.64,3.64,0,0,1,.46,3.37q-4.81,18.08-9.9,38.66Q47,110.64,45.66,116a4.44,4.44,0,0,1-2.41,2.93,6.85,6.85,0,0,1-3.92.6,6.11,6.11,0,0,1-3.58-1.7,5,5,0,0,1-1.37-3.94,87.86,87.86,0,0,1,2.47-13.25q2-8,4.5-15.68A13,13,0,0,0,42,82.5q.08-.69-.3-.6a6.23,6.23,0,0,0-1.19.55,17.44,17.44,0,0,1-1.65.87,13.43,13.43,0,0,1-5.57,1.17A10.7,10.7,0,0,1,28.37,83.37Z"/><path class="cls-1" d="M73.42,111.69A5,5,0,0,1,70.06,114a5.92,5.92,0,0,1-3.74-.68,6.08,6.08,0,0,1-2.64-2.72,4.43,4.43,0,0,1,0-3.83c.4-.94.79-1.82,1.18-2.65a38.21,38.21,0,0,0,2.65-6.67,11.72,11.72,0,0,0-.08-6.24A28.7,28.7,0,0,0,63.23,83a14,14,0,0,1-1.83-4.5,15.89,15.89,0,0,1-.31-5.3,12.32,12.32,0,0,1,1.67-5,9.55,9.55,0,0,1,4.06-3.64c1.39-.64,2.46-.77,3.2-.38s.86,1.3.35,2.75a13.17,13.17,0,0,0-.88,6.39A17.69,17.69,0,0,0,71.3,79c.83,1.61,1.73,3.21,2.72,4.8s2,3.32,2.84,5a20.18,20.18,0,0,1,1.86,5.45A17.64,17.64,0,0,1,78,102,38.24,38.24,0,0,1,73.42,111.69Z"/></svg>