<?xml version="1.0" encoding="utf-8"?>
<!-- Generator: Adobe Illustrator 27.5.0, SVG Export Plug-In . SVG Version: 6.00 Build 0)  -->
<svg version="1.1" id="Layer_1" xmlns="http://www.w3.org/2000/svg" xmlns:xlink="http://www.w3.org/1999/xlink" x="0px" y="0px"
	 viewBox="0 0 99 32.6" style="enable-background:new 0 0 99 32.6;" xml:space="preserve">
<style type="text/css">
	.st0{fill:#212121;}
</style>
<g id="layer1">
	<path id="path4" class="st0" d="M22,12.2c1.6,1.3,2.5,3.4,2.5,6.2v14.2h-7.8V19.5c0-0.6-0.2-1.1-0.6-1.5s-0.9-0.6-1.5-0.6H10
		c-0.6,0-1.1,0.2-1.5,0.6c-0.4,0.4-0.6,0.9-0.6,1.5v13.2H0V0h7.9v10.6c0.1,0,0.4-0.1,0.9-0.2c0.4-0.1,1-0.2,1.8-0.2h5
		C18.2,10.2,20.4,10.9,22,12.2L22,12.2z M46.8,10.2h7.9V24c0,2.6-0.7,4.7-2.1,6.3s-3.3,2.4-5.8,2.4H39c-2.7,0-4.9-0.8-6.5-2.2
		c-1.6-1.5-2.4-3.6-2.4-6.4V10.2H38v13.2c0,0.6,0.2,1.1,0.6,1.5s0.9,0.6,1.5,0.6h4.5c0.6,0,1.1-0.2,1.5-0.6c0.4-0.4,0.7-0.9,0.7-1.5
		V10.2L46.8,10.2z M60.6,0h7.9v32.6h-7.9C60.6,32.6,60.6,0,60.6,0z M99,10.2V24c0,2.6-0.7,4.7-2.1,6.3s-3.3,2.4-5.8,2.4h-7.7
		c-2.8,0-4.9-0.8-6.6-2.2c-1.6-1.5-2.4-3.6-2.4-6.4V10.2h7.9v13.2c0,0.6,0.2,1.1,0.6,1.5s0.9,0.6,1.5,0.6H89c0.6,0,1.1-0.2,1.5-0.6
		s0.6-0.9,0.6-1.5V10.2L99,10.2L99,10.2z"/>
</g>
</svg>
