<?xml version="1.0" encoding="utf-8"?>
<!-- Generator: Adobe Illustrator 27.5.0, SVG Export Plug-In . SVG Version: 6.00 Build 0)  -->
<svg version="1.1" id="Layer_1" xmlns="http://www.w3.org/2000/svg" xmlns:xlink="http://www.w3.org/1999/xlink" x="0px" y="0px"
	 viewBox="0 0 70.4 69.6" style="enable-background:new 0 0 70.4 69.6;" xml:space="preserve">
<style type="text/css">
	.st0{fill:#212121;}
</style>
<path class="st0" d="M35.2,0C15.8,0,0,15.6,0,34.8C0,54,15.8,69.6,35.2,69.6S70.4,54,70.4,34.8C70.4,15.6,54.6,0,35.2,0z M38.9,50.1
	h-5.4c-2.9,0-5.2-2.3-5.2-5.1V29.8h-4c-2.9,0-5.3-2.3-5.3-5.2s2.4-5.2,5.3-5.2h9.1c3,0,5.4,2.4,5.5,5.3V50.1z M46.2,29.8
	c-2.9,0-5.3-2.3-5.3-5.2s2.4-5.2,5.3-5.2s5.3,2.3,5.3,5.2S49.1,29.8,46.2,29.8z"/>
</svg>
