<?xml version="1.0" encoding="utf-8"?>
<!-- Generator: Adobe Illustrator 27.5.0, SVG Export Plug-In . SVG Version: 6.00 Build 0)  -->
<svg version="1.1" id="Layer_1" xmlns="http://www.w3.org/2000/svg" xmlns:xlink="http://www.w3.org/1999/xlink" x="0px" y="0px"
	 viewBox="0 0 136.5 70.4" style="enable-background:new 0 0 136.5 70.4;" xml:space="preserve">
<style type="text/css">
	.st0{fill:#212121;}
</style>
<path class="st0" d="M136.2,47.2c0.1-0.2,0.1-0.3,0.1-0.5c0.3,0.3,0.3,1.2,0,1.5c0,0-0.1-0.1-0.1-0.1c0,0,0-0.1,0-0.1
	c0,0,0,0.1,0,0.1c-0.1,1.3-1.5,2.5-2.8,2.5c-3.1,0.1-5.7-1-8-3.1c-0.1-0.1-0.3-0.3-0.4-0.5c-0.1,0.1-0.2,0.2-0.3,0.3
	c-2.1,2-4.6,3.1-7.4,3.2c-1,0-2,0.1-2.9-0.2c-3.3-0.8-5.6-3.7-5.6-7c0-2.6,0-5.2,0-7.9c0-0.4,0-0.8-0.1-1.2
	c-0.2-0.7-0.7-1.3-1.3-1.6c-2.1-1.1-4.8-1-6.5,1c-0.9,1-1.3,2.3-1.5,3.6c-0.1,1.1-0.1,2.3,0,3.4c0.2,1.5,0.3,3.1,0.4,4.6
	c0.1,0.8,0.2,1.5,0.2,2.3c0,1.4-1.2,2.7-2.6,2.9c-1.3,0.2-2.3-0.3-3.1-1.3c-0.3-0.4-0.4-0.9-0.5-1.4c0-0.1,0-0.2,0-0.3
	c-0.1,0.1-0.2,0.1-0.3,0.2c-2.3,2-5.1,3.2-8.1,3.8c-1.6,0.3-3.2,0.4-4.8,0.3c-2.7-0.3-5.2-1.1-7.3-3c-1.2-1-1.5-2.6-0.9-3.9
	c0.8-1.7,2.9-2.2,4.5-1.2c0.7,0.4,1.3,0.8,2,1.1c1.3,0.5,2.7,0.1,3.5-1c0.5-0.7,0.5-1.4,0-2c-0.4-0.7-1.1-1.1-1.8-1.5
	c-0.8-0.4-1.6-0.9-2.4-1.3c-1-0.6-1.8-1.4-2.4-2.3c-0.1-0.1-0.2-0.2-0.2-0.3c-0.3,0.4-0.7,0.8-1,1.2c-1.4,1.8-2.9,3.7-4.4,5.5
	c-1.6,1.8-3.3,3.6-5.3,4.9c-2.5,1.6-5.2,2.5-8.2,2.5c-2.8,0-5.2-1-7.4-2.6c-0.1-0.1-0.2-0.1-0.2-0.2c-0.1-0.1-0.1-0.1-0.2-0.2
	c-0.2,0.2-0.3,0.3-0.5,0.5c-2.4,2.4-5.3,3.3-8.7,2.5c-2.1-0.5-3.5-1.9-4.4-3.8c-0.6-1.3-0.9-2.7-0.9-4.2c0-2.6,0-5.1,0-7.7
	c0-1.3-1.1-2.5-2.3-2.7c-1.4-0.2-2.6,0.7-3,2c-0.1,0.3-0.1,0.6-0.1,0.8c0,4.2,0,8.4,0,12.6c0,1.5-1.2,2.8-2.8,3
	c-1.5,0.1-3-0.9-3.2-2.4C23,47.6,23,47,23,46.4c0-3.9,0-7.7,0-11.6c0-1.6-1.3-2.7-2.5-2.8c-1.3-0.1-2.6,1-2.8,2.2
	c-0.1,0.5,0,0.9,0,1.4c0,3.9,0,7.8,0,11.7c0,1.1-0.4,2-1.3,2.6c-1,0.7-2,0.7-3,0.3c-1.1-0.5-1.6-1.3-1.8-2.5c-0.1-0.5,0-1,0-1.4
	c0-3.8,0-7.7,0-11.5c0-1.7-1.4-2.9-3.1-2.7c-1.1,0.1-2.1,1.2-2.2,2.3c-0.1,0.5-0.1,1.1-0.3,1.6c-0.5,1.2-1.5,1.8-2.8,1.8
	c-1.3,0-2.3-0.6-2.8-1.8c-0.4-0.8-0.3-1.6-0.2-2.4c0.4-2.4,1.5-4.4,3.5-5.9c1.9-1.4,4.1-2,6.5-1.7c1.7,0.2,3.1,0.8,4.4,1.9
	c0.1,0.1,0.2,0.1,0.4,0c2-1.6,4.3-2.2,6.8-1.9c1.6,0.2,3.1,0.9,4.3,1.9c0,0,0.1,0.1,0.2,0.1c0.1-0.1,0.2-0.2,0.4-0.3
	c2-1.5,4.2-2,6.6-1.7c3.3,0.4,6.5,2.9,7.3,6.7c0.3,1.1,0.2,2.2,0.2,3.4c0,1.4,0,2.8,0,4.3c0,0.8,0,1.7,0.1,2.5
	c0,0.4,0.2,0.7,0.3,1.1c0.2,0.4,0.5,0.6,1,0.6c1.4,0,2.6-1.2,2.7-2.6c0-1.3,0-2.6,0-3.9c0-5.6,3.8-10.6,9.2-11.9
	c4.8-1.2,9,0.1,12.4,3.7c1.4,1.5,2.4,3.4,2.8,5.4c0,0.1,0,0.2,0.1,0.2c0,0,0,0,0.1,0.1c0.1-0.1,0.2-0.2,0.2-0.4
	c1-2.6,2.5-4.8,4.6-6.6c2.2-1.9,4.6-3.2,7.5-3.4c1.6-0.1,3.2,0.1,4.7,0.6c0.6,0.2,1.2,0.4,1.7,0.9c0.9,0.9,1.1,2.4,0.6,3.5
	c-0.6,1.2-1.9,1.9-3.2,1.6c-1.1-0.2-2.2-0.3-3.3-0.1c-0.4,0.1-0.8,0.2-1,0.5c-0.4,0.3-0.4,0.6-0.1,1c0.5,0.6,1.2,1,1.9,1.3
	c1.2,0.6,2.4,1.2,3.3,2.2c1.8,1.6,2.7,3.6,2.8,6.1c0,0.4-0.1,0.9-0.1,1.3c0.1-0.1,0.2-0.1,0.3-0.2c1.4-1.3,2.8-2.7,3.8-4.3
	c0.2-0.3,0.3-0.7,0.2-1c-0.2-1.5-0.3-3.1-0.5-4.7c-0.2-2.1-0.5-4.2-0.8-6.3c-0.3-2.2-0.6-4.3-0.8-6.5c-0.2-1.9-0.4-3.9-0.5-5.8
	c-0.2-3-0.1-6.1,0.9-9c0.5-1.6,1.2-3,2.4-4.2c0.9-1,2-1.8,3.4-2c2.4-0.4,4.4,0.4,5.9,2.3c1.1,1.3,1.7,2.9,2.1,4.5
	c0.4,1.6,0.6,3.2,0.7,4.9s0.2,3.3-0.1,4.9c-0.2,1.7-0.5,3.5-0.8,5.2c-0.2,1.2-0.6,2.5-0.9,3.7c0,0,0,0.1,0,0.1
	c0.4,0,0.8,0.1,1.2,0.1c2.7,0.2,5.1,1,7,3c1.6,1.7,2.4,3.7,2.5,6c0,2.6,0,5.3,0,7.9c0,0.1,0,0.1,0,0.2c-0.1,1.1,0.6,1.5,1.4,1.5
	c2.6,0.1,4.4-1.4,5.2-3.1c0.3-0.6,0.4-1.2,0.4-1.8c0-3.3,0-6.7,0.1-10c0-0.7-0.1-1.4,0.3-2.1c0.6-1.1,1.9-1.8,3.1-1.6
	c1.6,0.2,2.5,1.3,2.7,2.5c0,0.1,0,0.3,0,0.5c0,3.3,0,6.6,0,10c0,1,0.1,2,0.6,2.9c0.9,1.7,2.3,2.7,4.3,2.8c0.6,0,1.3,0.1,1.8,0.4
	c0.8,0.5,1.3,1.1,1.4,2C136.2,46.9,136.2,47,136.2,47.2L136.2,47.2z M57,44.3c3.3,0,6.2-2.8,6.3-6.2c0-3.4-2.8-6.3-6.3-6.3
	c-3.6,0-6.2,2.9-6.2,6.2C50.8,41.7,53.8,44.4,57,44.3L57,44.3z M97.7,25.8l0.1,0c0.1-0.1,0.1-0.2,0.2-0.3c0.1-0.4,0.2-0.8,0.3-1.2
	c0.6-2.5,1.2-5,1.5-7.5c0.3-2.8,0.2-5.5-0.4-8.2c-0.2-0.7-0.4-1.4-0.9-2.1c-0.1-0.2-0.2-0.2-0.3,0c-0.2,0.5-0.5,0.9-0.7,1.4
	c-0.6,1.5-0.8,3.1-0.8,4.7c-0.1,2.8,0.3,5.5,0.5,8.2c0.1,1.3,0.3,2.6,0.4,3.9C97.6,25,97.7,25.4,97.7,25.8L97.7,25.8z"/>
<path class="st0" d="M61.1,62.5c-0.1,0.2-0.2,0.2-0.3,0.3c-0.9,1.9-1.7,3.8-2.6,5.8c-0.2,0.5-0.4,1-0.7,1.5
	c-0.1-0.1-0.2-0.2-0.2-0.3c-0.8-1.7-1.5-3.5-2.3-5.2c-0.2-0.5-0.4-1-0.7-1.5c-0.1-0.2-0.2-0.3-0.3-0.5C54,62.6,54,62.6,54,62.7
	c-0.3,1.6-0.5,3.2-0.8,4.8c-0.1,0.6-0.2,1.2-0.3,1.8c0,0.1-0.1,0.2-0.2,0.2c-0.5,0-1.1,0-1.6,0c0,0,0,0-0.1,0
	c0.8-4.2,1.6-8.4,2.5-12.6c0.1,0.1,0.2,0.2,0.2,0.2c1.1,2.4,2.1,4.8,3.2,7.3c0.2,0.4,0.4,0.9,0.6,1.3c0,0.1,0.1,0.1,0.2,0.2
	c1.4-3.1,2.8-6.1,4.2-9.1c0,0,0,0,0,0c0.7,4.2,1.5,8.4,2.2,12.6c-0.1,0-0.2,0-0.2,0c-0.5,0-0.9,0-1.4,0c-0.2,0-0.2,0-0.2-0.2
	c-0.2-1.6-0.5-3.2-0.8-4.9C61.2,63.8,61.2,63.2,61.1,62.5L61.1,62.5z"/>
<path class="st0" d="M107.1,69.5V56.9c0.1,0.1,0.2,0.2,0.3,0.3c2.4,2.5,4.8,5,7.2,7.5c0.3,0.3,0.6,0.6,0.9,0.9
	c0.1,0.1,0.2,0.1,0.3,0.2v-8.2h1.9c0,0.8,0,1.6,0,2.4c0,2.7,0,5.5,0,8.2c0,0.7-0.1,1.4-0.1,2.1c0,0,0,0.1,0,0.1
	c-0.2-0.3-0.4-0.6-0.6-0.8c-2.3-2.4-4.6-4.8-6.9-7.2c-0.3-0.3-0.6-0.6-0.8-0.9c-0.1-0.1-0.2-0.2-0.3-0.3c0,0.3,0.1,0.5,0.1,0.7
	c0,1.3,0,2.7,0,4c0,1.1,0,2.2,0,3.3c0,0.1-0.1,0.2-0.1,0.2C108.3,69.5,107.7,69.5,107.1,69.5L107.1,69.5z"/>
<path class="st0" d="M31.8,56.9c2.9,3,5.7,6,8.6,9c0,0,0,0,0.1,0v-8.1c0.1,0,0.2,0,0.3,0c0.4,0,0.8,0,1.2,0c0.2,0,0.3,0.1,0.3,0.3
	c0,0.3,0,0.7,0,1c0,2.8,0,5.6,0,8.5c0,0.9,0.1,1.8,0.1,2.6c0,0.1,0,0.2,0,0.3c-0.7-0.9-1.5-1.7-2.3-2.5c-2-2.1-3.9-4.1-5.9-6.2
	c-0.1-0.2-0.3-0.3-0.4-0.5c0,0-0.1,0-0.1,0.1c0,0.1,0,0.2,0,0.2c0,2.4,0,4.8,0,7.2c0,0.1,0,0.2,0,0.3c0,0.4,0,0.4-0.4,0.4
	c-0.4,0-0.8,0-1.2,0c-0.1,0-0.2,0-0.2-0.2c0-3.3,0-6.6,0-10c0-0.7,0-1.3,0-2C31.8,57.3,31.8,57.1,31.8,56.9L31.8,56.9z"/>
<path class="st0" d="M92.1,63.6c-0.3-2.6,2.1-5.8,5.3-6.1c3.6-0.4,6,1.9,6.7,4.3c1.3,4.3-1.9,7.6-5.1,7.9c-2.5,0.3-4.5-0.6-6-2.7
	c-0.6-0.8-0.9-1.8-0.9-2.9C92.1,64,92.1,63.8,92.1,63.6z M93.8,63.6c-0.1,2.4,2.2,4.6,4.5,4.5c2.3-0.1,4.4-2.1,4.3-4.5
	c0-2.5-2.2-4.5-4.6-4.4C95.6,59.2,93.7,61.4,93.8,63.6z"/>
<path class="st0" d="M128.8,17.3c0,2.1-1.2,3.6-3.3,4c-2.4,0.4-4.2-1.4-4.4-3.4c-0.1-1.1,0.1-2.1,0.8-3.1c1-1.3,2.7-1.8,4.3-1.3
	c1.5,0.5,2.6,1.9,2.6,3.5C128.8,17,128.8,17.2,128.8,17.3z"/>
<path class="st0" d="M65.6,69.5c2-4.2,3.9-8.4,5.9-12.6c1.9,4.2,3.8,8.4,5.7,12.6c-0.2,0-0.5,0-0.7,0c-0.3,0-0.6,0-0.9,0
	c-0.2,0-0.4-0.1-0.5-0.3c-0.3-0.7-0.6-1.5-0.9-2.2c-0.1-0.3-0.3-0.4-0.6-0.4c-1.4,0-2.8,0-4.2,0c-0.3,0-0.5,0.1-0.6,0.4
	c-0.3,0.8-0.7,1.5-1,2.3c0,0.1-0.1,0.2-0.2,0.2C66.8,69.5,66.2,69.5,65.6,69.5L65.6,69.5z M69.6,64.9h3.6c-0.1-0.2-0.2-0.4-0.2-0.6
	c-0.4-1-0.9-2.1-1.3-3.1c0-0.1-0.1-0.1-0.2-0.2c-0.1,0.1-0.1,0.1-0.2,0.2c-0.4,0.8-0.7,1.7-1.1,2.5C70,64.1,69.8,64.5,69.6,64.9
	L69.6,64.9z"/>
<path class="st0" d="M29.9,69.5c-0.6,0-1.2,0-1.8,0c-0.1,0-0.2-0.1-0.3-0.2c-0.4-0.8-0.7-1.6-1-2.4c-0.1-0.2-0.2-0.3-0.4-0.3
	c-1.5,0-3,0-4.6,0c-0.1,0-0.3,0.1-0.3,0.2c-0.4,0.8-0.7,1.6-1.1,2.4c-0.1,0.2-0.2,0.2-0.4,0.2c-0.5,0-0.9,0-1.3,0
	c-0.3,0-0.4-0.1-0.2-0.4c1-2.1,2-4.1,3-6.2c0.9-1.9,1.7-3.8,2.6-5.6c0-0.1,0.1-0.2,0.2-0.4C26.1,61.1,28,65.3,29.9,69.5z M24.2,61
	C24.2,61,24.2,61,24.2,61c-0.7,1.3-1.3,2.6-1.9,3.9h3.6C25.4,63.6,24.8,62.3,24.2,61z"/>
<path class="st0" d="M84.8,59.3h-2.7v10.2h-1.8V59.3c-0.5,0-1,0-1.4,0c-0.4,0-0.7,0-1.1,0c-0.1,0-0.2-0.1-0.2-0.2c0-0.5,0-1,0-1.5
	c0.1,0,0.2,0,0.3,0c1.5,0,3.1,0,4.6,0c0.7,0,1.4,0,2.1,0c0.2,0,0.3,0,0.3,0.3C84.8,58.4,84.8,58.8,84.8,59.3L84.8,59.3z"/>
<path class="st0" d="M76.3,13.7c1.6,0,2.9,0.8,3.4,2.2c0.7,2.1-0.4,4.3-2.6,4.7c-1.4,0.3-2.7-0.1-3.6-1.2c-1.5-1.8-0.7-5,2.1-5.6
	C75.8,13.7,76.1,13.7,76.3,13.7L76.3,13.7z M78.3,17.2c0.1-1.4-1.2-2.2-2-2.2c-1.1,0-2,1-2.1,2.1c0,1.1,1,2.1,2,2.1
	C77.3,19.3,78.4,18.4,78.3,17.2z"/>
<path class="st0" d="M52.6,20.5c0-0.1,0-0.3,0-0.4c0-1.9,0-3.9,0-5.8c0-0.5,0-0.5,0.5-0.5c0.8,0,1.7,0,2.5,0
	c1.8,0.1,3.1,1.5,3.2,3.2c0.1,1.6-1,3.1-2.7,3.4c-0.4,0.1-0.9,0.1-1.3,0.1C54.1,20.5,53.4,20.5,52.6,20.5L52.6,20.5z M54.1,19.2
	c0.5,0,1,0,1.5,0c1-0.1,1.7-0.8,1.7-1.7c0.1-1-0.4-1.9-1.3-2.2c-0.6-0.2-1.2-0.1-1.8-0.1L54.1,19.2L54.1,19.2z"/>
<path class="st0" d="M40.4,16c0-0.6,0-1.3,0-1.9c0-0.2,0.1-0.3,0.3-0.3c0.3,0,0.6,0,1,0c0.2,0,0.3,0.1,0.3,0.3c0,1,0,2,0,2.9
	c0,0.4,0,0.7,0,1c0.1,0.7,0.7,1.3,1.5,1.2c0.8,0,1.4-0.5,1.4-1.3c0-1.3,0-2.5,0-3.8c0-0.4,0-0.4,0.4-0.4c0.3,0,0.6,0,0.9,0
	c0.1,0,0.2,0.1,0.2,0.2c0,1.4,0,2.8,0,4.2c-0.1,1.5-1,2.4-2.6,2.5c-0.9,0-1.7-0.1-2.4-0.7c-0.5-0.5-0.8-1-0.8-1.7
	C40.4,17.5,40.4,16.7,40.4,16C40.4,16,40.4,16,40.4,16L40.4,16z"/>
<path class="st0" d="M19,18.5c0.6,0.5,1.2,0.8,1.9,0.9c0.3,0,0.7,0,0.9-0.3c0.3-0.2,0.3-0.5,0-0.8c-0.2-0.1-0.4-0.2-0.7-0.3
	c-0.6-0.2-1.2-0.3-1.7-0.6c-1.2-0.5-1.4-2.2-0.4-3.1c0.7-0.6,1.5-0.7,2.3-0.6c0.7,0.1,1.3,0.3,1.8,0.6c0.2,0.1,0.2,0.2,0.1,0.4
	c-0.2,0.2-0.4,0.5-0.5,0.7c-0.1,0.2-0.2,0.1-0.3,0.1c-0.4-0.2-0.8-0.4-1.2-0.5c-0.5-0.1-0.9,0-1.1,0.4c-0.1,0.2-0.1,0.3,0,0.4
	c0.2,0.2,0.4,0.3,0.6,0.4c0.4,0.1,0.8,0.2,1.2,0.3c0.2,0.1,0.4,0.1,0.6,0.2c0.8,0.4,1.2,1,1.1,1.9c-0.1,0.9-0.6,1.5-1.5,1.7
	c-1.4,0.4-2.6,0.1-3.7-0.8c-0.2-0.1-0.2-0.2,0-0.4C18.5,19,18.8,18.7,19,18.5L19,18.5z"/>
<path class="st0" d="M88.9,57.7v11.8c-0.6,0-1.1,0-1.7,0c0,0-0.1-0.1-0.1-0.2c0-1.6,0.1-3.2,0.1-4.9c0-0.8,0-1.7,0-2.5
	c0-1.3,0-2.6-0.1-3.9c0-0.2,0.1-0.3,0.3-0.3C87.9,57.7,88.4,57.6,88.9,57.7L88.9,57.7z"/>
<path class="st0" d="M45.9,57.7c0.6,0,1.1,0,1.6,0c0.2,0,0.2,0.1,0.2,0.3c0,2.5,0,5,0,7.5c0,1.3,0,2.6,0,3.9c0,0.1-0.1,0.2-0.1,0.2
	c-0.5,0-1.1,0-1.6,0c0,0,0,0,0,0S45.9,57.7,45.9,57.7z"/>
<path class="st0" d="M34.5,13.8v1.3c-0.2,0-0.3,0-0.5,0c-0.4,0-0.8,0-1.2,0c-0.3,0-0.3,0.1-0.3,0.4c0,1.2,0,2.5,0,3.7
	c0,0.4,0,0.8,0,1.1c0,0.1-0.1,0.2-0.2,0.2c-0.4,0-0.9,0-1.4,0v-5.4h-2.1c0-0.4,0-0.7,0-1c0-0.2,0.1-0.3,0.3-0.3c1.6,0,3.3,0,4.9,0
	C34.3,13.8,34.4,13.8,34.5,13.8L34.5,13.8z"/>
<path class="st0" d="M65.1,13.8c0.4,0,0.8,0,1.2,0c0.2,0,0.3,0.1,0.3,0.3c0,1.8,0,3.7,0,5.5c0,0.2,0,0.5,0,0.8
	c0,0.1-0.1,0.2-0.2,0.2c-0.4,0-0.9,0-1.3,0L65.1,13.8L65.1,13.8z"/>
</svg>
