<svg xmlns="http://www.w3.org/2000/svg" xmlns:xlink="http://www.w3.org/1999/xlink" viewBox="0 0 183.82 98.32"><defs><style>.cls-1{fill:none;}.cls-2{clip-path:url(#clip-path);}.cls-3{fill:#231f20;}</style><clipPath id="clip-path" transform="translate(-7.43 -1.73)"><rect class="cls-1" x="-37.52" y="-42.95" width="273.72" height="187.95"/></clipPath></defs><title>logo_menu</title><g class="cls-2"><path class="cls-3" d="M37.63,11.1H48.47v9.66H37.63V35.34c0,5.12,3.37,7.1,7.91,7.1a22.91,22.91,0,0,0,3.66-.37v9.81a27.52,27.52,0,0,1-6.37.66c-10.76,0-16.55-6.37-16.55-16.47V20.76H20.57V11.1h5.79V1.73H37.63Z" transform="translate(-7.43 -1.73)"/><path class="cls-3" d="M170.38,24.57V51.66H158.67V27.94c0-5-2.2-7.25-6.45-7.25a6.71,6.71,0,0,0-7,7v24H133.48V11.1h9.08l1.17,5.71H144a14.26,14.26,0,0,1,12.23-6.74c8.78,0,14.2,5.42,14.2,14.5" transform="translate(-7.43 -1.73)"/><path class="cls-3" d="M19.15,63.07a15.22,15.22,0,0,1,12.88-7c9.45,0,17.8,8.35,17.8,21.31S41,98.72,31.59,98.72a15.29,15.29,0,0,1-13.18-7.24L17.24,97.7H7.43V38.9H19.15Zm9.3,25.11c5.49,0,9.51-4.47,9.51-10.69s-4-10.84-9.59-10.84S19,71.12,19,77.42,23,88.18,28.45,88.18" transform="translate(-7.43 -1.73)"/><path class="cls-3" d="M191.25,70.83V97.7H179.53V73.25c0-4.4-1.46-6.52-5.41-6.52s-5.93,2.78-5.93,6.08V97.7H156.47V73.25c0-4.4-1.46-6.52-5.42-6.52s-5.86,3.08-5.86,6.59V97.7H133.48V57.14h9.08l1.17,5.63H144a12.6,12.6,0,0,1,11.27-6.66c5.72,0,9.3,2.71,11.35,6.89,2.64-4.25,6.52-6.89,11.65-6.89,8.86,0,13,5.86,13,14.72" transform="translate(-7.43 -1.73)"/><path class="cls-3" d="M53.84,31.54A22.48,22.48,0,1,1,76.31,54,22.47,22.47,0,0,1,53.84,31.54" transform="translate(-7.43 -1.73)"/><path class="cls-3" d="M102.75,31.54A12.77,12.77,0,1,1,115.52,44.3a12.77,12.77,0,0,1-12.77-12.76" transform="translate(-7.43 -1.73)"/><path class="cls-3" d="M128.29,77.58A22.48,22.48,0,1,1,105.81,55.1a22.47,22.47,0,0,1,22.48,22.48" transform="translate(-7.43 -1.73)"/><path class="cls-3" d="M79.38,77.58A12.77,12.77,0,1,1,66.61,64.81,12.76,12.76,0,0,1,79.38,77.58" transform="translate(-7.43 -1.73)"/></g></svg>