<?xml version="1.0" encoding="utf-8"?>
<!-- Generator: Adobe Illustrator 27.7.0, SVG Export Plug-In . SVG Version: 6.00 Build 0)  -->
<svg version="1.1" id="Layer_1" xmlns="http://www.w3.org/2000/svg" xmlns:xlink="http://www.w3.org/1999/xlink" x="0px" y="0px"
	 viewBox="0 0 109.5 118.3" style="enable-background:new 0 0 109.5 118.3;" xml:space="preserve">
<style type="text/css">
	.st0{fill:none;stroke:#000000;stroke-width:1.7196;stroke-linecap:round;stroke-linejoin:round;stroke-miterlimit:10;}
	.st1{fill:#FFFFFF;}
	.st2{fill:none;stroke:#FFFFFF;stroke-width:1.7196;stroke-linecap:round;stroke-linejoin:round;stroke-miterlimit:10;}
	.st3{fill:none;stroke:#FFFFFF;stroke-width:1.885;stroke-linecap:round;stroke-linejoin:round;stroke-miterlimit:10;}
</style>
<g>
	<path class="st0" d="M54.8,9.8"/>
	<path class="st0" d="M54.8,42.7"/>
	<path class="st1" d="M54.8,9.8L54.8,9.8c-9.1,18.3-28,18.4-28,18.4l-0.6,7.7c-4-0.3-7.4,2.6-7.5,6.9c0.1,7.7,6.5,7.7,6.5,7.7
		c1.1,20.6,24.2,20.7,24.2,20.7l0,0c-1,9.5-5.5,17.1-12.2,21h0c0,0-2.4-4.5-6.2-7.6c-3-2.5-7,1.7-4.3,4.5c0,0,0.1,0.1,0.1,0.1
		c0.6,0.6,0.1,1.6-0.7,1.4c-5.3-1.2-9.3-5.9-9.3-11.5c0-2,0.9-4.7,0.9-4.7c-1.8,1.2-4.1,2-6.4,2c-5.3,0-9.8-3.6-11.1-8.5
		c-0.2-0.9,0.6-1.6,1.5-1.3c0.9,0.4,2.2,0.7,4,0.7c5.1,0,9.3-4.1,9.3-9.3l0-18.9C14.7,17.4,32.1,0,53.6,0l1,0l0.3,0l1,0
		c21.5,0,38.9,17.4,38.9,38.9v18.9c0,5.1,4.1,9.3,9.3,9.3c1.8,0,3.1-0.3,4-0.7c0.8-0.3,1.7,0.4,1.5,1.3c-1.3,4.9-5.8,8.5-11.1,8.5
		c-2.4,0-4.6-0.7-6.4-2c0,0,0.9,2.6,0.9,4.7c0,5.6-4,10.4-9.3,11.5c-0.8,0.2-1.3-0.8-0.7-1.4c0,0,0.1-0.1,0.1-0.1
		c2.7-2.8-1.3-7-4.3-4.5c-3.7,3.1-6.2,7.6-6.2,7.6h0c-6.7-3.8-11.2-11.5-12.2-21l0,0c0,0,23-0.1,24.2-20.7c0,0,6.4,0,6.5-7.7
		c-0.1-4.2-3.5-7.1-7.5-6.9l-0.6-7.7C82.8,28.2,63.9,28.1,54.8,9.8"/>
	<path class="st2" d="M49.3,72c3.7,0.1,7.3,0.1,10.8,0"/>
	<g>
		<path class="st2" d="M25.9,54.3l0.2,0c5.3-1.4,10.9,1.2,13.1,6.4c1.1,2.6,1.1,5.5,0.2,7.9"/>
		<path class="st2" d="M83.6,54.3c-5.3-1.4-10.9,1.2-13.1,6.4c-1.1,2.6-1.1,5.5-0.2,7.9"/>
		<g>
			<circle class="st2" cx="40.7" cy="40.4" r="11"/>
			<line class="st2" x1="29.9" y1="34.3" x2="31.2" y2="34.3"/>
		</g>
		<path class="st1" d="M41.1,37C41.1,37,41.1,37,41.1,37l-3.2,0c-0.5,0-0.9,0.4-0.9,0.9c0,0.5,0.4,0.9,0.9,0.9h0.3
			c-0.3,0.5-0.5,1.1-0.5,1.8c0,2,1.5,3.7,3.3,3.7c1.8,0,3.3-1.6,3.3-3.7C44.4,38.6,42.9,37,41.1,37z"/>
		<path class="st1" d="M72.9,37.9c0-0.5-0.4-0.9-0.9-0.9h-3.2c0,0,0,0,0,0c-1.8,0-3.3,1.6-3.3,3.6c0,2,1.5,3.7,3.3,3.7
			c1.8,0,3.3-1.6,3.3-3.7c0-0.7-0.2-1.3-0.5-1.8H72C72.5,38.8,72.9,38.4,72.9,37.9z"/>
		<line class="st3" x1="52.5" y1="40.1" x2="57.8" y2="40.1"/>
		<g>
			<circle class="st2" cx="69.2" cy="40.4" r="11"/>
			<line class="st2" x1="80" y1="34.3" x2="78.7" y2="34.3"/>
		</g>
		<path class="st2" d="M59.5,54.8L59.5,54.8c-2.9,1.4-6.3,1.4-9.2,0l0,0"/>
	</g>
	<g>
		<path class="st1" d="M57,97.3c0-1.2-1-2.2-2.2-2.2c-1.2,0-2.2,1-2.2,2.2c0,1.2,1,2.2,2.2,2.2C56,99.4,57,98.5,57,97.3z"/>
		<path class="st1" d="M59.3,83.7h-9.1C47.7,88.8,44,93,39.3,95.7c0,0.1,0.1,0.3,0.1,0.4l13.8,22.2v-8.3l0-7.8
			c-2.1-0.6-3.6-2.5-3.6-4.8c0-2.8,2.3-5.1,5.1-5.1c2.8,0,5.1,2.3,5.1,5.1c0,2.3-1.5,4.2-3.6,4.8v16.2l13.8-22.2
			c0.1-0.1,0.1-0.2,0.1-0.4C65.5,93,61.8,88.8,59.3,83.7z"/>
	</g>
</g>
</svg>
