<?xml version="1.0" encoding="utf-8"?>
<!-- Generator: Adobe Illustrator 27.7.0, SVG Export Plug-In . SVG Version: 6.00 Build 0)  -->
<svg version="1.1" id="Layer_1" xmlns="http://www.w3.org/2000/svg" xmlns:xlink="http://www.w3.org/1999/xlink" x="0px" y="0px"
	 viewBox="0 0 74.4 32.9" style="enable-background:new 0 0 74.4 32.9;" xml:space="preserve">
<style type="text/css">
	.st0{fill:none;stroke:#000000;stroke-width:2.9411;stroke-linecap:round;stroke-linejoin:round;stroke-miterlimit:10;}
</style>
<g>
	<line class="st0" x1="48.4" y1="8.4" x2="48.4" y2="7.2"/>
	<path class="st0" d="M67.7,24.5c0.9,0.3,1.8,0.6,2.7,0.5s1.8-0.7,2-1.6c0.2-0.8-0.3-1.6-1-2.1c-0.7-0.5-1.6-0.8-2.1-1.5
		c-0.6-0.9-0.1-2.2,0.7-2.9c0.8-0.7,1.9-0.9,3-1.2"/>
	<path class="st0" d="M3.5,11.9C1.6,15-0.2,24.2,4.1,26.4c1,0.5,2.2,0.3,3.1-0.4C8.9,24.7,9,22.3,9,20.4c0-2.7,0.1-5.3,0.6-7.9
		c1-5.1,4.7-10.9,10.5-11"/>
	<path class="st0" d="M20,15.8c-2.5,0.5-5.7,2-6.7,4.7c-0.4,1.1-0.1,2.6,1,3.2c0.8,0.4,1.8,0.2,2.7-0.3c2.9-1.5,5.7-3.5,8-5.8
		c-0.9,0.9-3,3.5-1.7,4.7c2.4,2,6.5-3.4,7.9-4.6c-0.1,0.7-0.3,1.4-0.3,2.1c0,0.8,0.3,1.7,1,2.2c0.8,0.6,2.1,0.5,3,0
		c2.8-1.5,4.3-4.5,5.2-7.4c0.6-2.1,1.5-4.2,1.9-6.4c0.2-1.6,0.3-4.7-1.5-5.4c-3.8-1.4-3,7.4-2.8,9.1c0.4,3.1,1.4,6.3,3.2,9
		c0.4,0.6,0.8,1.1,1.4,1.4c1,0.5,2.3,0.2,3.2-0.5c2.3-2,0.9-5.1,2.6-7.3c0.3-0.3,0.7-0.6,1.1-0.4c0.4,0.1,0.6,0.4,0.7,0.8
		c0.7,1.7-0.2,4,1.2,5.2c1,0.9,2.7,0.4,3.6-0.6s1-2.5,1.1-3.8c-0.9,1.6-0.7,4.6,1.4,5.3c1.3,0.4,2.7-0.5,3.3-1.7
		c0.6-1.2,0.5-2.7,0.4-4c-0.2,4.6-0.2,10.5-3.8,13.9c-3,2.9-7.4,3.3-11,1.1c-0.7-0.5-1.5-1.1-1.4-2c0-1.1,1.2-1.8,2.3-2
		c3.7-0.9,7.5,0.6,11.2,0.5c3.9-0.1,6.2-2.3,8.1-5.5c1.4-2.3,3.6-5.9,6.8-5.4"/>
</g>
</svg>
