<?xml version="1.0" encoding="utf-8"?>
<!-- Generator: Adobe Illustrator 27.7.0, SVG Export Plug-In . SVG Version: 6.00 Build 0)  -->
<svg version="1.1" id="Layer_1" xmlns="http://www.w3.org/2000/svg" xmlns:xlink="http://www.w3.org/1999/xlink" x="0px" y="0px"
	 viewBox="0 0 50 50" style="enable-background:new 0 0 50 50;" xml:space="preserve">
<style type="text/css">
	.st0{stroke:#FFFFFF;stroke-width:2.8646;stroke-linecap:round;stroke-linejoin:round;stroke-miterlimit:10;}
</style>
<g>
	<path d="M35.1,3.3H14.9c-0.8,0-1.4-0.6-1.4-1.4s0.6-1.4,1.4-1.4h20.3c0.8,0,1.4,0.6,1.4,1.4S35.9,3.3,35.1,3.3z"/>
	<g>
		<path d="M27.2,27.6c0-1.3-1-2.2-2.2-2.2c-1.3,0-2.2,1-2.2,2.2c0,1.3,1,2.2,2.2,2.2C26.3,29.8,27.2,28.8,27.2,27.6z"/>
		<path d="M29.7,13.6h-9.4c-2.6,5.3-6.4,9.6-11.2,12.5c0,0.1,0.1,0.3,0.1,0.4l14.3,22.7v-8.6v-8.1c-2.1-0.6-3.6-2.6-3.6-4.9
			c0-2.9,2.3-5.2,5.2-5.2s5.2,2.3,5.2,5.2c0,2.3-1.6,4.3-3.8,4.9v16.6l14.3-22.7c0.1-0.1,0.1-0.3,0.1-0.4
			C36,23.2,32.3,18.9,29.7,13.6z"/>
	</g>
</g>
</svg>
