<?xml version="1.0" encoding="utf-8"?>
<!-- Generator: Adobe Illustrator 27.7.0, SVG Export Plug-In . SVG Version: 6.00 Build 0)  -->
<svg version="1.1" id="Layer_1" xmlns="http://www.w3.org/2000/svg" xmlns:xlink="http://www.w3.org/1999/xlink" x="0px" y="0px"
	 viewBox="0 0 55 84.3" style="enable-background:new 0 0 55 84.3;" xml:space="preserve">
<style type="text/css">
	.st0{fill:#FFFFFF;stroke:#FFFFFF;stroke-width:4.9626;stroke-linecap:round;stroke-linejoin:round;stroke-miterlimit:10;}
	.st1{fill:none;stroke:#FFFFFF;stroke-width:4.9626;stroke-linecap:round;stroke-linejoin:round;stroke-miterlimit:10;}
	.st2{fill:none;stroke:#000000;stroke-width:4.9626;stroke-linecap:round;stroke-linejoin:round;stroke-miterlimit:10;}
</style>
<g>
	<path class="st0" d="M31.7,53.9"/>
	<g>
		<path class="st1" d="M14.2,2.5"/>
		<path class="st1" d="M49.4,2.5"/>
	</g>
	<path d="M27.6,53.9"/>
	<line class="st2" x1="10" y1="2.5" x2="45" y2="2.5"/>
	<g>
		<path d="M31.4,46.9c0-2.1-1.7-3.9-3.9-3.9c-2.2,0-3.9,1.8-3.9,3.9c0,2.2,1.7,3.9,3.9,3.9C29.7,50.8,31.4,49,31.4,46.9z"/>
		<path d="M35.6,22.7H19.4C14.9,31.9,8.3,39.4,0,44.2c0.1,0.2,0.1,0.4,0.2,0.6l24.7,39.5V69.5l0-14c-3.7-1.1-6.4-4.5-6.4-8.6
			c0-5,4-9,9-9s9,4,9,9c0,4.1-2.7,7.5-6.4,8.6v28.8l24.7-39.5c0.1-0.2,0.2-0.4,0.2-0.6C46.7,39.4,40.1,31.9,35.6,22.7z"/>
	</g>
</g>
</svg>
