<?xml version="1.0" encoding="utf-8"?>
<!-- Generator: Adobe Illustrator 27.7.0, SVG Export Plug-In . SVG Version: 6.00 Build 0)  -->
<svg version="1.1" id="Layer_1" xmlns="http://www.w3.org/2000/svg" xmlns:xlink="http://www.w3.org/1999/xlink" x="0px" y="0px"
	 viewBox="0 0 161.2 227.9" style="enable-background:new 0 0 161.2 227.9;" xml:space="preserve">
<style type="text/css">
	.st0{fill:none;stroke:#000000;stroke-width:4.219;stroke-linecap:round;stroke-linejoin:round;stroke-miterlimit:10;}
	.st1{fill:none;stroke:#000000;stroke-width:2.5314;stroke-linecap:round;stroke-linejoin:round;stroke-miterlimit:10;}
	.st2{fill:none;stroke:#000000;stroke-width:2.7748;stroke-linecap:round;stroke-linejoin:round;stroke-miterlimit:10;}
</style>
<g>
	<g>
		<g>
			<path class="st0" d="M98.4,11.8c0.1-0.5,0.2-1,0.3-1.5"/>
			<path class="st0" d="M117.8,39.8c0.8,0.9,1.6,1.8,2.7,2.3c1.1,0.5,2.5,0.6,3.3-0.2c0.7-0.7,0.8-1.9,0.3-2.9
				c-0.5-1.1-1.4-2-1.5-3.2c-0.1-1.4,1.2-2.4,2.7-2.5c1.5-0.1,3,0.5,4.5,1.2"/>
			<path class="st0" d="M31.4,29c-0.5,5,4.4,15.3,10.4,14.6c1.4-0.1,2.6-1.2,3.1-2.4c1.1-2.5,0-5.1-1.1-7.3
				c-1.5-2.9-2.9-5.9-3.6-9.1c-1.5-6.3,1.2-15.8,11.2-18.9"/>
			<path class="st0" d="M56,22.9c-3.4,1.6-7,5.1-6.9,8.6c0,1.5,1.2,3,2.7,3.1c1.2,0.1,2.3-0.7,3.1-1.5c3-3.1,5.9-6.3,8.5-9.9
				c-1,1.3-3.1,5.2-0.9,6.2c3.5,1.7,7.6-5.7,9.7-7.4c-0.1,0.9-0.3,1.8-0.2,2.7c0.1,1,0.6,2.1,1.5,2.6c1.2,0.7,2.7,0.4,3.9-0.2
				c3.5-2,5.7-5.6,7.2-9.1c1.1-2.6,2.6-5,3.4-7.7c0.5-1.9,1.1-5.8-2.1-6.9c-6.5-2-5.1,9-4.8,11.1c0.5,3.9,2,7.8,4.2,11.2
				c0.5,0.7,1,1.4,1.8,1.8c1.3,0.7,3,0.5,4.2-0.2c3.4-1.9,2.1-6.1,5-8.3c0.5-0.3,1.2-0.5,1.7-0.2c0.5,0.2,0.7,0.7,0.9,1.2
				c0.6,2.2-1.3,4.8,0.2,6.6c1.1,1.4,3.4,1.4,4.9,0.5c1.5-0.9,2.3-2.5,2.8-4.1c-1.8,1.6-2.6,5.1-0.2,6.8c1.5,1.1,3.7,0.7,5.1-0.4
				c1.3-1.1,2-2.7,2.5-4.4c-2.4,5.2-5.4,11.7-10.8,14.3c-4.5,2.2-9.1,1.5-12.7-1.7c-0.7-0.7-1.5-1.6-1.3-2.7c0.2-1.3,1.7-2,3.1-2.1
				c4.8-0.3,8.9,2.7,13.2,4.1c4.5,1.5,8.2,0.4,12.4-1.9c3-1.7,8-3.9,11.8-0.5"/>
		</g>
	</g>
	<path class="st1" d="M80.6,68.3"/>
	<path class="st1" d="M80.6,116.7"/>
	<g>
		<g>
			<path d="M80.6,68.3L80.6,68.3c-13.4,26.9-41.2,27-41.2,27l-0.9,11.3c-5.9-0.4-10.9,3.9-11,10.1c0.1,11.3,9.5,11.3,9.5,11.3
				c1.7,30.3,35.6,30.5,35.6,30.5l0,0c-1.5,13.9-8.1,25.2-18,30.9h0c0,0-3.6-6.6-9.1-11.2c-4.4-3.7-10.3,2.5-6.4,6.6
				c0,0,0.1,0.1,0.1,0.1c0.8,0.9,0.1,2.3-1.1,2.1c-7.8-1.7-13.6-8.7-13.6-17c0-3,1.3-6.9,1.3-6.9c-2.7,1.8-6,2.9-9.5,2.9
				c-7.8,0-14.4-5.3-16.4-12.5c-0.3-1.3,0.9-2.4,2.2-1.9c1.3,0.5,3.2,1,5.8,1c7.5,0,13.6-6.1,13.6-13.6l0-27.9
				c0-31.6,25.6-57.2,57.2-57.2h1.5h0.4h1.5c31.6,0,57.2,25.6,57.2,57.2V139c0,7.5,6.1,13.6,13.6,13.6c2.6,0,4.5-0.4,5.8-1
				c1.2-0.5,2.5,0.6,2.2,1.9c-1.9,7.2-8.5,12.5-16.4,12.5c-3.5,0-6.8-1.1-9.5-2.9c0,0,1.3,3.9,1.3,6.9c0,8.3-5.8,15.3-13.6,17
				c-1.2,0.3-1.9-1.2-1.1-2.1c0,0,0.1-0.1,0.1-0.1c4-4.2-1.9-10.3-6.4-6.6c-5.5,4.6-9.1,11.2-9.1,11.2h0c-9.9-5.7-16.6-16.9-18-30.9
				l0,0c0,0,33.9-0.2,35.6-30.5c0,0,9.4,0,9.5-11.3c-0.1-6.2-5.1-10.5-11-10.1l-0.9-11.3C121.8,95.4,94,95.2,80.6,68.3"/>
		</g>
	</g>
	<path class="st1" d="M72.6,159.8c5.4,0.1,10.8,0.1,16,0"/>
	<g>
		<path class="st1" d="M38.2,133.9l0.3-0.1c7.8-2.1,16.1,1.8,19.2,9.5c1.6,3.9,1.6,8,0.3,11.7"/>
		<path class="st1" d="M123,133.8c-7.8-2.1-16.1,1.8-19.2,9.5c-1.6,3.9-1.6,8-0.3,11.7"/>
		<g>
			<circle class="st1" cx="59.9" cy="113.3" r="16.3"/>
			<line class="st1" x1="44" y1="104.4" x2="45.9" y2="104.4"/>
		</g>
		<path d="M60.5,108.3C60.5,108.3,60.5,108.3,60.5,108.3l-4.7,0c-0.8,0-1.4,0.6-1.4,1.4c0,0.8,0.6,1.4,1.4,1.4h0.4
			c-0.4,0.8-0.7,1.7-0.7,2.7c0,3,2.2,5.4,4.9,5.4c2.7,0,4.9-2.4,4.9-5.4C65.4,110.7,63.2,108.3,60.5,108.3z"/>
		<path d="M107.4,109.7c0-0.8-0.6-1.4-1.4-1.4h-4.7c0,0,0,0,0,0c-2.7,0-4.9,2.4-4.9,5.4c0,3,2.2,5.4,4.9,5.4s4.9-2.4,4.9-5.4
			c0-1-0.3-1.9-0.7-2.7h0.4C106.7,111,107.4,110.4,107.4,109.7z"/>
		<line class="st2" x1="77.2" y1="112.8" x2="85.2" y2="112.8"/>
		<g>
			<circle class="st1" cx="101.9" cy="113.3" r="16.3"/>
			<line class="st1" x1="117.8" y1="104.4" x2="115.9" y2="104.4"/>
		</g>
		<path class="st1" d="M87.5,134.6L87.5,134.6c-4.3,2.1-9.2,2.1-13.5,0l0,0"/>
	</g>
	<g>
		<path d="M83.8,197c0-1.8-1.4-3.2-3.2-3.2c-1.8,0-3.2,1.4-3.2,3.2c0,1.8,1.4,3.2,3.2,3.2C82.4,200.3,83.8,198.8,83.8,197z"/>
		<path d="M87.3,177H73.9c-3.7,7.6-9.1,13.8-16,17.8c0.1,0.2,0.1,0.4,0.2,0.5l20.4,32.6v-12.3l0-11.6c-3.1-0.9-5.3-3.7-5.3-7.1
			c0-4.1,3.3-7.5,7.5-7.5c4.1,0,7.5,3.3,7.5,7.5c0,3.4-2.3,6.2-5.3,7.1v23.8l20.4-32.6c0.1-0.2,0.1-0.4,0.2-0.5
			C96.4,190.8,91,184.6,87.3,177z"/>
	</g>
</g>
</svg>
