<?xml version="1.0" encoding="utf-8"?>
<!-- Generator: Adobe Illustrator 25.0.1, SVG Export Plug-In . SVG Version: 6.00 Build 0)  -->
<svg version="1.1" id="Layer_1" xmlns="http://www.w3.org/2000/svg" xmlns:xlink="http://www.w3.org/1999/xlink" x="0px" y="0px"
	 viewBox="0 0 380.55 183.32" style="enable-background:new 0 0 380.55 183.32;" xml:space="preserve">
<style type="text/css">
	.st0{fill:#010101;}
</style>
<path class="st0" d="M189.65,183.31c-4.34-0.04-8.31-1.6-11.41-4.18l0.03,0.02L5.99,39.01C2.3,35.69,0,30.91,0,25.58
	C0,15.61,8.08,7.52,18.06,7.52c4.02,0,7.73,1.31,10.73,3.53l-0.05-0.03l161.27,130.75L350.75,4.34c3.14-2.7,7.25-4.34,11.74-4.34
	c9.97,0,18.06,8.09,18.06,18.06c0,5.48-2.44,10.39-6.3,13.7l-0.02,0.02L201.39,179.52c-3.03,2.37-6.89,3.8-11.09,3.8
	c-0.23,0-0.46-0.01-0.68-0.01L189.65,183.31L189.65,183.31z"/>
</svg>
